<svg xmlns="http://www.w3.org/2000/svg" xmlns:svg="http://www.w3.org/2000/svg" id="svg2" width="1000" height="500" version="1.0"><metadata id="metadata30"/><path style="fill:#fff;stroke:none" id="rect4" d="m 0,0 1000,0 0,500 -1000,0 z"/><path id="path10" d="M 30,280 30,450 340,280 z" style="fill:#002373;fill-opacity:1;stroke:none"/><path id="path12" d="m 400,310 0,160 -290,0 z" style="fill:#002373;fill-opacity:1;stroke:none"/><path id="path18" d="m 460,300 0,170 510,0 z" style="fill:#cd0019;fill-opacity:1;stroke:none"/><path id="path20" d="m 480,330 0,120 370,0 z" style="fill:#fff;stroke:none"/><path id="path22" d="m 460,220 490,0 25,30 -25,30 -490,0 30,-30 z" style="fill:#cd0019;fill-opacity:1;stroke:none"/><path id="path24" d="m 490,230 450,0 20,20 -20,20 -450,0 20,-20 z" style="fill:#f8d80e;fill-opacity:1;stroke:none"/><path style="fill:#002373;fill-opacity:1;stroke:none" id="path3790" d="M 30,220 30,50 340,220 z"/><path style="fill:#002373;fill-opacity:1;stroke:none" id="path3792" d="M 400,190 400,30 110,30 z"/><path style="fill:#cd0019;fill-opacity:1;stroke:none" id="path3794" d="m 460,200 0,-170 510,0 z"/><path style="fill:#fff;stroke:none" id="path3796" d="m 480,170 0,-120 370,0 z"/></svg>