<svg xmlns="http://www.w3.org/2000/svg" xmlns:svg="http://www.w3.org/2000/svg" id="svg2" width="2400" height="1200" version="1.0" viewBox="0 0 2400 1200" xml:space="preserve" style="fill-rule:evenodd"><defs id="defs4"><style id="style6" type="text/css"/></defs><rect id="rect124" width="2400" height="1200" x="0" y="0" style="fill:#cf142b;fill-opacity:1"/><rect id="_126201808" width="1200" height="600" x="0" y="0" style="fill:#00247d;fill-opacity:1"/><polygon id="path146" points="134.169 600 0 600 0 532.917 1065.84 0 1200 0 1200 67" style="fill:#fff"/><polygon id="path146_0" points="0 67.087 1065.84 600 1200 600 1200 532.918 134.169 0 0 0" style="fill:#fff"/><polygon id="path136" points="0 200.003 0 400 1200 400 1200 200" style="fill:#fff"/><polygon id="path136_1" points="500 600 700 600 700 0 500 0" style="fill:#fff"/><polygon id="path141_2" points="0 240 0 360 1200 360 1200 240.002" style="fill:#cf142b;fill-opacity:1"/><polygon id="path150" points="1200 555.279 1200 600 800.003 400.002 889.444 400.002" style="fill:#cf142b;fill-opacity:1"/><polygon id="path150_3" points="710.561 200 1110.56 0 1200 0 800 200" style="fill:#cf142b;fill-opacity:1"/><polygon id="path150_4" points="400 200 310.563 200 0 44.726 0 0" style="fill:#cf142b;fill-opacity:1"/><polygon id="path150_5" points="89.447 600 0 600 400 400 489.445 400" style="fill:#cf142b;fill-opacity:1"/><path id="path604" d="m 1560.06,500.044 0.073,99.8479 c 0.099,132.705 132.407,254.243 239.862,300.107 107.454,-45.8646 239.763,-167.402 239.862,-300.107 l 0.073,-99.8079 -479.87,-0.0401 -4e-4,0 z" style="fill:#007934;fill-opacity:1;stroke:#b88b00;stroke-width:10.00030041;stroke-opacity:1"/><polygon id="_126098824" points="1764.52 641.267 1764.55 635.978 1744.67 634.253 1753.11 616.217 1748.51 613.602 1763.35 605.05 1729.42 585.509 1734.69 582.52 1725.04 561.907 1747.76 559.936 1747.72 553.891 1781.65 573.443 1781.65 534.366 1786.88 537.423 1800 518.781 1813.12 537.423 1818.35 534.366 1818.35 573.443 1852.28 553.891 1852.24 559.936 1874.96 561.907 1865.31 582.52 1870.58 585.509 1836.65 605.05 1851.49 613.602 1846.89 616.217 1855.33 634.253 1835.45 635.978 1835.48 641.267 1805.8 624.165 1805.84 861.22 1800.01 861.181 1794.17 861.22 1794.2 624.165" style="fill:#c5892a"/><polygon id="_126097944" points="1862.48 657.665 1878.81 646.265 1876.12 641.696 1893.26 641.714 1873.64 607.826 1879.7 607.871 1881.65 585.196 1902.31 594.848 1905.3 589.593 1924.91 623.49 1944.44 589.646 1947.44 594.909 1968.13 585.327 1970.17 608.033 1976.23 608.001 1956.69 641.841 1995.85 641.872 1992.79 647.089 2011.48 660.154 1992.82 673.181 1995.89 678.404 1956.73 678.36 1965.31 693.191 1960.01 693.151 1958.31 712.991 1940.23 704.546 1937.61 709.143 1920.45 679.489 1910.42 673.695 1876.16 673.661 1878.83 669.098" style="fill:#c5892a"/><polygon id="_126097064" points="1737.52 657.351 1721.19 645.952 1723.88 641.382 1706.74 641.4 1726.36 607.512 1720.3 607.558 1718.35 584.883 1697.69 594.534 1694.7 589.28 1675.09 623.177 1655.56 589.333 1652.56 594.596 1631.87 585.014 1629.83 607.719 1623.77 607.687 1643.31 641.526 1604.15 641.558 1607.21 646.776 1588.52 659.841 1607.18 672.868 1604.11 678.091 1643.27 678.047 1634.69 692.877 1639.99 692.837 1641.69 712.678 1659.77 704.232 1662.39 708.83 1679.55 679.176 1689.58 673.381 1723.84 673.346 1721.17 668.784" style="fill:#c5892a"/><line style="fill:none;stroke:#f3cc00;stroke-width:1.99975002;stroke-linecap:round;stroke-linejoin:round" id="_126096560" x1="1799.95" x2="1799.95" y1="533.216" y2="615.795" class="fil5 str1"/><line style="fill:none;stroke:#f3cc00;stroke-width:1.99975002;stroke-linecap:round;stroke-linejoin:round" id="_126096056" x1="1846.11" x2="1736.72" y1="629.139" y2="568.436" class="fil5 str1"/><line style="fill:none;stroke:#f3cc00;stroke-width:1.99975002;stroke-linecap:round;stroke-linejoin:round" id="_126095552" x1="1753.63" x2="1863.28" y1="629.217" y2="568.266" class="fil5 str1"/><path id="_126095048" d="m 1787.92,545.083 12.0801,20.8029 12.0801,-20.8029 m -24.1603,0 z" style="fill:none;stroke:#f3cc00;stroke-width:1.99975002;stroke-linecap:round;stroke-linejoin:round"/><path id="_126094544" d="m 1740.98,584.112 24.0601,-0.0578 -11.98,-20.0013 M 1740.98,584.112 z" style="fill:none;stroke:#f3cc00;stroke-width:1.99975002;stroke-linecap:round;stroke-linejoin:round"/><path id="_126094040" d="m 1859.02,583.941 -24.0601,-0.0582 11.98,-20.0009 m 12.0801,20.0591 z" style="fill:none;stroke:#f3cc00;stroke-width:1.99975002;stroke-linecap:round;stroke-linejoin:round"/><path id="_126093536" d="m 1841.85,613.465 -24.0601,0.0571 11.9701,20.0009 m 12.09,-20.058 z" style="fill:none;stroke:#f3cc00;stroke-width:1.99975002;stroke-linecap:round;stroke-linejoin:round"/><path id="_126093032" d="m 1757.89,613.541 24.0601,0.0582 -11.9701,20.0009 m -12.09,-20.0591 z" style="fill:none;stroke:#f3cc00;stroke-width:1.99975002;stroke-linecap:round;stroke-linejoin:round"/><line style="fill:none;stroke:#f3cc00;stroke-width:1.99975002;stroke-linecap:round;stroke-linejoin:round" id="_126092528" x1="1960.86" x2="1919.58" y1="597.802" y2="669.317" class="fil5 str1"/><line style="fill:none;stroke:#f3cc00;stroke-width:1.99975002;stroke-linecap:round;stroke-linejoin:round" id="_126092024" x1="1952.88" x2="1888.5" y1="703.955" y2="596.689" class="fil5 str1"/><line style="fill:none;stroke:#f3cc00;stroke-width:1.99975002;stroke-linecap:round;stroke-linejoin:round" id="_126091520" x1="1872.75" x2="1998.19" y1="657.782" y2="659.823" class="fil5 str1"/><path id="_126091016" d="m 1944.51,602.065 0.06,24.054 20.8702,-11.9732 M 1944.51,602.0649 z" style="fill:none;stroke:#f3cc00;stroke-width:1.99975002;stroke-linecap:round;stroke-linejoin:round"/><path id="_126090512" d="m 1884.35,612.396 20.86,11.9769 -0.37,-23.308 m -20.49,11.331 z" style="fill:none;stroke:#f3cc00;stroke-width:1.99975002;stroke-linecap:round;stroke-linejoin:round"/><path id="_126090008" d="m 1986.66,671.265 -20.7999,-12.076 20.3701,-11.3348 m 0.4297,23.4108 z" style="fill:none;stroke:#f3cc00;stroke-width:1.99975002;stroke-linecap:round;stroke-linejoin:round"/><path id="_126089504" d="m 1957.03,688.248 -20.86,-11.9773 0.3602,23.3091 M 1957.03,688.248 z" style="fill:none;stroke:#f3cc00;stroke-width:1.99975002;stroke-linecap:round;stroke-linejoin:round"/><path id="_126089000" d="m 1884.28,646.339 20.8101,12.0771 -20.3701,11.3352 m -0.4399,-23.4123 z" style="fill:none;stroke:#f3cc00;stroke-width:1.99975002;stroke-linecap:round;stroke-linejoin:round"/><line style="fill:none;stroke:#f3cc00;stroke-width:1.99975002;stroke-linecap:round;stroke-linejoin:round" id="_126088496" x1="1639.14" x2="1680.43" y1="597.488" y2="669.004" class="fil5 str1"/><line style="fill:none;stroke:#f3cc00;stroke-width:1.99975002;stroke-linecap:round;stroke-linejoin:round" id="_126087992" x1="1647.12" x2="1711.5" y1="703.642" y2="596.375" class="fil5 str1"/><line style="fill:none;stroke:#f3cc00;stroke-width:1.99975002;stroke-linecap:round;stroke-linejoin:round" id="_126087488" x1="1727.25" x2="1601.81" y1="657.469" y2="659.509" class="fil5 str1"/><path id="_126086976" d="m 1655.49,601.752 -0.06,24.0537 -20.8702,-11.9728 M 1655.49,601.752 z" style="fill:none;stroke:#f3cc00;stroke-width:1.99975002;stroke-linecap:round;stroke-linejoin:round"/><path id="_126086488" d="m 1715.65,612.081 -20.86,11.9781 0.37,-23.308 m 20.49,11.3299 z" style="fill:none;stroke:#f3cc00;stroke-width:1.99975002;stroke-linecap:round;stroke-linejoin:round"/><path id="_126086016" d="m 1613.34,670.952 20.7999,-12.0779 -20.3701,-11.3352 m -0.4297,23.413 z" style="fill:none;stroke:#f3cc00;stroke-width:1.99975002;stroke-linecap:round;stroke-linejoin:round"/><path id="_126085664" d="m 1642.97,687.935 20.8698,-11.9769 -0.37,23.308 m -20.4998,-11.331 z" style="fill:none;stroke:#f3cc00;stroke-width:1.99975002;stroke-linecap:round;stroke-linejoin:round"/><path id="_126085312" d="m 1715.72,646.026 -20.8101,12.0771 20.3701,11.3348 m 0.4399,-23.4119 z" style="fill:none;stroke:#f3cc00;stroke-width:1.99975002;stroke-linecap:round;stroke-linejoin:round"/><path id="path604_6" d="m 1800.16,792.217 c 45.411,-31.3134 87.7784,-73.1478 118.825,-120.82" style="fill:none;stroke:#c5892a;stroke-width:10.99960041"/><path id="path604_7" d="m 1800.25,792.217 c -45.4122,-31.3134 -87.7791,-73.1478 -118.826,-120.82" style="fill:none;stroke:#c5892a;stroke-width:10.99960041"/><rect id="_126101704" width="479.961" height="200.147" x="1560.04" y="300.032" style="fill:#fff"/><polygon id="path141_8" points="1822.52 300.058 1777.52 300.058 1777.52 500.157 1822.52 500.157" style="fill:#f7403a;fill-opacity:1"/><polygon id="path141_9" points="2040 377.602 1560.04 377.602 1560.04 422.611 2040 422.611" style="fill:#f7403a;fill-opacity:1"/><rect id="rect613" width="479.963" height="200.147" x="1560" y="300.002" style="fill:none;stroke:#b88b00;stroke-width:10.00030041;stroke-opacity:1"/><polygon id="polygon3848" points=".005 360.002 1262.77 360.002 1262.77 240.002 .005 240.002" transform="matrix(0,0.47514776,-1,0,900.002,-0.00233459)" style="fill:#cf142b;fill-opacity:1"/><metadata id="metadata3852"/></svg>