<svg xmlns="http://www.w3.org/2000/svg" xmlns:svg="http://www.w3.org/2000/svg" id="svg2" width="600" height="300" version="1.1" viewBox="0 0 600 300" xml:space="preserve"><metadata id="metadata32"/><rect id="rect4" width="600" height="300" x="0" y="0" style="fill:#ffd000;stroke:none"/><circle id="circle6" cx="300" cy="150" r="100" style="fill:#00b0e0;stroke:none"/><g id="g8" style="fill:#fff;stroke:#00b0e0;stroke-width:1.5;stroke-opacity:1;stroke-miterlimit:4;stroke-dasharray:none"><path id="path10" d="m 246,198 c 16,2 31,-3 41,-9 14,-7 16,-26 16,-26 0,0 -25,-2 -38,12 -3,2 -13,10 -19,23 z" style="stroke:#00b0e0;stroke-opacity:1;stroke-width:1.5;stroke-miterlimit:4;stroke-dasharray:none"/><path id="path12" d="m 354,198 c -16,2 -31,-3 -41,-9 -14,-7 -16,-26 -16,-26 0,0 25,-2 38,12 3,2 13,10 19,23 z" style="stroke:#00b0e0;stroke-opacity:1;stroke-width:1.5;stroke-miterlimit:4;stroke-dasharray:none"/><path id="path14" d="m 248,152 c -3,0 -9,-1 -18,6 7,9 14,14 26,14 16,0 32,-4 32,-4 0,0 -22,-16 -30,-16 z" style="stroke:#00b0e0;stroke-opacity:1;stroke-width:1.5;stroke-miterlimit:4;stroke-dasharray:none"/><path id="path16" d="m 352,152 c 3,0 9,-1 18,6 -7,9 -14,14 -26,14 -16,0 -32,-4 -32,-4 0,0 22,-16 40,-16 z" style="stroke:#00b0e0;stroke-opacity:1;stroke-width:1.5;stroke-miterlimit:4;stroke-dasharray:none"/><path id="path18" d="m 281,99 c -9,0 -17,48 -17,48 l 33,0 c 0,0 -3,-48 -16,-48 z" style="stroke:#00b0e0;stroke-opacity:1;stroke-width:1.5;stroke-miterlimit:4;stroke-dasharray:none"/><path id="path20" d="m 319,99 c 9,0 17,48 17,48 l -33,0 c 0,0 3,-48 16,-48 z" style="stroke:#00b0e0;stroke-opacity:1;stroke-width:1.5;stroke-miterlimit:4;stroke-dasharray:none"/><path id="path22" d="m 262,108 c -3,0 -6,11 -6,22 0,13 14,45 41,40 -7,-15 -24,-62 -35,-62 z" style="stroke:#00b0e0;stroke-opacity:1;stroke-width:1.5;stroke-miterlimit:4;stroke-dasharray:none"/><path id="path24" d="m 338,108 c 3,0 6,11 6,22 0,13 -14,45 -41,40 7,-15 24,-62 35,-62 z" style="stroke:#00b0e0;stroke-opacity:1;stroke-width:1.5;stroke-miterlimit:4;stroke-dasharray:none"/><path id="path26" d="m 300,172 c 13,0 15,-14 15,-32 0,-12 -8,-41 -15,-41 -7,0 -15,29 -15,41 0,18 2,32 15,32 z" style="stroke:#00b0e0;stroke-opacity:1;stroke-width:1.5;stroke-miterlimit:4;stroke-dasharray:none"/></g></svg>