<svg xmlns="http://www.w3.org/2000/svg" xmlns:svg="http://www.w3.org/2000/svg" xmlns:xlink="http://www.w3.org/1999/xlink" id="svg2" width="600" height="300" version="1.1" viewBox="0 0 600 300" xml:space="preserve"><metadata id="metadata59"/><defs id="defs4"><path id="big" d="m 0,-23 c 2,-14 3,-21 0,-21 -3,0 -2,7 0,21 z" style="fill:#ffb000"/><path id="small" d="m 0,-23 c 1,-10 1.5,-14 0,-14 -1.5,0 -1,4 0,14 z" style="fill:#ffb000"/></defs><clipPath id="mid"><circle id="circle9" cx="300" cy="150" r="49"/></clipPath><rect id="rect11" width="600" height="100" x="0" y="0" style="fill:#0090d0"/><rect id="rect13" width="600" height="100" x="0" y="100" style="fill:#007030"/><path id="path3036" d="m 355,150 a 49,49 0 1 1 -98,0 49,49 0 1 1 98,0 z" transform="matrix(0.97959184,0,0,0.97959184,0.24489796,3.0612245)" style="fill:#0090d0;fill-opacity:1;stroke:none"/><rect id="rect15" width="600" height="100" x="0" y="200" style="fill:#e02010"/><circle id="circle17" cx="300" cy="150" r="20" style="fill:#ffb000"/><path id="path19" d="m 300,145 c -15,-15 -78,40 -78,40 l 169,4 c 0,0 -68,-62 -90,-44 z" clip-path="url(#mid)" style="fill:#fff"/><path id="path21" d="m 301,162 c -20,-18 -38,16 -60,4 11,50 125,55 115,-2 -18,2 -35,-25 -55,-2 z" clip-path="url(#mid)" style="fill:#007030"/><circle id="circle23" cx="300" cy="150" r="48" style="fill:none;stroke:#ffb000;stroke-width:4"/><use id="use25" width="600" height="300" x="0" y="0" transform="matrix(0.43837115,-0.89879405,0.89879405,0.43837115,300,150)" xlink:href="#big"/><use id="use27" width="600" height="300" x="0" y="0" transform="matrix(0.5591929,-0.82903757,0.82903757,0.5591929,300,150)" xlink:href="#big"/><use id="use29" width="600" height="300" x="0" y="0" transform="matrix(0.82903757,-0.5591929,0.5591929,0.82903757,300,150)" xlink:href="#big"/><use id="use31" width="600" height="300" x="0" y="0" transform="matrix(0.89879405,-0.43837115,0.43837115,0.89879405,300,150)" xlink:href="#big"/><use id="use33" width="600" height="300" x="0" y="0" transform="matrix(0.99756405,-0.06975647,0.06975647,0.99756405,300,150)" xlink:href="#big"/><use id="use35" width="600" height="300" x="0" y="0" transform="matrix(0.99756405,0.06975647,-0.06975647,0.99756405,300,150)" xlink:href="#big"/><use id="use37" width="600" height="300" x="0" y="0" transform="matrix(0.89879405,0.43837115,-0.43837115,0.89879405,300,150)" xlink:href="#big"/><use id="use39" width="600" height="300" x="0" y="0" transform="matrix(0.82903757,0.5591929,-0.5591929,0.82903757,300,150)" xlink:href="#big"/><use id="use41" width="600" height="300" x="0" y="0" transform="matrix(0.5591929,0.82903757,-0.82903757,0.5591929,300,150)" xlink:href="#big"/><use id="use43" width="600" height="300" x="0" y="0" transform="matrix(0.43837115,0.89879405,-0.89879405,0.43837115,300,150)" xlink:href="#big"/><use id="use45" width="600" height="300" x="0" y="0" transform="matrix(0.25881905,-0.96592583,0.96592583,0.25881905,300,150)" xlink:href="#small"/><use id="use47" width="600" height="300" x="0" y="0" transform="matrix(0.70710678,-0.70710678,0.70710678,0.70710678,300,150)" xlink:href="#small"/><use id="use49" width="600" height="300" x="0" y="0" transform="matrix(0.96592583,-0.25881905,0.25881905,0.96592583,300,150)" xlink:href="#small"/><use id="use51" width="600" height="300" x="0" y="0" transform="matrix(0.96592583,0.25881905,-0.25881905,0.96592583,300,150)" xlink:href="#small"/><use id="use53" width="600" height="300" x="0" y="0" transform="matrix(0.70710678,0.70710678,-0.70710678,0.70710678,300,150)" xlink:href="#small"/><use id="use55" width="600" height="300" x="0" y="0" transform="matrix(0.25881905,0.96592583,-0.96592583,0.25881905,300,150)" xlink:href="#small"/></svg>