<svg xmlns="http://www.w3.org/2000/svg" xmlns:svg="http://www.w3.org/2000/svg" xmlns:xlink="http://www.w3.org/1999/xlink" id="svg2" width="800" height="533.682" version="1.1"><defs id="defs4"><linearGradient id="linearGradient7695"><stop id="stop7697" offset="0" style="stop-color:#00adef;stop-opacity:1"/><stop style="stop-color:#46c3f3;stop-opacity:1" id="stop7699" offset=".562"/><stop id="stop7701" offset="1" style="stop-color:#8cd9f7;stop-opacity:1"/></linearGradient><linearGradient id="linearGradient7661"><stop style="stop-color:#00adef;stop-opacity:1" id="stop7663" offset="0"/><stop id="stop7693" offset=".5" style="stop-color:#46c3f3;stop-opacity:1"/><stop style="stop-color:#8cd9f7;stop-opacity:1" id="stop7665" offset="1"/></linearGradient><linearGradient id="linearGradient6017"><stop style="stop-color:#453700;stop-opacity:1" id="stop6019" offset="0"/><stop style="stop-color:#fff6d2;stop-opacity:.92146599" id="stop6021" offset="1"/></linearGradient><linearGradient id="linearGradient5090"><stop id="stop5092" offset="0" style="stop-color:#565656;stop-opacity:1"/><stop style="stop-color:#aaaa2b;stop-opacity:0" id="stop5094" offset=".275"/><stop id="stop5096" offset=".584" style="stop-color:#919132;stop-opacity:0"/><stop id="stop5098" offset=".807" style="stop-color:#787839;stop-opacity:0"/><stop id="stop5100" offset="1" style="stop-color:#474747;stop-opacity:1"/></linearGradient><linearGradient id="linearGradient5074"><stop style="stop-color:#000;stop-opacity:1" id="stop5076" offset="0"/><stop style="stop-color:#000;stop-opacity:0" id="stop5078" offset="1"/></linearGradient><linearGradient id="linearGradient4803"><stop style="stop-color:#565656;stop-opacity:1" id="stop4805" offset="0"/><stop id="stop4811" offset=".362" style="stop-color:#aaaa2b;stop-opacity:0"/><stop style="stop-color:#919132;stop-opacity:0" id="stop4815" offset=".51"/><stop style="stop-color:#787839;stop-opacity:0" id="stop4813" offset=".658"/><stop style="stop-color:#474747;stop-opacity:1" id="stop4807" offset="1"/></linearGradient><linearGradient id="linearGradient4672"><stop id="stop4674" offset="0" style="stop-color:#727272;stop-opacity:1"/><stop id="stop4676" offset="1" style="stop-color:#727272;stop-opacity:0"/></linearGradient><linearGradient id="linearGradient5326"><stop style="stop-color:#727272;stop-opacity:1" id="stop5328" offset="0"/><stop style="stop-color:#727272;stop-opacity:0" id="stop5330" offset="1"/></linearGradient><linearGradient id="linearGradient6168"><stop id="stop6170" offset="0" style="stop-color:#a3b5e3;stop-opacity:1"/><stop style="stop-color:#003dc6;stop-opacity:1" id="stop6172" offset=".276"/><stop style="stop-color:#94b7e5;stop-opacity:1" id="stop6174" offset=".51"/><stop style="stop-color:#0040c5;stop-opacity:1" id="stop6176" offset=".724"/><stop id="stop6178" offset="1" style="stop-color:#a8c7ed;stop-opacity:1"/></linearGradient><linearGradient id="linearGradient6146"><stop style="stop-color:#0b339d;stop-opacity:1" id="stop6148" offset="0"/><stop style="stop-color:#aec1f6;stop-opacity:1" id="stop6150" offset="1"/></linearGradient><linearGradient id="linearGradient6124"><stop style="stop-color:#a3b5e3;stop-opacity:1" id="stop6126" offset="0"/><stop id="stop6136" offset=".213" style="stop-color:#003dc6;stop-opacity:1"/><stop id="stop6134" offset=".425" style="stop-color:#94b7e5;stop-opacity:1"/><stop id="stop6132" offset=".843" style="stop-color:#0040c5;stop-opacity:1"/><stop style="stop-color:#a8c7ed;stop-opacity:1" id="stop6128" offset="1"/></linearGradient><linearGradient id="linearGradient5691"><stop style="stop-color:#fffb00;stop-opacity:.7227723" id="stop5693" offset="0"/><stop style="stop-color:#ffc200;stop-opacity:0" id="stop5695" offset="1"/></linearGradient><linearGradient id="linearGradient6889"><stop style="stop-color:#fff;stop-opacity:1" id="stop6891" offset="0"/><stop style="stop-color:#ffcf00;stop-opacity:0" id="stop6893" offset="1"/></linearGradient><linearGradient id="linearGradient6485"><stop style="stop-color:#000;stop-opacity:1" id="stop6487" offset="0"/><stop id="stop6501" offset=".072" style="stop-color:#0f0c00;stop-opacity:.74901961"/><stop id="stop6499" offset=".155" style="stop-color:#715e12;stop-opacity:.49803922"/><stop id="stop6495" offset=".526" style="stop-color:#3f3300;stop-opacity:0"/><stop id="stop6493" offset=".769" style="stop-color:#683e0e;stop-opacity:.50261778"/><stop style="stop-color:#8a720b;stop-opacity:.32156863" id="stop6497" offset=".913"/><stop style="stop-color:#ffcf00;stop-opacity:0" id="stop6489" offset="1"/></linearGradient><linearGradient id="linearGradient6407"><stop style="stop-color:#000;stop-opacity:1" id="stop6409" offset="0"/><stop style="stop-color:#ffcf00;stop-opacity:0" id="stop6411" offset="1"/></linearGradient><linearGradient id="linearGradient6491" x1="614.79" x2="503.099" y1="356.348" y2="516.348" gradientUnits="userSpaceOnUse" xlink:href="#linearGradient6485"/><linearGradient id="linearGradient6527" x1="614.79" x2="503.099" y1="356.348" y2="516.348" gradientUnits="userSpaceOnUse" xlink:href="#linearGradient6485"/><linearGradient id="linearGradient6550" x1="614.79" x2="503.099" y1="356.348" y2="516.348" gradientUnits="userSpaceOnUse" xlink:href="#linearGradient6485"/><linearGradient id="linearGradient6999" x1="475.152" x2="452.334" y1="345.98" y2="285.623" gradientUnits="userSpaceOnUse" xlink:href="#linearGradient6407"/><linearGradient id="linearGradient7016" x1="475.152" x2="452.334" y1="345.98" y2="285.623" gradientUnits="userSpaceOnUse" xlink:href="#linearGradient6407"/><linearGradient id="linearGradient7044" x1="475.152" x2="452.334" y1="345.98" y2="285.623" gradientUnits="userSpaceOnUse" xlink:href="#linearGradient6407"/><linearGradient id="linearGradient5332" x1="510.079" x2="552.999" y1="612.558" y2="614.308" gradientUnits="userSpaceOnUse" xlink:href="#linearGradient5326"/><linearGradient id="linearGradient5342" x1="584.247" x2="572.723" y1="594.51" y2="594.51" gradientUnits="userSpaceOnUse" xlink:href="#linearGradient5326"/><linearGradient id="linearGradient5346" x1="584.247" x2="572.723" y1="594.51" y2="594.51" gradientTransform="translate(0.0625,-0.06250001)" gradientUnits="userSpaceOnUse" xlink:href="#linearGradient5326"/><linearGradient id="linearGradient5367" x1="567.365" x2="580.492" y1="588.949" y2="588.199" gradientUnits="userSpaceOnUse" xlink:href="#linearGradient5326"/><linearGradient id="linearGradient4978" x1="297.692" x2="366.375" y1="523.277" y2="686.265" gradientUnits="userSpaceOnUse" xlink:href="#linearGradient4803"/><radialGradient id="radialGradient4980" cx="578.097" cy="607.826" r="28.186" fx="578.097" fy="607.826" gradientTransform="matrix(-2.1355498,0.38595137,-0.46773436,-2.5880721,2105.3523,1932.5659)" gradientUnits="userSpaceOnUse" xlink:href="#linearGradient4672"/><linearGradient id="linearGradient5080" x1="352.909" x2="409.596" y1="559.59" y2="707.375" gradientUnits="userSpaceOnUse" xlink:href="#linearGradient5074"/><linearGradient id="linearGradient5088" x1="352.909" x2="409.596" y1="559.59" y2="707.375" gradientUnits="userSpaceOnUse" xlink:href="#linearGradient5090"/><linearGradient id="linearGradient8053" x1="737.93" x2="723.721" y1="347.357" y2="317.38" gradientUnits="userSpaceOnUse" xlink:href="#linearGradient6407"/><linearGradient id="linearGradient8055" x1="734.022" x2="717.587" y1="322.628" y2="292.071" gradientUnits="userSpaceOnUse" xlink:href="#linearGradient6407"/><linearGradient id="linearGradient8057" x1="749.786" x2="712.462" y1="348.656" y2="296.633" gradientUnits="userSpaceOnUse" xlink:href="#linearGradient6407"/><linearGradient id="linearGradient8059" x1="475.152" x2="452.334" y1="345.98" y2="285.623" gradientUnits="userSpaceOnUse" xlink:href="#linearGradient6407"/><linearGradient id="linearGradient8061" x1="475.152" x2="452.334" y1="345.98" y2="285.623" gradientUnits="userSpaceOnUse" xlink:href="#linearGradient6407"/><linearGradient id="linearGradient8080" x1="880.875" x2="827.607" y1="407.061" y2="268.489" gradientTransform="translate(-290.71429,-8.5714286)" gradientUnits="userSpaceOnUse" xlink:href="#linearGradient6407"/><linearGradient id="linearGradient8160" x1="614.79" x2="503.099" y1="356.348" y2="516.348" gradientTransform="translate(1.47234,-0.2376697)" gradientUnits="userSpaceOnUse" xlink:href="#linearGradient6485"/><linearGradient id="linearGradient8181" x1="910.981" x2="877.539" y1="601.582" y2="569.877" gradientTransform="translate(-290.71429,-8.5714286)" gradientUnits="userSpaceOnUse" xlink:href="#linearGradient6407"/><linearGradient id="linearGradient8193" x1="886.856" x2="692.091" y1="461.435" y2="457.705" gradientTransform="translate(-290.71429,-8.5714286)" gradientUnits="userSpaceOnUse" xlink:href="#linearGradient6407"/><linearGradient id="linearGradient8205" x1="783.619" x2="727.858" y1="573.716" y2="522.435" gradientTransform="translate(-290.71429,-8.5714286)" gradientUnits="userSpaceOnUse" xlink:href="#linearGradient6407"/><linearGradient id="linearGradient8218" x1="752.111" x2="686.985" y1="396.725" y2="387.378" gradientTransform="translate(-290.71429,-8.5714286)" gradientUnits="userSpaceOnUse" xlink:href="#linearGradient6407"/><linearGradient id="linearGradient8284" x1="475.152" x2="452.334" y1="345.98" y2="285.623" gradientUnits="userSpaceOnUse" xlink:href="#linearGradient6407"/><linearGradient id="linearGradient8614" x1="475.152" x2="452.334" y1="345.98" y2="285.623" gradientUnits="userSpaceOnUse" xlink:href="#linearGradient6407"/><linearGradient id="linearGradient9038" x1="737.93" x2="723.721" y1="347.357" y2="317.38" gradientUnits="userSpaceOnUse" xlink:href="#linearGradient6407"/><linearGradient id="linearGradient9040" x1="734.022" x2="717.587" y1="322.628" y2="292.071" gradientUnits="userSpaceOnUse" xlink:href="#linearGradient6407"/><linearGradient id="linearGradient9042" x1="749.786" x2="712.462" y1="348.656" y2="296.633" gradientUnits="userSpaceOnUse" xlink:href="#linearGradient6407"/><linearGradient id="linearGradient9044" x1="475.152" x2="452.334" y1="345.98" y2="285.623" gradientUnits="userSpaceOnUse" xlink:href="#linearGradient6407"/><linearGradient id="linearGradient9046" x1="475.152" x2="452.334" y1="345.98" y2="285.623" gradientUnits="userSpaceOnUse" xlink:href="#linearGradient6407"/><linearGradient id="linearGradient9048" x1="752.111" x2="686.985" y1="396.725" y2="387.378" gradientTransform="translate(-10.700004,4.8636003)" gradientUnits="userSpaceOnUse" xlink:href="#linearGradient6407"/><linearGradient id="linearGradient9050" x1="783.619" x2="727.858" y1="573.716" y2="522.435" gradientTransform="translate(-10.700004,4.8636003)" gradientUnits="userSpaceOnUse" xlink:href="#linearGradient6407"/><linearGradient id="linearGradient9052" x1="886.856" x2="692.091" y1="461.435" y2="457.705" gradientTransform="translate(-10.700004,4.8636003)" gradientUnits="userSpaceOnUse" xlink:href="#linearGradient6407"/><linearGradient id="linearGradient9054" x1="910.981" x2="877.539" y1="601.582" y2="569.877" gradientTransform="translate(-10.700004,4.8636003)" gradientUnits="userSpaceOnUse" xlink:href="#linearGradient6407"/><linearGradient id="linearGradient9056" x1="614.79" x2="503.099" y1="356.348" y2="516.348" gradientTransform="translate(281.48663,13.197359)" gradientUnits="userSpaceOnUse" xlink:href="#linearGradient6485"/><linearGradient id="linearGradient9058" x1="880.875" x2="827.607" y1="407.061" y2="268.489" gradientTransform="translate(-10.700004,4.8636003)" gradientUnits="userSpaceOnUse" xlink:href="#linearGradient6407"/><linearGradient id="linearGradient9072" x1="737.93" x2="723.721" y1="347.357" y2="317.38" gradientUnits="userSpaceOnUse" xlink:href="#linearGradient6407"/><linearGradient id="linearGradient9074" x1="734.022" x2="717.587" y1="322.628" y2="292.071" gradientUnits="userSpaceOnUse" xlink:href="#linearGradient6407"/><linearGradient id="linearGradient9076" x1="749.786" x2="712.462" y1="348.656" y2="296.633" gradientUnits="userSpaceOnUse" xlink:href="#linearGradient6407"/><linearGradient id="linearGradient9078" x1="475.152" x2="452.334" y1="345.98" y2="285.623" gradientUnits="userSpaceOnUse" xlink:href="#linearGradient6407"/><linearGradient id="linearGradient9080" x1="475.152" x2="452.334" y1="345.98" y2="285.623" gradientUnits="userSpaceOnUse" xlink:href="#linearGradient6407"/><linearGradient id="linearGradient10386" x1="475.152" x2="452.334" y1="345.98" y2="285.623" gradientUnits="userSpaceOnUse" xlink:href="#linearGradient6407"/><linearGradient id="linearGradient10422" x1="475.152" x2="452.334" y1="345.98" y2="285.623" gradientUnits="userSpaceOnUse" xlink:href="#linearGradient6407"/><linearGradient id="linearGradient11978" x1="475.152" x2="452.334" y1="345.98" y2="285.623" gradientUnits="userSpaceOnUse" xlink:href="#linearGradient6407"/><linearGradient id="linearGradient11980" x1="475.152" x2="452.334" y1="345.98" y2="285.623" gradientUnits="userSpaceOnUse" xlink:href="#linearGradient6407"/><linearGradient id="linearGradient12380" x1="910.981" x2="877.539" y1="601.582" y2="569.877" gradientTransform="matrix(-1,0,0,1,842.17167,-11.168599)" gradientUnits="userSpaceOnUse" xlink:href="#linearGradient6407"/><linearGradient id="linearGradient5115" x1="475.152" x2="452.334" y1="345.98" y2="285.623" gradientUnits="userSpaceOnUse" xlink:href="#linearGradient6407"/><linearGradient id="linearGradient5151" x1="475.152" x2="452.334" y1="345.98" y2="285.623" gradientUnits="userSpaceOnUse" xlink:href="#linearGradient6407"/><linearGradient id="linearGradient7710" x1="-347.32" x2="-295.758" y1="592.963" y2="624.076" gradientUnits="userSpaceOnUse" xlink:href="#linearGradient7695"/><linearGradient id="linearGradient7712" x1="-346.487" x2="-408.371" y1="654.374" y2="654.374" gradientUnits="userSpaceOnUse" xlink:href="#linearGradient7661"/><linearGradient id="linearGradient7714" x1="-310.316" x2="-295.113" y1="663.901" y2="673.447" gradientUnits="userSpaceOnUse" xlink:href="#linearGradient7661"/><linearGradient id="linearGradient7732" x1="-347.32" x2="-295.758" y1="592.963" y2="624.076" gradientUnits="userSpaceOnUse" xlink:href="#linearGradient7695"/><linearGradient id="linearGradient7734" x1="-346.487" x2="-408.371" y1="654.374" y2="654.374" gradientUnits="userSpaceOnUse" xlink:href="#linearGradient7661"/><linearGradient id="linearGradient7736" x1="-310.316" x2="-295.113" y1="663.901" y2="673.447" gradientUnits="userSpaceOnUse" xlink:href="#linearGradient7661"/><linearGradient id="linearGradient5991" x1="-347.32" x2="-295.758" y1="592.963" y2="624.076" gradientUnits="userSpaceOnUse" xlink:href="#linearGradient7695"/><linearGradient id="linearGradient5993" x1="-346.487" x2="-408.371" y1="654.374" y2="654.374" gradientUnits="userSpaceOnUse" xlink:href="#linearGradient7661"/><linearGradient id="linearGradient5995" x1="-310.316" x2="-295.113" y1="663.901" y2="673.447" gradientUnits="userSpaceOnUse" xlink:href="#linearGradient7661"/><linearGradient id="linearGradient5997" x1="-347.32" x2="-295.758" y1="592.963" y2="624.076" gradientUnits="userSpaceOnUse" xlink:href="#linearGradient7695"/><linearGradient id="linearGradient5999" x1="-346.487" x2="-408.371" y1="654.374" y2="654.374" gradientUnits="userSpaceOnUse" xlink:href="#linearGradient7661"/><linearGradient id="linearGradient6001" x1="-310.316" x2="-295.113" y1="663.901" y2="673.447" gradientUnits="userSpaceOnUse" xlink:href="#linearGradient7661"/><linearGradient id="linearGradient3721" x1="-347.32" x2="-295.758" y1="592.963" y2="624.076" gradientUnits="userSpaceOnUse" xlink:href="#linearGradient7695"/><linearGradient id="linearGradient3723" x1="-346.487" x2="-408.371" y1="654.374" y2="654.374" gradientUnits="userSpaceOnUse" xlink:href="#linearGradient7661"/><linearGradient id="linearGradient3725" x1="-310.316" x2="-295.113" y1="663.901" y2="673.447" gradientUnits="userSpaceOnUse" xlink:href="#linearGradient7661"/><linearGradient id="linearGradient3727" x1="-347.32" x2="-295.758" y1="592.963" y2="624.076" gradientUnits="userSpaceOnUse" xlink:href="#linearGradient7695"/><linearGradient id="linearGradient3729" x1="-346.487" x2="-408.371" y1="654.374" y2="654.374" gradientUnits="userSpaceOnUse" xlink:href="#linearGradient7661"/><linearGradient id="linearGradient3731" x1="-310.316" x2="-295.113" y1="663.901" y2="673.447" gradientUnits="userSpaceOnUse" xlink:href="#linearGradient7661"/><linearGradient id="linearGradient5148" x1="-347.32" x2="-295.758" y1="592.963" y2="624.076" gradientUnits="userSpaceOnUse" xlink:href="#linearGradient7695"/><linearGradient id="linearGradient5150" x1="-346.487" x2="-408.371" y1="654.374" y2="654.374" gradientUnits="userSpaceOnUse" xlink:href="#linearGradient7661"/><linearGradient id="linearGradient5152" x1="-310.316" x2="-295.113" y1="663.901" y2="673.447" gradientUnits="userSpaceOnUse" xlink:href="#linearGradient7661"/><linearGradient id="linearGradient5154" x1="-347.32" x2="-295.758" y1="592.963" y2="624.076" gradientUnits="userSpaceOnUse" xlink:href="#linearGradient7695"/><linearGradient id="linearGradient5156" x1="-346.487" x2="-408.371" y1="654.374" y2="654.374" gradientUnits="userSpaceOnUse" xlink:href="#linearGradient7661"/><linearGradient id="linearGradient5158" x1="-310.316" x2="-295.113" y1="663.901" y2="673.447" gradientUnits="userSpaceOnUse" xlink:href="#linearGradient7661"/></defs><metadata id="metadata7"/><g id="g9382" transform="translate(980.30908,-878.10718)"><g id="g4842"><rect id="rect5711" width="800" height="533.682" x="-980.309" y="878.107" style="fill:#009bde;fill-opacity:1;stroke:none"/><path style="fill:#ccc;fill-opacity:1;stroke:#000;stroke-width:1.20000005;stroke-miterlimit:4;stroke-opacity:1;stroke-dasharray:none" id="path5637" d="m -616.91179,993.03833 0,6.28951 36.7708,0 36.77082,0 0,-6.28951 -36.77082,0 -36.7708,0 z"/><g style="stroke:#000;stroke-width:1.58976305;stroke-miterlimit:4;stroke-opacity:1;stroke-dasharray:none" id="g7253" transform="matrix(0.50327884,0,0,0.50316045,-333.22423,598.84976)"><path style="fill:#fff;fill-opacity:1;stroke:#000;stroke-width:1.58976305;stroke-miterlimit:4;stroke-opacity:1;stroke-dasharray:none" id="rect3963" d="m -622.70995,1522.9375 0,41.75 132.09375,0 132.0625,0 0,-41.75 -132.0625,0 -132.09375,0 z"/><path style="fill:#fff;fill-opacity:1;stroke:#000;stroke-width:1.58976305;stroke-miterlimit:4;stroke-opacity:1;stroke-dasharray:none" id="rect3987" d="m -594.9287,1494.4252 c -8.9283,9.5201 -15.46342,19.1898 -27.75,28.5 l 132.0625,0 132.0625,0 c -12.28658,-9.3102 -18.8217,-18.9799 -27.75,-28.5 l -104.3125,0 -104.3125,0 z"/><g id="g5677" style="stroke:#000;stroke-width:1.58976305;stroke-miterlimit:4;stroke-opacity:1;stroke-dasharray:none"><path id="rect3975" d="m -561.0537,925.67518 0,12.5 70.4375,0 70.4375,0 0,-12.5 -70.4375,0 -70.4375,0 z" style="fill:#fff;fill-opacity:1;stroke:#000;stroke-width:1.58976305;stroke-miterlimit:4;stroke-opacity:1;stroke-dasharray:none"/><path id="rect3967" d="m -583.58495,1339.394 0,132.4374 92.96875,0 92.96875,0 0,-132.4374 -92.96875,0 -92.96875,0 z" style="fill:#fff;fill-opacity:1;stroke:#000;stroke-width:1.58976305;stroke-miterlimit:4;stroke-opacity:1;stroke-dasharray:none"/><path id="rect3973" d="m -587.1787,1263.6752 c -4.432,0 -8,3.568 -8,8 l 0,12.75 c 0,4.432 3.568,8 8,8 l 96.5625,0 96.5625,0 c 4.432,0 8,-3.568 8,-8 l 0,-12.75 c 0,-4.432 -3.568,-8 -8,-8 l -96.5625,0 -96.5625,0 z" style="fill:#fff;fill-opacity:1;stroke:#000;stroke-width:1.58976305;stroke-miterlimit:4;stroke-opacity:1;stroke-dasharray:none"/><path id="rect3977" d="m -564.6787,907.01893 c -3.62357,0 -6.53125,2.90768 -6.53125,6.53125 l 0,9.1875 c 0,3.62357 2.90768,6.53125 6.53125,6.53125 l 74.0625,0 74.0625,0 c 3.62357,0 6.53125,-2.90768 6.53125,-6.53125 l 0,-9.1875 c 0,-3.62357 -2.90768,-6.53125 -6.53125,-6.53125 l -74.0625,0 -74.0625,0 z" style="fill:#fff;fill-opacity:1;stroke:#000;stroke-width:1.58976305;stroke-miterlimit:4;stroke-opacity:1;stroke-dasharray:none"/><path id="rect3981" d="m -570.6787,794.42518 0,20.75 80.0625,0 80.0625,0 0,-20.75 -80.0625,0 -80.0625,0 z" style="fill:#fff;fill-opacity:1;stroke:#000;stroke-width:1.58976305;stroke-miterlimit:4;stroke-opacity:1;stroke-dasharray:none"/><path id="rect3979" d="m -579.9287,812.67518 0,18.5 89.3125,0 89.3125,0 0,-18.5 -89.3125,0 -89.3125,0 z" style="fill:#fff;fill-opacity:1;stroke:#000;stroke-width:1.58976305;stroke-miterlimit:4;stroke-opacity:1;stroke-dasharray:none"/><path id="rect3992" d="m -554.4287,938.20643 -16.5,325.46877 80.3125,0 80.3125,0 -16.5,-325.46877 -63.8125,0 -63.8125,0 z" style="fill:#fff;fill-opacity:1;stroke:#000;stroke-width:1.58976305;stroke-miterlimit:4;stroke-opacity:1;stroke-dasharray:none"/><path id="rect3995" d="m -579.83495,831.05018 c 17.47591,24.52301 13.15006,58.9202 26.375,75.96875 l 62.84375,0 62.84375,0 c 13.22494,-17.04855 8.89909,-51.44574 26.375,-75.96875 l -89.21875,0 -89.21875,0 z" style="fill:#fff;fill-opacity:1;stroke:#000;stroke-width:1.58976305;stroke-miterlimit:4;stroke-opacity:1;stroke-dasharray:none"/><path id="rect3969" d="m -595.9287,1320.1752 0,22.25 105.3125,0 105.3125,0 0,-22.25 -105.3125,0 -105.3125,0 z" style="fill:#fff;fill-opacity:1;stroke:#000;stroke-width:1.58976305;stroke-miterlimit:4;stroke-opacity:1;stroke-dasharray:none"/><path id="path5118" d="m -289.5,1372.6364 c 0,4.1421 -3.35786,7.5 -7.5,7.5 -4.14214,0 -7.5,-3.3579 -7.5,-7.5 0,-4.1422 3.35786,-7.5 7.5,-7.5 4.14214,0 7.5,3.3578 7.5,7.5 z" transform="translate(-125.0537,76.625)" style="fill:#fff;fill-opacity:1;stroke:#000;stroke-width:1.58976305;stroke-miterlimit:4;stroke-opacity:1;stroke-dasharray:none;stroke-dashoffset:0"/><path id="path5122" d="m -528.64745,1356.5625 c 0,14.7547 -17.02637,30.9375 -30.9375,30.9375 l 0,45.125 c 14.24931,0 31.125,14.7103 31.125,31.125 l 37.84375,0 37.8125,0 c 0,-16.4147 16.87569,-31.125 31.125,-31.125 l 0,-45.125 c -13.91113,0 -30.9375,-16.1828 -30.9375,-30.9375 l -38,0 -38.03125,0 z" style="fill:#fff;stroke:#000;stroke-width:1.58976305;stroke-linecap:butt;stroke-linejoin:miter;stroke-miterlimit:4;stroke-opacity:1;stroke-dasharray:none"/><path id="path5124" d="m -519.3037,1382.2812 c -2.35855,3.5032 -3.59201,6.0622 -9.28125,8.9376 l 0,32.5 c 4.74613,3.0965 6.4729,4.2011 9.375,9.0312 l 28.59375,0 28.5625,0 c 2.9021,-4.8301 4.62887,-5.9347 9.375,-9.0312 l 0,-32.5 c -5.68924,-2.8754 -6.9227,-5.4344 -9.28125,-8.9376 l -28.65625,0 -28.6875,0 z" style="fill:#fff;stroke:#000;stroke-width:1.58976305;stroke-linecap:butt;stroke-linejoin:miter;stroke-miterlimit:4;stroke-opacity:1;stroke-dasharray:none"/><path style="fill:#fff;fill-opacity:1;stroke:#000;stroke-width:1.58976305;stroke-miterlimit:4;stroke-opacity:1;stroke-dasharray:none;stroke-dashoffset:0" id="path5126" d="m -289.5,1372.6364 c 0,4.1421 -3.35786,7.5 -7.5,7.5 -4.14214,0 -7.5,-3.3579 -7.5,-7.5 0,-4.1422 3.35786,-7.5 7.5,-7.5 4.14214,0 7.5,3.3578 7.5,7.5 z" transform="translate(-125.0537,-12.375)"/><path id="path4194" d="m -438.65556,851.50992 c -0.78129,-6.12826 -0.64914,-11.37264 -9.63433,-17.5009 -11.06004,4.07116 -17.71572,10.54979 -18.64994,22.00876" style="fill:#fff;stroke:#000;stroke-width:1.58976305;stroke-linecap:butt;stroke-linejoin:miter;stroke-miterlimit:4;stroke-opacity:1;stroke-dasharray:none"/><g id="g4196" transform="translate(0,-0.21644)" style="fill:#fff;stroke:#000;stroke-width:1.58976305;stroke-miterlimit:4;stroke-opacity:1;stroke-dasharray:none"><path style="fill:#fff;stroke:#000;stroke-width:1.58976305;stroke-linecap:butt;stroke-linejoin:miter;stroke-miterlimit:4;stroke-opacity:1;stroke-dasharray:none" id="path4178" d="m -365.57421,1183.66 c 8.31088,0 10.17447,-4.9765 11.69921,-8.3085 0,0 3.00259,8.3085 10.57466,8.3085 7.57207,0 10.17534,-8.3085 10.17534,-8.3085 0,0 1.92513,8.214 8.75,8.3085 6.82487,0.094 9.25,-8.3085 9.25,-8.3085 0,0 1.18589,8.3085 8.625,8.3085 7.43911,0 8.625,-8.3085 8.625,-8.3085 0,0 0.0221,8.3085 5.49686,8.3085 5.47473,0 6.50314,-8.371 6.50314,-8.371" transform="translate(-125.0537,75.625)"/><path id="path4180" d="m -490.62791,941.47707 c 6.7655,0 8.28257,3.47923 9.52379,5.80873 0,0 2.44427,-5.80873 8.60835,-5.80873 6.16407,0 8.28328,5.80873 8.28328,5.80873 0,0 1.56716,-5.74267 7.12297,-5.80873 5.55581,-0.0657 7.53,5.80873 7.53,5.80873 0,0 0.96538,-5.80873 7.02122,-5.80873 6.05584,0 7.02122,5.80873 7.02122,5.80873 0,0 0.018,-5.80873 4.47474,-5.80873 4.45673,0 4.63509,5.80873 4.63509,5.80873" style="fill:#fff;stroke:#000;stroke-width:1.58976305;stroke-linecap:butt;stroke-linejoin:miter;stroke-miterlimit:4;stroke-opacity:1;stroke-dasharray:none"/><path style="fill:#fff;stroke:#000;stroke-width:1.58976305;stroke-linecap:butt;stroke-linejoin:miter;stroke-miterlimit:4;stroke-opacity:1;stroke-dasharray:none" id="path4184" d="m -297.9375,1175.3515 -12.48238,-304.23267 0,0 0,0" transform="translate(-125.0537,75.625)"/><path style="fill:#fff;stroke:#000;stroke-width:1.58976305;stroke-linecap:butt;stroke-linejoin:miter;stroke-miterlimit:4;stroke-opacity:1;stroke-dasharray:none" id="path4186" d="m -315.0625,1175.3515 -9.34375,-304.23267" transform="translate(-125.0537,75.625)"/><path style="fill:#fff;stroke:#000;stroke-width:1.58976305;stroke-linecap:butt;stroke-linejoin:miter;stroke-miterlimit:4;stroke-opacity:1;stroke-dasharray:none" id="path4188" d="m -333.13568,1175.3515 -6.05461,-304.23267" transform="translate(-125.0537,75.625)"/><path style="fill:#fff;stroke:#000;stroke-width:1.58976305;stroke-linecap:butt;stroke-linejoin:miter;stroke-miterlimit:4;stroke-opacity:1;stroke-dasharray:none" id="path4190" d="m -353.91767,1175.3515 -2.05108,-304.23267" transform="translate(-125.0537,75.625)"/></g><path style="fill:#fff;fill-opacity:1;stroke:#000;stroke-width:1.58976305;stroke-miterlimit:4;stroke-opacity:1;stroke-dasharray:none;stroke-dashoffset:0" id="path5281" d="m -289.5,1372.6364 c 0,4.1421 -3.35786,7.5 -7.5,7.5 -4.14214,0 -7.5,-3.3579 -7.5,-7.5 0,-4.1422 3.35786,-7.5 7.5,-7.5 4.14214,0 7.5,3.3578 7.5,7.5 z" transform="translate(-265.0537,76.625)"/><path id="path5283" d="m -289.5,1372.6364 c 0,4.1421 -3.35786,7.5 -7.5,7.5 -4.14214,0 -7.5,-3.3579 -7.5,-7.5 0,-4.1422 3.35786,-7.5 7.5,-7.5 4.14214,0 7.5,3.3578 7.5,7.5 z" transform="translate(-265.0537,-12.375)" style="fill:#fff;fill-opacity:1;stroke:#000;stroke-width:1.58976305;stroke-miterlimit:4;stroke-opacity:1;stroke-dasharray:none;stroke-dashoffset:0"/><g style="fill:#fff;stroke:#000;stroke-width:1.58976305;stroke-miterlimit:4;stroke-opacity:1;stroke-dasharray:none" id="g5323" transform="matrix(-1,0,0,1,-981.24411,-0.21644)"><path id="path5325" d="m -365.57421,1183.66 c 8.31088,0 10.17447,-4.9765 11.69921,-8.3085 0,0 3.00259,8.3085 10.57466,8.3085 7.57207,0 10.17534,-8.3085 10.17534,-8.3085 0,0 1.92513,8.214 8.75,8.3085 6.82487,0.094 9.25,-8.3085 9.25,-8.3085 0,0 1.18589,8.3085 8.625,8.3085 7.43911,0 8.625,-8.3085 8.625,-8.3085 0,0 0.0221,8.3085 5.49686,8.3085 5.47473,0 6.56564,-8.3085 6.56564,-8.3085" transform="translate(-125.0537,75.625)" style="fill:#fff;stroke:#000;stroke-width:1.58976305;stroke-linecap:butt;stroke-linejoin:miter;stroke-miterlimit:4;stroke-opacity:1;stroke-dasharray:none"/><path style="fill:#fff;stroke:#000;stroke-width:1.58976305;stroke-linecap:butt;stroke-linejoin:miter;stroke-miterlimit:4;stroke-opacity:1;stroke-dasharray:none" id="path5327" d="m -490.62791,941.47707 c 6.7655,0 8.28257,3.47923 9.52379,5.80873 0,0 2.44427,-5.80873 8.60835,-5.80873 6.16407,0 8.28328,5.80873 8.28328,5.80873 0,0 1.56716,-5.74267 7.12297,-5.80873 5.55581,-0.0657 7.53,5.80873 7.53,5.80873 0,0 0.96538,-5.80873 7.02122,-5.80873 6.05584,0 7.02122,5.80873 7.02122,5.80873 0,0 0.018,-5.80873 4.47474,-5.80873 4.45673,0 4.72347,5.80873 4.72347,5.80873"/><path id="path5329" d="m -297.9375,1175.3515 -12.48238,-304.23267 0,0 0,0" transform="translate(-125.0537,75.625)" style="fill:#fff;stroke:#000;stroke-width:1.58976305;stroke-linecap:butt;stroke-linejoin:miter;stroke-miterlimit:4;stroke-opacity:1;stroke-dasharray:none"/><path id="path5331" d="m -315.0625,1175.3515 -9.34375,-304.23267" transform="translate(-125.0537,75.625)" style="fill:#fff;stroke:#000;stroke-width:1.58976305;stroke-linecap:butt;stroke-linejoin:miter;stroke-miterlimit:4;stroke-opacity:1;stroke-dasharray:none"/><path id="path5333" d="m -333.13568,1175.3515 -6.05461,-304.23267" transform="translate(-125.0537,75.625)" style="fill:#fff;stroke:#000;stroke-width:1.58976305;stroke-linecap:butt;stroke-linejoin:miter;stroke-miterlimit:4;stroke-opacity:1;stroke-dasharray:none"/><path id="path5335" d="m -353.91767,1175.3515 -2.05108,-304.23267" transform="translate(-125.0537,75.625)" style="fill:#fff;stroke:#000;stroke-width:1.58976305;stroke-linecap:butt;stroke-linejoin:miter;stroke-miterlimit:4;stroke-opacity:1;stroke-dasharray:none"/></g><path style="fill:#fff;stroke:#000;stroke-width:1.58976305;stroke-linecap:butt;stroke-linejoin:miter;stroke-miterlimit:4;stroke-opacity:1;stroke-dasharray:none" id="path5348" d="m -543.68983,851.50992 c 0.78129,-6.12826 0.64914,-11.37264 9.63433,-17.5009 11.06004,4.07116 17.71572,10.54979 18.64994,22.00876"/><path id="path4192" d="m -490.6162,835.53125 c -3.36777,1.2858 -20.22095,10.57832 -12.65625,25.75 0.98968,1.9849 -1.53274,3.8826 -3.25,1.4375 -15.7788,-22.46631 -34.82094,16.3167 -8.9375,14.3125 0,0 -0.4064,-5.6163 4.65625,-5.1875 4.37296,0.3704 5.40954,7.4316 4.65625,10.3125 -3.55306,13.5885 -22.80627,13.3412 -34.53125,4.25 -4.94495,-3.8341 -9.22773,-14.2701 -5.15625,-17.4375 4.43552,-3.4507 6.09302,2.2083 3.625,4.125 29.05863,-1.9091 0.819,-39.43484 -10.25,-11.125 -0.888,2.2711 -2.39832,1.0159 -2.1875,-0.3125 5.50012,-34.65785 -36.65075,-20.56642 -21.3125,-5.125 0.84217,-3.72713 10.33844,-1.42774 13.8125,13.46875 9.261,39.7103 52.62502,47.47665 71.53125,20.28125 18.90623,27.1954 62.239,19.42905 71.5,-20.28125 3.47406,-14.89649 12.97033,-17.19588 13.8125,-13.46875 15.33825,-15.44142 -26.81262,-29.53285 -21.3125,5.125 0.21082,1.3284 -1.2995,2.5836 -2.1875,0.3125 -11.069,-28.30984 -39.30863,9.2159 -10.25,11.125 -2.46802,-1.9167 -0.81052,-7.5757 3.625,-4.125 4.07148,3.1674 -0.2113,13.6034 -5.15625,17.4375 -11.72498,9.0912 -30.97819,9.3385 -34.53125,-4.25 -0.75329,-2.8809 0.28329,-9.9421 4.65625,-10.3125 5.06265,-0.4288 4.65625,5.1875 4.65625,5.1875 25.88344,2.0042 6.8413,-36.77881 -8.9375,-14.3125 -1.71726,2.4451 -4.23968,0.5474 -3.25,-1.4375 7.5647,-15.17168 -9.25723,-24.4642 -12.625,-25.75 z" style="fill:#fff;stroke:#000;stroke-width:1.58976305;stroke-miterlimit:4;stroke-opacity:1;stroke-dasharray:none"/></g><path style="fill:#fff;fill-opacity:1;stroke:#000;stroke-width:1.58976305;stroke-miterlimit:4;stroke-opacity:1;stroke-dasharray:none" id="rect3965" d="m -591.4287,1469.1752 c -5.54,0 -10,4.46 -10,10 l 0,5.25 c 0,5.54 4.46,10 10,10 l 100.8125,0 100.8125,0 c 5.54,0 10,-4.46 10,-10 l 0,-5.25 c 0,-5.54 -4.46,-10 -10,-10 l -100.8125,0 -100.8125,0 z"/><path style="fill:#fff;fill-opacity:1;stroke:#000;stroke-width:1.58976305;stroke-miterlimit:4;stroke-opacity:1;stroke-dasharray:none" id="rect3971" d="m -609.1787,1292.4252 0,32.5 118.5625,0 118.5625,0 0,-32.5 -118.5625,0 -118.5625,0 z"/></g><g id="g6833" transform="matrix(0.50327884,0,0,0.50316045,-333.22423,598.84976)"><g id="g8617" transform="translate(0,205.17309)"><path style="fill:maroon;fill-opacity:1;stroke:#000;stroke-width:.99487972;stroke-miterlimit:4;stroke-opacity:1;stroke-dashoffset:0" id="path7718" d="m -289.69658,504.98867 -149.82947,0 c 0,-8.28427 33.2376,-16.10238 74.65895,-16.10238 41.42136,0 75.17052,7.81811 75.17052,16.10238 z" transform="matrix(1.0366667,0,0,0.9621539,-111.67524,95.820115)"/><g style="stroke-width:.5;stroke-miterlimit:4;stroke-dasharray:none" id="g7703" transform="translate(0,-60.811184)"><path id="path7634" d="m -312.8037,632.97092 c 10.55926,-5.21918 23.41232,-1.17776 25.75,-6.25 8.19616,-17.78387 -14.13237,-11.47233 -29.1875,-20.8125 -4.62941,-2.87208 -10.82677,-16.97211 -17.60901,-21.65505 -11.06718,-7.64157 -22.51599,-5.19851 -22.51599,0.65505 0,28.80977 38.52906,54.81065 43.5625,48.0625 z" style="fill:url(#linearGradient5148);fill-opacity:1;stroke:#000;stroke-width:.99360192;stroke-linecap:butt;stroke-linejoin:miter;stroke-miterlimit:4;stroke-opacity:1;stroke-dasharray:none"/><path id="path7636" d="m -356.45439,584.13133 c 1.76525,18.88513 18.18899,21.18806 19.9151,26.61745 3.59951,12.22201 -17.68204,27.3228 -18.32411,26.68073 1.46889,-15.59798 -3.81928,-39.15552 -1.59099,-53.29818 z" style="fill:#00adef;fill-opacity:1;stroke:#000;stroke-width:.99360192;stroke-linecap:butt;stroke-linejoin:miter;stroke-miterlimit:4;stroke-opacity:1;stroke-dasharray:none"/><path id="path7638" d="m -428.0537,635.72092 c 7.2079,34.46063 82.48708,31.78207 89,12 1.7566,-5.33541 -0.1203,-11.62083 1.01753,-17.44484 1.10272,-5.64426 5.31043,-10.76398 1.48247,-19.80516 2.09352,25.67597 -64.07091,45.80825 -82.5,30.5 -3.63384,-3.63383 -5.2219,-3.04611 -9,-5.25 z" style="fill:url(#linearGradient5150);fill-opacity:1;stroke:#000;stroke-width:.99360192;stroke-linecap:butt;stroke-linejoin:miter;stroke-miterlimit:4;stroke-opacity:1;stroke-dasharray:none"/><path id="path7640" d="m -297.32259,654.31168 c -0.16981,-5.29493 8.78533,-22.75751 10.479,-28.31384 -4.9974,7.20705 -22.68558,0.1255 -26.07196,2.0144 -9.80293,6.53529 10.11809,24.93072 15.59296,26.29944 z" style="fill:#00aeef;fill-opacity:1;stroke:#000;stroke-width:.99360192;stroke-linecap:butt;stroke-linejoin:miter;stroke-miterlimit:4;stroke-opacity:1;stroke-dasharray:none"/><path id="path7642" d="m -291.2238,680.91657 c 9.22012,9.68592 7.62594,20.70742 6.71752,25.10229 8.05946,-7.67366 8.29039,-15.13823 7.24784,-22.62742 -4.7097,-33.83231 -39.86381,-36.91161 -36.15083,-55.3311 -2.81475,0.43271 -4.17632,5.51628 -1.67779,21.52039 -5.51981,4.81802 -4.05311,12.07144 0.88229,17.37049 9.09127,9.76112 21.88593,21.60114 9.8995,42.95673 10.46137,-2.91195 12.27223,-18.81744 13.08147,-28.99138 z" style="fill:url(#linearGradient5152);fill-opacity:1;stroke:#000;stroke-width:.99360192;stroke-linecap:butt;stroke-linejoin:miter;stroke-miterlimit:4;stroke-opacity:1;stroke-dasharray:none"/></g><g id="g7720" transform="matrix(-1,0,0,1,-982.87142,-60.811184)" style="stroke-width:.5;stroke-miterlimit:4;stroke-dasharray:none"><path style="fill:url(#linearGradient5154);fill-opacity:1;stroke:#000;stroke-width:.99360192;stroke-linecap:butt;stroke-linejoin:miter;stroke-miterlimit:4;stroke-opacity:1;stroke-dasharray:none" id="path7722" d="m -312.8037,632.97092 c 10.55926,-5.21918 23.41232,-1.17776 25.75,-6.25 8.19616,-17.78387 -14.13237,-11.47233 -29.1875,-20.8125 -4.62941,-2.87208 -10.82677,-16.97211 -17.60901,-21.65505 -11.06718,-7.64157 -22.51599,-5.19851 -22.51599,0.65505 0,28.80977 38.52906,54.81065 43.5625,48.0625 z"/><path style="fill:#00adef;fill-opacity:1;stroke:#000;stroke-width:.99360192;stroke-linecap:butt;stroke-linejoin:miter;stroke-miterlimit:4;stroke-opacity:1;stroke-dasharray:none" id="path7724" d="m -356.45439,584.13133 c 1.76525,18.88513 18.18899,21.18806 19.9151,26.61745 3.59951,12.22201 -17.68204,27.3228 -18.32411,26.68073 1.46889,-15.59798 -3.81928,-39.15552 -1.59099,-53.29818 z"/><path style="fill:url(#linearGradient5156);fill-opacity:1;stroke:#000;stroke-width:.99360192;stroke-linecap:butt;stroke-linejoin:miter;stroke-miterlimit:4;stroke-opacity:1;stroke-dasharray:none" id="path7726" d="m -428.0537,635.72092 c 7.2079,34.46063 82.48708,31.78207 89,12 1.7566,-5.33541 -0.1203,-11.62083 1.01753,-17.44484 1.10272,-5.64426 5.31043,-10.76398 1.48247,-19.80516 2.09352,25.67597 -64.07091,45.80825 -82.5,30.5 -3.63384,-3.63383 -5.2219,-3.04611 -9,-5.25 z"/><path style="fill:#00aeef;fill-opacity:1;stroke:#000;stroke-width:.99360192;stroke-linecap:butt;stroke-linejoin:miter;stroke-miterlimit:4;stroke-opacity:1;stroke-dasharray:none" id="path7728" d="m -297.32259,654.31168 c -0.16981,-5.29493 8.78533,-22.75751 10.479,-28.31384 -4.9974,7.20705 -22.68558,0.1255 -26.07196,2.0144 -9.80293,6.53529 10.11809,24.93072 15.59296,26.29944 z"/><path style="fill:url(#linearGradient5158);fill-opacity:1;stroke:#000;stroke-width:.99360192;stroke-linecap:butt;stroke-linejoin:miter;stroke-miterlimit:4;stroke-opacity:1;stroke-dasharray:none" id="path7730" d="m -291.2238,680.91657 c 9.22012,9.68592 7.62594,20.70742 6.71752,25.10229 8.05946,-7.67366 8.29039,-15.13823 7.24784,-22.62742 -4.7097,-33.83231 -39.86381,-36.91161 -36.15083,-55.3311 -2.81475,0.43271 -4.17632,5.51628 -1.67779,21.52039 -5.51981,4.81802 -4.05311,12.07144 0.88229,17.37049 9.09127,9.76112 21.88593,21.60114 9.8995,42.95673 10.46137,-2.91195 12.27223,-18.81744 13.08147,-28.99138 z"/></g><g id="g7336"><path style="fill:#f3cd00;fill-opacity:1;stroke:#000;stroke-width:.99360192;stroke-miterlimit:4;stroke-opacity:1;stroke-dasharray:none;stroke-dashoffset:0" id="path5583" d="m -497.61079,382.3903 4.59619,16.59101 -16.59102,-4.59619 0,15.36416 16.59102,-4.59619 -4.59619,16.59102 15.36416,0 -4.59619,-16.59102 16.59101,4.59619 0,-15.36416 -16.59101,4.59619 4.59619,-16.59101 z"/><path id="path5489" d="m -328.4511,383.6571 c 0,4.19814 -2.35458,7.6014 -5.25911,7.6014 -2.90452,0 -5.2591,-3.40326 -5.2591,-7.6014 0,-4.19813 2.35458,-7.60139 5.2591,-7.60139 2.90453,0 5.25911,3.40326 5.25911,7.60139 z" transform="matrix(1.055765,0,0,1.2235597,-121.39415,-15.336299)" style="fill:#9a6105;fill-opacity:1;stroke:#000;stroke-width:.87421089;stroke-miterlimit:4;stroke-opacity:1;stroke-dasharray:none"/><path style="fill:#9a6105;fill-opacity:1;stroke:#000;stroke-width:.7748062;stroke-miterlimit:4;stroke-opacity:1;stroke-dasharray:none" id="path4705" d="m -328.4511,383.6571 c 0,4.19814 -2.35458,7.6014 -5.25911,7.6014 -2.90452,0 -5.2591,-3.40326 -5.2591,-7.6014 0,-4.19813 2.35458,-7.60139 5.2591,-7.60139 2.90453,0 5.25911,3.40326 5.25911,7.60139 z" transform="matrix(1.1092437,0,0,1.4825581,-86.656689,-110.48413)"/><path style="fill:#9a6105;fill-opacity:1;stroke:#000;stroke-width:.87421089;stroke-miterlimit:4;stroke-opacity:1;stroke-dasharray:none" id="path5925" d="m -328.4511,383.6571 c 0,4.19814 -2.35458,7.6014 -5.25911,7.6014 -2.90452,0 -5.2591,-3.40326 -5.2591,-7.6014 0,-4.19813 2.35458,-7.60139 5.2591,-7.60139 2.90453,0 5.25911,3.40326 5.25911,7.60139 z" transform="matrix(-1.055765,0,0,1.2235597,-858.69931,-15.336299)"/><path id="path6119" d="m -328.4511,383.6571 c 0,4.19814 -2.35458,7.6014 -5.25911,7.6014 -2.90452,0 -5.2591,-3.40326 -5.2591,-7.6014 0,-4.19813 2.35458,-7.60139 5.2591,-7.60139 2.90453,0 5.25911,3.40326 5.25911,7.60139 z" transform="matrix(-1.1092437,0,0,1.4825581,-893.61355,-110.48413)" style="fill:#9a6105;fill-opacity:1;stroke:#000;stroke-width:.7748062;stroke-miterlimit:4;stroke-opacity:1;stroke-dasharray:none"/><path style="fill:#f4c901;fill-opacity:1;stroke:#000;stroke-width:.99360192;stroke-miterlimit:4;stroke-opacity:1;stroke-dasharray:none;stroke-dashoffset:0" id="path5909" d="m -351.1227,356.87543 c 0,7.61522 -6.17336,13.78858 -13.78859,13.78858 -7.61522,0 -13.78858,-6.17336 -13.78858,-13.78858 0,-7.61523 6.17336,-13.78859 13.78858,-13.78859 7.61523,0 13.78859,6.17336 13.78859,13.78859 z" transform="translate(-125.0537,76.649757)"/><path style="fill:#c68413;fill-opacity:1;stroke:#000;stroke-width:.99360192;stroke-miterlimit:4;stroke-opacity:1;stroke-dasharray:none" id="path5911" d="m -489.9912,419.31649 c -1.25,0.0101 -3.1591,0.1307 -3.4375,0.6875 l 0,10.0625 c -2.98332,0.2333 -7.98976,0.41951 -10.0625,1.5625 -0.69667,0.38417 -1.82925,5.56684 0.9375,4.625 3.87525,-1.31919 8.85113,-1.4375 12.5625,-1.4375 3.71137,0 8.68725,0.11831 12.5625,1.4375 2.76675,0.94184 1.63417,-4.24083 0.9375,-4.625 -2.07274,-1.14299 -7.07918,-1.3292 -10.0625,-1.5625 l 0,-10.0625 c -0.2784,-0.5568 -2.1875,-0.67739 -3.4375,-0.6875 z"/><rect style="fill:#f3cd00;fill-opacity:1;stroke:#000;stroke-width:1.188604;stroke-miterlimit:4;stroke-opacity:1;stroke-dasharray:none;stroke-dashoffset:0" id="rect6363" width="12.884" height="12.884" x="-1008.597" y="466.697" transform="matrix(0.9260996,-0.37727912,0.9260996,0.37727912,0,0)"/><path style="fill:#880523;fill-opacity:1;stroke:#000;stroke-width:.99360192;stroke-miterlimit:4;stroke-opacity:1;stroke-dasharray:none;stroke-dashoffset:0" id="path6392" d="m -288.78293,426.70221 c 0,25.96987 -34.06404,47.0226 -76.08417,47.0226 -42.02012,0 -76.08416,-21.05273 -76.08416,-47.0226 0,-25.96987 34.06404,-47.0226 76.08416,-47.0226 42.02013,0 76.08417,21.05273 76.08417,47.0226 z" transform="translate(-125.0537,76.291215)"/><path style="fill:#c68413;fill-opacity:1;stroke:#000;stroke-width:.99360192;stroke-linecap:butt;stroke-linejoin:miter;stroke-miterlimit:4;stroke-opacity:1;stroke-dasharray:none" id="path5487" d="m -373.5625,369.625 c -3.73758,0.10676 -7.08659,0.60735 -6.3125,1.875 5.83144,9.64355 9.26121,42.2557 9.5,51.5 1.33026,-0.22171 4.7561,-1.88517 5.5,-3.125 0.7439,1.23983 4.16974,2.90329 5.5,3.125 0.23879,-9.2443 3.66856,-41.85645 9.5,-51.5 1.54818,-2.5353 -13.35244,-2.01435 -15,-1.375 -0.82378,-0.31967 -4.94992,-0.60676 -8.6875,-0.5 z" transform="translate(-125.0537,75.625)"/><g id="g6839"><g id="g6610"><g id="g5814" transform="translate(1.75,0)" style="stroke-width:.5;stroke-miterlimit:4;stroke-dasharray:none"><path id="path5621" d="m -414.94787,556.42089 c 7.37212,-11.30581 18.72423,-21.1205 23.10229,-31.75179 15.73174,-38.20158 -8.81268,-74.45079 -51.53301,-72.46068 -9.64675,17.06124 -36.2397,77.28853 -43.9693,86.96678 20.31221,8.2263 77.2154,28.95162 72.40002,17.24569 z" style="fill:#d59b11;fill-opacity:1;stroke:none"/><g id="g5718" style="stroke-width:.5;stroke-miterlimit:4;stroke-dasharray:none"><g id="g5488" transform="translate(-0.79549516,3.5355357)" style="stroke-width:.5;stroke-miterlimit:4;stroke-dasharray:none"><path id="path5480" d="m -279.66073,446.41282 -2.56327,-9.36917 7.95496,-2.82842 z" transform="translate(-125.0537,75.625)" style="fill:#d0a609;fill-opacity:1;stroke:none"/><path id="path5482" d="m -282.57755,437.13204 2.82843,9.36917 -13.16987,-6.8059 z" transform="translate(-125.0537,75.625)" style="fill:#ce8a14;fill-opacity:1;stroke:none"/><path id="path5484" d="m -286.55502,427.49771 4.41941,9.81111 7.86657,-3.0052 z" transform="translate(-125.0537,75.625)" style="fill:#f2cc00;fill-opacity:1;stroke:none"/><path id="path5486" d="m -286.64341,427.32094 -6.1086,12.30742 10.58607,-2.39184 z" transform="translate(-125.0537,75.625)" style="fill:#e9c002;fill-opacity:1;stroke:none"/></g><g id="g5494" transform="matrix(0.98972548,-0.13270136,0.07742587,1,-57.136375,-56.614592)" style="stroke-width:.5;stroke-miterlimit:4;stroke-dasharray:none"><path style="fill:#d0a609;fill-opacity:1;stroke:none" id="path5496" d="m -279.66073,446.41282 -2.56327,-9.36917 7.95496,-2.82842 z" transform="translate(-125.0537,75.625)"/><path style="fill:#ce8a14;fill-opacity:1;stroke:none" id="path5498" d="m -282.57755,437.13204 2.82843,9.36917 -13.16987,-6.8059 z" transform="translate(-125.0537,75.625)"/><path style="fill:#f2cc00;fill-opacity:1;stroke:none" id="path5500" d="m -286.55502,427.49771 4.41941,9.81111 7.86657,-3.0052 z" transform="translate(-125.0537,75.625)"/><path style="fill:#e9c002;fill-opacity:1;stroke:none" id="path5502" d="m -286.64341,427.32094 -6.1086,12.30742 10.58607,-2.39184 z" transform="translate(-125.0537,75.625)"/></g><g id="g5506" transform="matrix(0.98972548,-0.20127658,0.07742587,0.99463539,-70.041073,-86.837413)" style="stroke-width:.5;stroke-miterlimit:4;stroke-dasharray:none"><path id="path5508" d="m -279.66073,446.41282 -2.56327,-9.36917 7.95496,-2.82842 z" transform="translate(-125.0537,75.625)" style="fill:#d0a609;fill-opacity:1;stroke:none"/><path id="path5510" d="m -282.57755,437.13204 2.82843,9.36917 -13.16987,-6.8059 z" transform="translate(-125.0537,75.625)" style="fill:#ce8a14;fill-opacity:1;stroke:none"/><path id="path5512" d="m -286.55502,427.49771 4.41941,9.81111 7.86657,-3.0052 z" transform="translate(-125.0537,75.625)" style="fill:#f2cc00;fill-opacity:1;stroke:none"/><path id="path5514" d="m -286.64341,427.32094 -6.1086,12.30742 10.58607,-2.39184 z" transform="translate(-125.0537,75.625)" style="fill:#e9c002;fill-opacity:1;stroke:none"/></g><g id="g5518" transform="matrix(0.98972548,-0.20127658,0.07742587,0.99463539,-83.18752,-91.072248)" style="stroke-width:.5;stroke-miterlimit:4;stroke-dasharray:none"><path style="fill:#d0a609;fill-opacity:1;stroke:none" id="path5520" d="m -279.66073,446.41282 -2.56327,-9.36917 7.95496,-2.82842 z" transform="translate(-125.0537,75.625)"/><path style="fill:#ce8a14;fill-opacity:1;stroke:none" id="path5522" d="m -282.57755,437.13204 2.82843,9.36917 -13.16987,-6.8059 z" transform="translate(-125.0537,75.625)"/><path style="fill:#f2cc00;fill-opacity:1;stroke:none" id="path5524" d="m -286.55502,427.49771 4.41941,9.81111 7.86657,-3.0052 z" transform="translate(-125.0537,75.625)"/><path style="fill:#e9c002;fill-opacity:1;stroke:none" id="path5526" d="m -286.64341,427.32094 -6.1086,12.30742 10.58607,-2.39184 z" transform="translate(-125.0537,75.625)"/></g><g id="g5528" transform="matrix(1.0041647,0.02140214,0.07218709,0.99739111,-22.646551,20.411614)" style="stroke-width:.5;stroke-miterlimit:4;stroke-dasharray:none"><path style="fill:#d0a609;fill-opacity:1;stroke:none" id="path5530" d="m -280.92958,441.5523 -1.29442,-4.50865 3.50934,-0.72779 z" transform="translate(-125.0537,75.625)"/><path style="fill:#ce8a14;fill-opacity:1;stroke:none" id="path5532" d="m -282.20353,437.12401 1.18876,3.99359 -1.94264,3.25923 -9.96158,-4.68152 z" transform="translate(-125.0537,75.625)"/><path style="fill:#f2cc00;fill-opacity:1;stroke:none" id="path5534" d="m -286.55502,427.49771 4.41941,9.81111 3.83676,-1.46573 1.41782,-3.30066 z" transform="translate(-125.0537,75.625)"/><path style="fill:#e9c002;fill-opacity:1;stroke:none" id="path5536" d="m -286.64341,427.32094 -6.1086,12.30742 10.58607,-2.39184 z" transform="translate(-125.0537,75.625)"/></g><g id="g5538" transform="matrix(0.9937004,-0.11206921,0.11206921,0.9937004,-55.574488,-51.965579)" style="stroke-width:.5;stroke-miterlimit:4;stroke-dasharray:none"><path style="fill:#d0a609;fill-opacity:1;stroke:none" id="path5540" d="m -279.66073,446.41282 -2.56327,-9.36917 7.95496,-2.82842 z" transform="translate(-125.0537,75.625)"/><path style="fill:#ce8a14;fill-opacity:1;stroke:none" id="path5542" d="m -282.57755,437.13204 2.82843,9.36917 -13.16987,-6.8059 z" transform="translate(-125.0537,75.625)"/><path style="fill:#f2cc00;fill-opacity:1;stroke:none" id="path5544" d="m -286.55502,427.49771 4.41941,9.81111 7.86657,-3.0052 z" transform="translate(-125.0537,75.625)"/><path style="fill:#e9c002;fill-opacity:1;stroke:none" id="path5546" d="m -286.64341,427.32094 -6.1086,12.30742 10.58607,-2.39184 z" transform="translate(-125.0537,75.625)"/></g><g id="g5548" transform="matrix(0.98972548,-0.13270136,0.07742587,1,-52.43187,-70.254757)" style="stroke-width:.5;stroke-miterlimit:4;stroke-dasharray:none"><path id="path5550" d="m -279.66073,446.41282 -2.56327,-9.36917 7.95496,-2.82842 z" transform="translate(-125.0537,75.625)" style="fill:#d0a609;fill-opacity:1;stroke:none"/><path id="path5552" d="m -282.57755,437.13204 2.82843,9.36917 -13.16987,-6.8059 z" transform="translate(-125.0537,75.625)" style="fill:#ce8a14;fill-opacity:1;stroke:none"/><path id="path5554" d="m -286.55502,427.49771 4.41941,9.81111 7.86657,-3.0052 z" transform="translate(-125.0537,75.625)" style="fill:#f2cc00;fill-opacity:1;stroke:none"/><path id="path5556" d="m -286.64341,427.32094 -6.1086,12.30742 10.58607,-2.39184 z" transform="translate(-125.0537,75.625)" style="fill:#e9c002;fill-opacity:1;stroke:none"/></g><g id="g5558" transform="matrix(0.98972548,-0.20127658,0.07742587,0.99463539,-65.955287,-100.74275)" style="stroke-width:.5;stroke-miterlimit:4;stroke-dasharray:none"><path style="fill:#d0a609;fill-opacity:1;stroke:none" id="path5560" d="m -279.66073,446.41282 -2.56327,-9.36917 7.95496,-2.82842 z" transform="translate(-125.0537,75.625)"/><path style="fill:#ce8a14;fill-opacity:1;stroke:none" id="path5562" d="m -282.57755,437.13204 2.82843,9.36917 -13.16987,-6.8059 z" transform="translate(-125.0537,75.625)"/><path style="fill:#f2cc00;fill-opacity:1;stroke:none" id="path5564" d="m -286.55502,427.49771 4.41941,9.81111 7.86657,-3.0052 z" transform="translate(-125.0537,75.625)"/><path style="fill:#e9c002;fill-opacity:1;stroke:none" id="path5566" d="m -286.64341,427.32094 -6.1086,12.30742 10.58607,-2.39184 z" transform="translate(-125.0537,75.625)"/></g><g id="g5568" transform="matrix(0.98972548,-0.20127658,0.07742587,0.99463539,-79.455287,-105.24275)" style="stroke-width:.5;stroke-miterlimit:4;stroke-dasharray:none"><path id="path5570" d="m -279.66073,446.41282 -2.56327,-9.36917 7.95496,-2.82842 z" transform="translate(-125.0537,75.625)" style="fill:#d0a609;fill-opacity:1;stroke:none"/><path id="path5572" d="m -282.57755,437.13204 2.82843,9.36917 -13.16987,-6.8059 z" transform="translate(-125.0537,75.625)" style="fill:#ce8a14;fill-opacity:1;stroke:none"/><path id="path5574" d="m -286.55502,427.49771 4.41941,9.81111 7.86657,-3.0052 z" transform="translate(-125.0537,75.625)" style="fill:#f2cc00;fill-opacity:1;stroke:none"/><path id="path5576" d="m -286.64341,427.32094 -6.1086,12.30742 10.58607,-2.39184 z" transform="translate(-125.0537,75.625)" style="fill:#e9c002;fill-opacity:1;stroke:none"/></g><g id="g5578" transform="matrix(1.0041647,0.02140214,0.07218709,0.99739111,-17.234939,8.4508275)" style="stroke-width:.5;stroke-miterlimit:4;stroke-dasharray:none"><path id="path5582" d="m -281.40217,437.23215 -0.21526,3.08028 -1.53601,4.19394 -9.76555,-4.81106 z" transform="translate(-125.0537,75.625)" style="fill:#ce8a14;fill-opacity:1;stroke:none"/><path id="path5584" d="m -286.55502,427.49771 4.35482,9.84383 1.18276,-0.0733 1.35542,-6.40527 z" transform="translate(-125.0537,75.625)" style="fill:#f2cc00;fill-opacity:1;stroke:none"/><path id="path5586" d="m -286.64341,427.32094 -6.1086,12.30742 10.58607,-2.39184 z" transform="translate(-125.0537,75.625)" style="fill:#e9c002;fill-opacity:1;stroke:none"/></g><g id="g5588" transform="translate(10.007806,-22.037056)" style="stroke-width:.5;stroke-miterlimit:4;stroke-dasharray:none"><path id="path5590" d="m -279.66073,446.41282 -2.56327,-9.36917 7.95496,-2.82842 z" transform="translate(-125.0537,75.625)" style="fill:#d0a609;fill-opacity:1;stroke:none"/><path id="path5592" d="m -282.57755,437.13204 2.82843,9.36917 -13.16987,-6.8059 z" transform="translate(-125.0537,75.625)" style="fill:#ce8a14;fill-opacity:1;stroke:none"/><path id="path5594" d="m -286.55502,427.49771 4.41941,9.81111 7.86657,-3.0052 z" transform="translate(-125.0537,75.625)" style="fill:#f2cc00;fill-opacity:1;stroke:none"/><path id="path5596" d="m -286.64341,427.32094 -6.1086,12.30742 10.58607,-2.39184 z" transform="translate(-125.0537,75.625)" style="fill:#e9c002;fill-opacity:1;stroke:none"/></g><g id="g5598" transform="matrix(0.98972548,-0.13270136,0.07742587,1,-47.393734,-83.159456)" style="stroke-width:.5;stroke-miterlimit:4;stroke-dasharray:none"><path style="fill:#d0a609;fill-opacity:1;stroke:none" id="path5600" d="m -279.66073,446.41282 -2.56327,-9.36917 7.95496,-2.82842 z" transform="translate(-125.0537,75.625)"/><path style="fill:#ce8a14;fill-opacity:1;stroke:none" id="path5602" d="m -282.57755,437.13204 2.82843,9.36917 -13.16987,-6.8059 z" transform="translate(-125.0537,75.625)"/><path style="fill:#f2cc00;fill-opacity:1;stroke:none" id="path5604" d="m -286.55502,427.49771 4.41941,9.81111 7.86657,-3.0052 z" transform="translate(-125.0537,75.625)"/><path style="fill:#e9c002;fill-opacity:1;stroke:none" id="path5606" d="m -286.64341,427.32094 -6.1086,12.30742 10.58607,-2.39184 z" transform="translate(-125.0537,75.625)"/></g><g id="g5608" transform="matrix(0.98972548,-0.20127658,0.07742587,0.99463539,-60.563597,-114.44294)" style="stroke-width:.5;stroke-miterlimit:4;stroke-dasharray:none"><path id="path5610" d="m -279.66073,446.41282 -2.56327,-9.36917 7.95496,-2.82842 z" transform="translate(-125.0537,75.625)" style="fill:#d0a609;fill-opacity:1;stroke:none"/><path id="path5612" d="m -282.57755,437.13204 2.82843,9.36917 -13.16987,-6.8059 z" transform="translate(-125.0537,75.625)" style="fill:#ce8a14;fill-opacity:1;stroke:none"/><path id="path5614" d="m -286.55502,427.49771 4.41941,9.81111 7.86657,-3.0052 z" transform="translate(-125.0537,75.625)" style="fill:#f2cc00;fill-opacity:1;stroke:none"/><path id="path5616" d="m -286.64341,427.32094 -6.1086,12.30742 10.58607,-2.39184 z" transform="translate(-125.0537,75.625)" style="fill:#e9c002;fill-opacity:1;stroke:none"/></g><g id="g5618" transform="matrix(0.98972548,-0.20127658,0.07742587,0.99463539,-73.975209,-119.03133)" style="stroke-width:.5;stroke-miterlimit:4;stroke-dasharray:none"><path style="fill:#d0a609;fill-opacity:1;stroke:none" id="path5620" d="m -279.66073,446.41282 -2.56327,-9.36917 7.95496,-2.82842 z" transform="translate(-125.0537,75.625)"/><path style="fill:#ce8a14;fill-opacity:1;stroke:none" id="path5622" d="m -282.57755,437.13204 2.82843,9.36917 -13.16987,-6.8059 z" transform="translate(-125.0537,75.625)"/><path style="fill:#f2cc00;fill-opacity:1;stroke:none" id="path5624" d="m -286.55502,427.49771 4.41941,9.81111 7.86657,-3.0052 z" transform="translate(-125.0537,75.625)"/><path style="fill:#e9c002;fill-opacity:1;stroke:none" id="path5626" d="m -286.64341,427.32094 -6.1086,12.30742 10.58607,-2.39184 z" transform="translate(-125.0537,75.625)"/></g><g id="g5628" transform="matrix(1.0041647,0.02140214,0.07218709,0.99739111,-12.461968,-4.2770946)" style="stroke-width:.5;stroke-miterlimit:4;stroke-dasharray:none"><path style="fill:#ce8a14;fill-opacity:1;stroke:none" id="path5632" d="m -284.96158,437.84784 -0.40497,5.98239 -7.55244,-4.13492 z" transform="translate(-125.0537,75.625)"/><path style="fill:#e9c002;fill-opacity:1;stroke:none" id="path5636" d="m -286.27105,426.42675 -6.48096,13.20161 7.75168,-1.53344 c 0.80555,-5.42405 -0.20987,-8.77182 -1.27072,-11.66817 z" transform="translate(-125.0537,75.625)"/></g><g id="g4520" transform="matrix(0.96522295,-0.26142811,0.26142811,0.96522295,-135.07009,-123.29456)" style="stroke-width:.5;stroke-miterlimit:4;stroke-dasharray:none"><path style="fill:#ce8a14;fill-opacity:1;stroke:none" id="path4533" d="m -281.13599,437.06922 1.04375,10.69885 -11.72325,-10.23445 z" transform="translate(-125.0537,75.625)"/><path style="fill:#e9c002;fill-opacity:1;stroke:none" id="path4541" d="m -285.34767,425.74885 -6.30322,11.84263 10.30255,-0.49981 z" transform="translate(-125.0537,75.625)"/></g><g id="g4543" transform="matrix(0.97152978,-0.2308594,0.17688601,0.98727205,-101.92597,-130.24756)" style="stroke-width:.5;stroke-miterlimit:4;stroke-dasharray:none"><path id="path4560" d="m -280.47482,447.38632 -1.74918,-10.34267 7.22413,-0.31348 z" transform="translate(-125.0537,75.625)" style="fill:#d0a609;fill-opacity:1;stroke:none"/><path id="path4562" d="m -282.57755,437.13204 2.24486,10.57563 -12.09199,-8.4787 z" transform="translate(-125.0537,75.625)" style="fill:#ce8a14;fill-opacity:1;stroke:none"/><path id="path4564" d="m -285.32406,425.23401 3.18845,12.07481 6.84595,-0.64755 z" transform="translate(-125.0537,75.625)" style="fill:#f2cc00;fill-opacity:1;stroke:none"/><path id="path4566" d="m -285.4359,425.18605 -7.09922,14.00062 10.36918,-1.95015 z" transform="translate(-125.0537,75.625)" style="fill:#e9c002;fill-opacity:1;stroke:none"/></g><g id="g4568" transform="matrix(0.96867508,-0.28589751,0.16293192,0.98424972,-108.8588,-157.19977)" style="stroke-width:.5;stroke-miterlimit:4;stroke-dasharray:none"><path style="fill:#d0a609;fill-opacity:1;stroke:none" id="path4570" d="m -279.66073,446.41282 -2.56327,-9.36917 7.95496,-2.82842 z" transform="translate(-125.0537,75.625)"/><path style="fill:#ce8a14;fill-opacity:1;stroke:none" id="path4572" d="m -282.57755,437.13204 2.82843,9.36917 -13.16987,-6.8059 z" transform="translate(-125.0537,75.625)"/><path style="fill:#f2cc00;fill-opacity:1;stroke:none" id="path4574" d="m -286.98427,425.98108 4.84866,11.32774 7.86657,-3.0052 c -4.15401,-2.68136 -7.10768,-7.06543 -12.71523,-8.32254 z" transform="translate(-125.0537,75.625)"/><path style="fill:#e9c002;fill-opacity:1;stroke:none" id="path4576" d="m -286.87677,425.99592 -5.87524,13.63244 10.58607,-2.39184 z" transform="translate(-125.0537,75.625)"/></g><g id="g4578" transform="matrix(0.9509229,-0.34031517,0.21842939,0.97343871,-158.2147,-177.35991)" style="stroke-width:.5;stroke-miterlimit:4;stroke-dasharray:none"><path id="path4580" d="m -279.99223,446.42534 -2.23177,-9.38169 8.53962,-3.35042 z" transform="translate(-125.0537,75.625)" style="fill:#d0a609;fill-opacity:1;stroke:none"/><path id="path4583" d="m -282.57755,437.13204 2.82843,9.36917 -13.16987,-6.8059 z" transform="translate(-125.0537,75.625)" style="fill:#ce8a14;fill-opacity:1;stroke:none"/><path id="path4585" d="m -286.55502,427.49771 4.41941,9.81111 8.64786,-3.77626 c -4.02763,-3.04613 -8.61925,-4.31411 -13.06727,-6.03485 z" transform="translate(-125.0537,75.625)" style="fill:#f2cc00;fill-opacity:1;stroke:none"/><path id="path4589" d="m -286.64341,427.32094 -6.1086,12.30742 10.58607,-2.39184 z" transform="translate(-125.0537,75.625)" style="fill:#e9c002;fill-opacity:1;stroke:none"/></g></g><path style="fill:none;stroke:#000;stroke-width:.99360192;stroke-linecap:butt;stroke-linejoin:miter;stroke-miterlimit:4;stroke-opacity:1;stroke-dasharray:none" id="path5812" d="m -414.94787,556.42089 c 7.37212,-11.30581 18.72423,-21.1205 23.10229,-31.75179 15.73174,-38.20158 -8.81268,-74.45079 -51.53301,-72.46068 -8.55469,15.12983 -26.79687,70.30764 -41.29221,83.21405 -1.96463,1.74928 0.94794,5.40711 0.0729,6.50273 20.31221,8.2263 74.4654,26.20162 69.65002,14.49569 z"/></g><g id="g5929" transform="matrix(-1,0,0,1,-982.02024,0)" style="stroke-width:.5;stroke-miterlimit:4;stroke-dasharray:none"><path style="fill:#d59b11;fill-opacity:1;stroke:none" id="path5931" d="m -414.94787,556.42089 c 7.37212,-11.30581 18.72423,-21.1205 23.10229,-31.75179 15.73174,-38.20158 -8.81268,-74.45079 -51.53301,-72.46068 -8.58778,15.18835 -27.10025,65.92556 -40.6946,83.89424 -1.51938,2.00828 0.32381,4.76012 -0.5247,5.82254 20.31221,8.2263 74.4654,26.20162 69.65002,14.49569 z"/><g id="g5933" style="stroke-width:.5;stroke-miterlimit:4;stroke-dasharray:none"><g id="g5935" transform="translate(-0.79549516,3.5355357)" style="stroke-width:.5;stroke-miterlimit:4;stroke-dasharray:none"><path style="fill:#d0a609;fill-opacity:1;stroke:none" id="path5937" d="m -279.66073,446.41282 -2.56327,-9.36917 7.95496,-2.82842 z" transform="translate(-125.0537,75.625)"/><path style="fill:#ce8a14;fill-opacity:1;stroke:none" id="path5939" d="m -282.57755,437.13204 2.82843,9.36917 -13.16987,-6.8059 z" transform="translate(-125.0537,75.625)"/><path style="fill:#f2cc00;fill-opacity:1;stroke:none" id="path5941" d="m -286.55502,427.49771 4.41941,9.81111 7.86657,-3.0052 z" transform="translate(-125.0537,75.625)"/><path style="fill:#e9c002;fill-opacity:1;stroke:none" id="path5943" d="m -286.64341,427.32094 -6.1086,12.30742 10.58607,-2.39184 z" transform="translate(-125.0537,75.625)"/></g><g id="g5945" transform="matrix(0.98972548,-0.13270136,0.07742587,1,-57.136375,-56.614592)" style="stroke-width:.5;stroke-miterlimit:4;stroke-dasharray:none"><path id="path5947" d="m -279.66073,446.41282 -2.56327,-9.36917 7.95496,-2.82842 z" transform="translate(-125.0537,75.625)" style="fill:#d0a609;fill-opacity:1;stroke:none"/><path id="path5949" d="m -282.57755,437.13204 2.82843,9.36917 -13.16987,-6.8059 z" transform="translate(-125.0537,75.625)" style="fill:#ce8a14;fill-opacity:1;stroke:none"/><path id="path5951" d="m -286.55502,427.49771 4.41941,9.81111 7.86657,-3.0052 z" transform="translate(-125.0537,75.625)" style="fill:#f2cc00;fill-opacity:1;stroke:none"/><path id="path5953" d="m -286.64341,427.32094 -6.1086,12.30742 10.58607,-2.39184 z" transform="translate(-125.0537,75.625)" style="fill:#e9c002;fill-opacity:1;stroke:none"/></g><g id="g5955" transform="matrix(0.98972548,-0.20127658,0.07742587,0.99463539,-70.041073,-86.837413)" style="stroke-width:.5;stroke-miterlimit:4;stroke-dasharray:none"><path style="fill:#d0a609;fill-opacity:1;stroke:none" id="path5957" d="m -279.66073,446.41282 -2.56327,-9.36917 7.95496,-2.82842 z" transform="translate(-125.0537,75.625)"/><path style="fill:#ce8a14;fill-opacity:1;stroke:none" id="path5959" d="m -282.57755,437.13204 2.82843,9.36917 -13.16987,-6.8059 z" transform="translate(-125.0537,75.625)"/><path style="fill:#f2cc00;fill-opacity:1;stroke:none" id="path5961" d="m -286.55502,427.49771 4.41941,9.81111 7.86657,-3.0052 z" transform="translate(-125.0537,75.625)"/><path style="fill:#e9c002;fill-opacity:1;stroke:none" id="path5963" d="m -286.64341,427.32094 -6.1086,12.30742 10.58607,-2.39184 z" transform="translate(-125.0537,75.625)"/></g><g id="g5965" transform="matrix(0.98972548,-0.20127658,0.07742587,0.99463539,-83.18752,-91.072248)" style="stroke-width:.5;stroke-miterlimit:4;stroke-dasharray:none"><path id="path5967" d="m -279.66073,446.41282 -2.56327,-9.36917 7.95496,-2.82842 z" transform="translate(-125.0537,75.625)" style="fill:#d0a609;fill-opacity:1;stroke:none"/><path id="path5969" d="m -282.57755,437.13204 2.82843,9.36917 -13.16987,-6.8059 z" transform="translate(-125.0537,75.625)" style="fill:#ce8a14;fill-opacity:1;stroke:none"/><path id="path5971" d="m -286.55502,427.49771 4.41941,9.81111 7.86657,-3.0052 z" transform="translate(-125.0537,75.625)" style="fill:#f2cc00;fill-opacity:1;stroke:none"/><path id="path5973" d="m -286.64341,427.32094 -6.1086,12.30742 10.58607,-2.39184 z" transform="translate(-125.0537,75.625)" style="fill:#e9c002;fill-opacity:1;stroke:none"/></g><g id="g5975" transform="matrix(1.0041647,0.02140214,0.07218709,0.99739111,-22.646551,20.411614)" style="stroke-width:.5;stroke-miterlimit:4;stroke-dasharray:none"><path id="path5977" d="m -280.92958,441.5523 -1.29442,-4.50865 3.50934,-0.72779 z" transform="translate(-125.0537,75.625)" style="fill:#d0a609;fill-opacity:1;stroke:none"/><path id="path5979" d="m -282.20353,437.12401 1.18876,3.99359 -1.94264,3.25923 -9.96158,-4.68152 z" transform="translate(-125.0537,75.625)" style="fill:#ce8a14;fill-opacity:1;stroke:none"/><path id="path5981" d="m -286.55502,427.49771 4.41941,9.81111 3.83676,-1.46573 1.41782,-3.30066 z" transform="translate(-125.0537,75.625)" style="fill:#f2cc00;fill-opacity:1;stroke:none"/><path id="path5983" d="m -286.64341,427.32094 -6.1086,12.30742 10.58607,-2.39184 z" transform="translate(-125.0537,75.625)" style="fill:#e9c002;fill-opacity:1;stroke:none"/></g><g id="g5985" transform="matrix(0.9937004,-0.11206921,0.11206921,0.9937004,-55.574488,-51.965579)" style="stroke-width:.5;stroke-miterlimit:4;stroke-dasharray:none"><path id="path5987" d="m -279.66073,446.41282 -2.56327,-9.36917 7.95496,-2.82842 z" transform="translate(-125.0537,75.625)" style="fill:#d0a609;fill-opacity:1;stroke:none"/><path id="path5989" d="m -282.57755,437.13204 2.82843,9.36917 -13.16987,-6.8059 z" transform="translate(-125.0537,75.625)" style="fill:#ce8a14;fill-opacity:1;stroke:none"/><path id="path5991" d="m -286.55502,427.49771 4.41941,9.81111 7.86657,-3.0052 z" transform="translate(-125.0537,75.625)" style="fill:#f2cc00;fill-opacity:1;stroke:none"/><path id="path5993" d="m -286.64341,427.32094 -6.1086,12.30742 10.58607,-2.39184 z" transform="translate(-125.0537,75.625)" style="fill:#e9c002;fill-opacity:1;stroke:none"/></g><g id="g5995" transform="matrix(0.98972548,-0.13270136,0.07742587,1,-52.43187,-70.254757)" style="stroke-width:.5;stroke-miterlimit:4;stroke-dasharray:none"><path style="fill:#d0a609;fill-opacity:1;stroke:none" id="path5997" d="m -279.66073,446.41282 -2.56327,-9.36917 7.95496,-2.82842 z" transform="translate(-125.0537,75.625)"/><path style="fill:#ce8a14;fill-opacity:1;stroke:none" id="path5999" d="m -282.57755,437.13204 2.82843,9.36917 -13.16987,-6.8059 z" transform="translate(-125.0537,75.625)"/><path style="fill:#f2cc00;fill-opacity:1;stroke:none" id="path6001" d="m -286.55502,427.49771 4.41941,9.81111 7.86657,-3.0052 z" transform="translate(-125.0537,75.625)"/><path style="fill:#e9c002;fill-opacity:1;stroke:none" id="path6003" d="m -286.64341,427.32094 -6.1086,12.30742 10.58607,-2.39184 z" transform="translate(-125.0537,75.625)"/></g><g id="g6005" transform="matrix(0.98972548,-0.20127658,0.07742587,0.99463539,-65.955287,-100.74275)" style="stroke-width:.5;stroke-miterlimit:4;stroke-dasharray:none"><path id="path6007" d="m -279.66073,446.41282 -2.56327,-9.36917 7.95496,-2.82842 z" transform="translate(-125.0537,75.625)" style="fill:#d0a609;fill-opacity:1;stroke:none"/><path id="path6009" d="m -282.57755,437.13204 2.82843,9.36917 -13.16987,-6.8059 z" transform="translate(-125.0537,75.625)" style="fill:#ce8a14;fill-opacity:1;stroke:none"/><path id="path6011" d="m -286.55502,427.49771 4.41941,9.81111 7.86657,-3.0052 z" transform="translate(-125.0537,75.625)" style="fill:#f2cc00;fill-opacity:1;stroke:none"/><path id="path6014" d="m -286.64341,427.32094 -6.1086,12.30742 10.58607,-2.39184 z" transform="translate(-125.0537,75.625)" style="fill:#e9c002;fill-opacity:1;stroke:none"/></g><g id="g6016" transform="matrix(0.98972548,-0.20127658,0.07742587,0.99463539,-79.455287,-105.24275)" style="stroke-width:.5;stroke-miterlimit:4;stroke-dasharray:none"><path style="fill:#d0a609;fill-opacity:1;stroke:none" id="path6018" d="m -279.66073,446.41282 -2.56327,-9.36917 7.95496,-2.82842 z" transform="translate(-125.0537,75.625)"/><path style="fill:#ce8a14;fill-opacity:1;stroke:none" id="path6020" d="m -282.57755,437.13204 2.82843,9.36917 -13.16987,-6.8059 z" transform="translate(-125.0537,75.625)"/><path style="fill:#f2cc00;fill-opacity:1;stroke:none" id="path6022" d="m -286.55502,427.49771 4.41941,9.81111 7.86657,-3.0052 z" transform="translate(-125.0537,75.625)"/><path style="fill:#e9c002;fill-opacity:1;stroke:none" id="path6024" d="m -286.64341,427.32094 -6.1086,12.30742 10.58607,-2.39184 z" transform="translate(-125.0537,75.625)"/></g><g id="g6026" transform="matrix(1.0041647,0.02140214,0.07218709,0.99739111,-17.234939,8.4508275)" style="stroke-width:.5;stroke-miterlimit:4;stroke-dasharray:none"><path style="fill:#ce8a14;fill-opacity:1;stroke:none" id="path6028" d="m -281.40217,437.23215 -0.21526,3.08028 -1.53601,4.19394 -9.76555,-4.81106 z" transform="translate(-125.0537,75.625)"/><path style="fill:#f2cc00;fill-opacity:1;stroke:none" id="path6030" d="m -286.55502,427.49771 4.35482,9.84383 1.18276,-0.0733 1.35542,-6.40527 z" transform="translate(-125.0537,75.625)"/><path style="fill:#e9c002;fill-opacity:1;stroke:none" id="path6032" d="m -286.64341,427.32094 -6.1086,12.30742 10.58607,-2.39184 z" transform="translate(-125.0537,75.625)"/></g><g id="g6034" transform="translate(10.007806,-22.037056)" style="stroke-width:.5;stroke-miterlimit:4;stroke-dasharray:none"><path style="fill:#d0a609;fill-opacity:1;stroke:none" id="path6036" d="m -279.66073,446.41282 -2.56327,-9.36917 7.95496,-2.82842 z" transform="translate(-125.0537,75.625)"/><path style="fill:#ce8a14;fill-opacity:1;stroke:none" id="path6038" d="m -282.57755,437.13204 2.82843,9.36917 -13.16987,-6.8059 z" transform="translate(-125.0537,75.625)"/><path style="fill:#f2cc00;fill-opacity:1;stroke:none" id="path6040" d="m -286.55502,427.49771 4.41941,9.81111 7.86657,-3.0052 z" transform="translate(-125.0537,75.625)"/><path style="fill:#e9c002;fill-opacity:1;stroke:none" id="path6042" d="m -286.64341,427.32094 -6.1086,12.30742 10.58607,-2.39184 z" transform="translate(-125.0537,75.625)"/></g><g id="g6044" transform="matrix(0.98972548,-0.13270136,0.07742587,1,-47.393734,-83.159456)" style="stroke-width:.5;stroke-miterlimit:4;stroke-dasharray:none"><path id="path6046" d="m -279.66073,446.41282 -2.56327,-9.36917 7.95496,-2.82842 z" transform="translate(-125.0537,75.625)" style="fill:#d0a609;fill-opacity:1;stroke:none"/><path id="path6048" d="m -282.57755,437.13204 2.82843,9.36917 -13.16987,-6.8059 z" transform="translate(-125.0537,75.625)" style="fill:#ce8a14;fill-opacity:1;stroke:none"/><path id="path6050" d="m -286.55502,427.49771 4.41941,9.81111 7.86657,-3.0052 z" transform="translate(-125.0537,75.625)" style="fill:#f2cc00;fill-opacity:1;stroke:none"/><path id="path6052" d="m -286.64341,427.32094 -6.1086,12.30742 10.58607,-2.39184 z" transform="translate(-125.0537,75.625)" style="fill:#e9c002;fill-opacity:1;stroke:none"/></g><g id="g6054" transform="matrix(0.98972548,-0.20127658,0.07742587,0.99463539,-60.563597,-114.44294)" style="stroke-width:.5;stroke-miterlimit:4;stroke-dasharray:none"><path style="fill:#d0a609;fill-opacity:1;stroke:none" id="path6056" d="m -279.66073,446.41282 -2.56327,-9.36917 7.95496,-2.82842 z" transform="translate(-125.0537,75.625)"/><path style="fill:#ce8a14;fill-opacity:1;stroke:none" id="path6058" d="m -282.57755,437.13204 2.82843,9.36917 -13.16987,-6.8059 z" transform="translate(-125.0537,75.625)"/><path style="fill:#f2cc00;fill-opacity:1;stroke:none" id="path6060" d="m -286.55502,427.49771 4.41941,9.81111 7.86657,-3.0052 z" transform="translate(-125.0537,75.625)"/><path style="fill:#e9c002;fill-opacity:1;stroke:none" id="path6063" d="m -286.64341,427.32094 -6.1086,12.30742 10.58607,-2.39184 z" transform="translate(-125.0537,75.625)"/></g><g id="g6065" transform="matrix(0.98972548,-0.20127658,0.07742587,0.99463539,-73.975209,-119.03133)" style="stroke-width:.5;stroke-miterlimit:4;stroke-dasharray:none"><path id="path6067" d="m -279.66073,446.41282 -2.56327,-9.36917 7.95496,-2.82842 z" transform="translate(-125.0537,75.625)" style="fill:#d0a609;fill-opacity:1;stroke:none"/><path id="path6069" d="m -282.57755,437.13204 2.82843,9.36917 -13.16987,-6.8059 z" transform="translate(-125.0537,75.625)" style="fill:#ce8a14;fill-opacity:1;stroke:none"/><path id="path6071" d="m -286.55502,427.49771 4.41941,9.81111 7.86657,-3.0052 z" transform="translate(-125.0537,75.625)" style="fill:#f2cc00;fill-opacity:1;stroke:none"/><path id="path6073" d="m -286.64341,427.32094 -6.1086,12.30742 10.58607,-2.39184 z" transform="translate(-125.0537,75.625)" style="fill:#e9c002;fill-opacity:1;stroke:none"/></g><g id="g6075" transform="matrix(1.0041647,0.02140214,0.07218709,0.99739111,-12.461968,-4.2770946)" style="stroke-width:.5;stroke-miterlimit:4;stroke-dasharray:none"><path id="path6077" d="m -284.96158,437.84784 -0.40497,5.98239 -7.55244,-4.13492 z" transform="translate(-125.0537,75.625)" style="fill:#ce8a14;fill-opacity:1;stroke:none"/><path id="path6079" d="m -286.27105,426.42675 -6.48096,13.20161 7.75168,-1.53344 c 0.80555,-5.42405 -0.20987,-8.77182 -1.27072,-11.66817 z" transform="translate(-125.0537,75.625)" style="fill:#e9c002;fill-opacity:1;stroke:none"/></g><g id="g6081" transform="matrix(0.96522295,-0.26142811,0.26142811,0.96522295,-135.07009,-123.29456)" style="stroke-width:.5;stroke-miterlimit:4;stroke-dasharray:none"><path id="path6083" d="m -281.13599,437.06922 1.04375,10.69885 -11.72325,-10.23445 z" transform="translate(-125.0537,75.625)" style="fill:#ce8a14;fill-opacity:1;stroke:none"/><path id="path6085" d="m -285.34767,425.74885 -6.30322,11.84263 10.30255,-0.49981 z" transform="translate(-125.0537,75.625)" style="fill:#e9c002;fill-opacity:1;stroke:none"/></g><g id="g6087" transform="matrix(0.97152978,-0.2308594,0.17688601,0.98727205,-101.92597,-130.24756)" style="stroke-width:.5;stroke-miterlimit:4;stroke-dasharray:none"><path style="fill:#d0a609;fill-opacity:1;stroke:none" id="path6089" d="m -280.47482,447.38632 -1.74918,-10.34267 7.22413,-0.31348 z" transform="translate(-125.0537,75.625)"/><path style="fill:#ce8a14;fill-opacity:1;stroke:none" id="path6091" d="m -282.57755,437.13204 2.24486,10.57563 -12.09199,-8.4787 z" transform="translate(-125.0537,75.625)"/><path style="fill:#f2cc00;fill-opacity:1;stroke:none" id="path6093" d="m -285.32406,425.23401 3.18845,12.07481 6.84595,-0.64755 z" transform="translate(-125.0537,75.625)"/><path style="fill:#e9c002;fill-opacity:1;stroke:none" id="path6095" d="m -285.4359,425.18605 -7.09922,14.00062 10.36918,-1.95015 z" transform="translate(-125.0537,75.625)"/></g><g id="g6097" transform="matrix(0.96867508,-0.28589751,0.16293192,0.98424972,-108.8588,-157.19977)" style="stroke-width:.5;stroke-miterlimit:4;stroke-dasharray:none"><path id="path6099" d="m -279.66073,446.41282 -2.56327,-9.36917 7.95496,-2.82842 z" transform="translate(-125.0537,75.625)" style="fill:#d0a609;fill-opacity:1;stroke:none"/><path id="path6101" d="m -282.57755,437.13204 2.82843,9.36917 -13.16987,-6.8059 z" transform="translate(-125.0537,75.625)" style="fill:#ce8a14;fill-opacity:1;stroke:none"/><path id="path6103" d="m -286.98427,425.98108 4.84866,11.32774 7.86657,-3.0052 c -4.15401,-2.68136 -7.10768,-7.06543 -12.71523,-8.32254 z" transform="translate(-125.0537,75.625)" style="fill:#f2cc00;fill-opacity:1;stroke:none"/><path id="path6105" d="m -286.87677,425.99592 -5.87524,13.63244 10.58607,-2.39184 z" transform="translate(-125.0537,75.625)" style="fill:#e9c002;fill-opacity:1;stroke:none"/></g><g id="g6107" transform="matrix(0.9509229,-0.34031517,0.21842939,0.97343871,-158.2147,-177.35991)" style="stroke-width:.5;stroke-miterlimit:4;stroke-dasharray:none"><path style="fill:#d0a609;fill-opacity:1;stroke:none" id="path6109" d="m -279.99223,446.42534 -2.23177,-9.38169 8.53962,-3.35042 z" transform="translate(-125.0537,75.625)"/><path style="fill:#ce8a14;fill-opacity:1;stroke:none" id="path6111" d="m -282.57755,437.13204 2.82843,9.36917 -13.16987,-6.8059 z" transform="translate(-125.0537,75.625)"/><path style="fill:#f2cc00;fill-opacity:1;stroke:none" id="path6113" d="m -286.55502,427.49771 4.41941,9.81111 8.64786,-3.77626 c -4.02763,-3.04613 -8.61925,-4.31411 -13.06727,-6.03485 z" transform="translate(-125.0537,75.625)"/><path style="fill:#e9c002;fill-opacity:1;stroke:none" id="path6115" d="m -286.64341,427.32094 -6.1086,12.30742 10.58607,-2.39184 z" transform="translate(-125.0537,75.625)"/></g></g><path id="path6117" d="m -414.94787,556.42089 c 7.37212,-11.30581 18.72423,-21.1205 23.10229,-31.75179 15.73174,-38.20158 -8.81268,-74.45079 -51.53301,-72.46068 -8.59967,15.20938 -24.44977,67.00185 -41.39033,84.15209 -1.74167,1.76323 1.01002,4.51419 0.17103,5.56469 20.31221,8.2263 74.4654,26.20162 69.65002,14.49569 z" style="fill:none;stroke:#000;stroke-width:.99360192;stroke-linecap:butt;stroke-linejoin:miter;stroke-miterlimit:4;stroke-opacity:1;stroke-dasharray:none"/></g><g id="g6377" transform="translate(-2.25,0)" style="stroke-width:.5;stroke-miterlimit:4;stroke-dasharray:none"><path style="fill:#d59b11;fill-opacity:1;stroke:#000;stroke-width:.99360192;stroke-linecap:butt;stroke-linejoin:miter;stroke-miterlimit:4;stroke-opacity:1;stroke-dasharray:none" id="path6121" d="m -538.96654,447.51129 c 1.3546,-3.89116 13.20282,-6.56234 19.5,0 -14.04468,3.55034 18.59149,84.50388 26.20711,85.7955 -0.5545,2.88107 -1.66327,3.73717 -3.71519,2.9134 -23.205,-9.31595 -43.76803,-74.22056 -41.99192,-88.7089 z"/><g id="g6123" transform="matrix(-1,0,0,1,-981.0163,0)" style="stroke-width:.5;stroke-miterlimit:4;stroke-dasharray:none"><path id="path6125" d="m -338.26221,432.80103 c 0,2.05025 -1.66206,3.71231 -3.71231,3.71231 -2.05025,0 -3.71231,-1.66206 -3.71231,-3.71231 0,-2.05026 1.66206,-3.71232 3.71231,-3.71232 2.05025,0 3.71231,1.66206 3.71231,3.71232 z" transform="translate(-125.0537,75.625)" style="fill:#fff;fill-opacity:1;stroke:#000;stroke-width:.99360192;stroke-miterlimit:4;stroke-opacity:1;stroke-dasharray:none;stroke-dashoffset:0"/><path id="path6127" d="m -334.10795,425.55316 c 0,2.34315 -1.89949,4.24264 -4.24264,4.24264 -2.34314,0 -4.24264,-1.89949 -4.24264,-4.24264 0,-2.34314 1.8995,-4.24264 4.24264,-4.24264 2.34315,0 4.24264,1.8995 4.24264,4.24264 z" transform="translate(-125.0537,75.625)" style="fill:#fff;fill-opacity:1;stroke:#000;stroke-width:.99360192;stroke-miterlimit:4;stroke-opacity:1;stroke-dasharray:none;stroke-dashoffset:0"/><path id="path6129" d="m -330.57242,417.42145 c 0,2.53841 -2.05778,4.59619 -4.59619,4.59619 -2.53841,0 -4.59619,-2.05778 -4.59619,-4.59619 0,-2.53841 2.05778,-4.5962 4.59619,-4.5962 2.53841,0 4.59619,2.05779 4.59619,4.5962 z" transform="translate(-125.0537,75.625)" style="fill:#fff;fill-opacity:1;stroke:#000;stroke-width:.99360192;stroke-miterlimit:4;stroke-opacity:1;stroke-dasharray:none;stroke-dashoffset:0"/><path id="path6131" d="m -326.9485,408.22906 c 0,2.78249 -2.25565,5.03814 -5.03813,5.03814 -2.78249,0 -5.03814,-2.25565 -5.03814,-5.03814 0,-2.78248 2.25565,-5.03813 5.03814,-5.03813 2.78248,0 5.03813,2.25565 5.03813,5.03813 z" transform="translate(-125.0537,75.625)" style="fill:#fff;fill-opacity:1;stroke:#000;stroke-width:.99360192;stroke-miterlimit:4;stroke-opacity:1;stroke-dasharray:none;stroke-dashoffset:0"/><path id="path6133" d="m -324.20846,398.24118 c 0,2.88012 -2.33479,5.21491 -5.21491,5.21491 -2.88012,0 -5.21491,-2.33479 -5.21491,-5.21491 0,-2.88012 2.33479,-5.21491 5.21491,-5.21491 2.88012,0 5.21491,2.33479 5.21491,5.21491 z" transform="translate(-125.0537,75.625)" style="fill:#fff;fill-opacity:1;stroke:#000;stroke-width:.99360192;stroke-miterlimit:4;stroke-opacity:1;stroke-dasharray:none;stroke-dashoffset:0"/><path id="path6135" d="m -320.31937,387.10425 c 0,3.31945 -2.69095,6.01041 -6.0104,6.01041 -3.31946,0 -6.01041,-2.69096 -6.01041,-6.01041 0,-3.31946 2.69095,-6.01041 6.01041,-6.01041 3.31945,0 6.0104,2.69095 6.0104,6.01041 z" transform="translate(-125.0537,75.625)" style="fill:#fff;fill-opacity:1;stroke:#000;stroke-width:.99360192;stroke-miterlimit:4;stroke-opacity:1;stroke-dasharray:none;stroke-dashoffset:0"/><path id="path6137" d="m -318.37482,375.34857 c 0,3.7588 -3.04711,6.8059 -6.80591,6.8059 -3.75879,0 -6.8059,-3.0471 -6.8059,-6.8059 0,-3.75879 3.04711,-6.8059 6.8059,-6.8059 3.7588,0 6.80591,3.04711 6.80591,6.8059 z" transform="translate(-125.0537,74.652728)" style="fill:#fff;fill-opacity:1;stroke:#000;stroke-width:.99360192;stroke-miterlimit:4;stroke-opacity:1;stroke-dasharray:none;stroke-dashoffset:0"/></g><path style="fill:#f2cc00;fill-opacity:1;stroke:#000;stroke-width:.99360192;stroke-linecap:butt;stroke-linejoin:miter;stroke-miterlimit:4;stroke-opacity:1;stroke-dasharray:none" id="path5927" d="m -495.31749,499.11484 c 1.45127,-17.68747 -6.87667,-54.90112 -11.83709,-52.56564 0.7513,-2.22051 3.22672,-3.77461 5.91659,-2.302 1.5483,0.84764 10.93986,41.05466 8.63502,54.43948 -0.17599,1.02203 -1.95922,0.15351 -2.71452,0.42816 z"/></g><g id="g6365" transform="translate(1.75,0)" style="stroke-width:.5;stroke-miterlimit:4;stroke-dasharray:none"><path id="path4690" d="m -315.75,371.88629 c -1.3546,-3.89116 -13.20282,-6.56234 -19.5,0 14.04468,3.55034 -18.76826,84.23871 -26.38388,85.53033 0.5545,2.88107 1.84004,4.00234 3.89196,3.17857 23.205,-9.31595 43.76803,-74.22056 41.99192,-88.7089 z" transform="translate(-125.0537,75.625)" style="fill:#d59b11;fill-opacity:1;stroke:#000;stroke-width:.99360192;stroke-linecap:butt;stroke-linejoin:miter;stroke-miterlimit:4;stroke-opacity:1;stroke-dasharray:none"/><g id="g5545" transform="translate(1.2460586,0)" style="stroke-width:.5;stroke-miterlimit:4;stroke-dasharray:none"><path style="fill:#fff;fill-opacity:1;stroke:#000;stroke-width:.99360192;stroke-miterlimit:4;stroke-opacity:1;stroke-dasharray:none;stroke-dashoffset:0" id="path5505" d="m -338.26221,432.80103 c 0,2.05025 -1.66206,3.71231 -3.71231,3.71231 -2.05025,0 -3.71231,-1.66206 -3.71231,-3.71231 0,-2.05026 1.66206,-3.71232 3.71231,-3.71232 2.05025,0 3.71231,1.66206 3.71231,3.71232 z" transform="translate(-125.0537,75.625)"/><path style="fill:#fff;fill-opacity:1;stroke:#000;stroke-width:.99360192;stroke-miterlimit:4;stroke-opacity:1;stroke-dasharray:none;stroke-dashoffset:0" id="path5507" d="m -334.10795,425.55316 c 0,2.34315 -1.89949,4.24264 -4.24264,4.24264 -2.34314,0 -4.24264,-1.89949 -4.24264,-4.24264 0,-2.34314 1.8995,-4.24264 4.24264,-4.24264 2.34315,0 4.24264,1.8995 4.24264,4.24264 z" transform="translate(-125.0537,75.625)"/><path style="fill:#fff;fill-opacity:1;stroke:#000;stroke-width:.99360192;stroke-miterlimit:4;stroke-opacity:1;stroke-dasharray:none;stroke-dashoffset:0" id="path5509" d="m -330.57242,417.42145 c 0,2.53841 -2.05778,4.59619 -4.59619,4.59619 -2.53841,0 -4.59619,-2.05778 -4.59619,-4.59619 0,-2.53841 2.05778,-4.5962 4.59619,-4.5962 2.53841,0 4.59619,2.05779 4.59619,4.5962 z" transform="translate(-125.0537,75.625)"/><path style="fill:#fff;fill-opacity:1;stroke:#000;stroke-width:.99360192;stroke-miterlimit:4;stroke-opacity:1;stroke-dasharray:none;stroke-dashoffset:0" id="path5511" d="m -326.9485,408.22906 c 0,2.78249 -2.25565,5.03814 -5.03813,5.03814 -2.78249,0 -5.03814,-2.25565 -5.03814,-5.03814 0,-2.78248 2.25565,-5.03813 5.03814,-5.03813 2.78248,0 5.03813,2.25565 5.03813,5.03813 z" transform="translate(-125.0537,75.625)"/><path style="fill:#fff;fill-opacity:1;stroke:#000;stroke-width:.99360192;stroke-miterlimit:4;stroke-opacity:1;stroke-dasharray:none;stroke-dashoffset:0" id="path5513" d="m -324.20846,398.24118 c 0,2.88012 -2.33479,5.21491 -5.21491,5.21491 -2.88012,0 -5.21491,-2.33479 -5.21491,-5.21491 0,-2.88012 2.33479,-5.21491 5.21491,-5.21491 2.88012,0 5.21491,2.33479 5.21491,5.21491 z" transform="translate(-125.0537,75.625)"/><path style="fill:#fff;fill-opacity:1;stroke:#000;stroke-width:.99360192;stroke-miterlimit:4;stroke-opacity:1;stroke-dasharray:none;stroke-dashoffset:0" id="path5515" d="m -320.31937,387.10425 c 0,3.31945 -2.69095,6.01041 -6.0104,6.01041 -3.31946,0 -6.01041,-2.69096 -6.01041,-6.01041 0,-3.31946 2.69095,-6.01041 6.01041,-6.01041 3.31945,0 6.0104,2.69095 6.0104,6.01041 z" transform="translate(-125.0537,75.625)"/><path style="fill:#fff;fill-opacity:1;stroke:#000;stroke-width:.99360192;stroke-miterlimit:4;stroke-opacity:1;stroke-dasharray:none;stroke-dashoffset:0" id="path5517" d="m -318.37482,375.34857 c 0,3.7588 -3.04711,6.8059 -6.80591,6.8059 -3.75879,0 -6.8059,-3.0471 -6.8059,-6.8059 0,-3.75879 3.04711,-6.8059 6.8059,-6.8059 3.7588,0 6.80591,3.04711 6.80591,6.8059 z" transform="translate(-125.0537,74.652728)"/></g><path id="path5485" d="m -484.0992,499.11484 c -1.45127,-17.68747 6.87667,-54.90112 11.83709,-52.56564 -0.7513,-2.22051 -3.22672,-3.77461 -5.91659,-2.302 -1.5483,0.84764 -10.93986,41.05466 -8.63502,54.43948 0.17599,1.02203 1.95922,0.15351 2.71452,0.42816 z" style="fill:#f2cc00;fill-opacity:1;stroke:#000;stroke-width:.99360192;stroke-linecap:butt;stroke-linejoin:miter;stroke-miterlimit:4;stroke-opacity:1;stroke-dasharray:none"/></g><path style="fill:#f3cd00;fill-opacity:1;stroke:#000;stroke-width:.99360192;stroke-miterlimit:4;stroke-opacity:1;stroke-dasharray:none" id="path5467" d="m -364.90625,414.25 c -4.50872,2.39019 -3.23939,4.60288 -4.1875,7.3125 -0.9123,-0.66312 -7.25968,-2.05355 -8.78125,5.75 9.50521,-0.43397 6.95099,7.87926 6.8125,8.15625 -1.92826,3.85651 -9.60715,0.95373 -7.5,-4.90625 -1.47804,0.0633 -9.08042,0.42547 -5.28125,8.90625 -4.22506,0.28836 -10.74639,7.82334 -0.28125,9.75 -0.35661,1.06982 -0.76076,10.67246 6.90625,7.4375 -1.10969,-1.65715 -0.55729,-10.10168 4.5,-7.75 7.82237,3.63746 -0.68606,13.88494 -7.78125,16.25 -7.09859,2.16148 -35.98576,1.76628 -27.9375,-11.3125 3.38164,-3.38164 6.34375,3.1352 6.34375,5.65625 0,1.06929 6.56435,-1.0842 3.625,-8.5 11.05525,-4.25972 3.65414,-8.9375 0.28125,-8.9375 1.95039,-4.09074 -3.39734,-8.88946 -7.4375,-6.59375 0.87064,0.86147 1.52886,9.62673 -5.9375,5.78125 -0.97997,-0.50473 -4.05604,-8.81047 3.625,-6.84375 -0.29199,-6.09568 -2.51146,-5.48256 -8.4375,-5 -0.6378,-8.0876 -12.19699,-6.24698 -8.53125,2.25 -5.79605,0.29521 -8.28086,3.37618 -5.875,7.71875 2.10915,-0.29753 7.94097,-0.67893 6.34375,4.4375 -1.74072,5.57612 -6.884,1.30006 -7.71875,-1.65625 -4.46242,-0.33037 -5.4652,6.562 -3.0625,8.5 -6.74118,3.60059 -2.69081,9.86263 3.65625,8.28125 -2.39645,5.79922 5.18053,8.38402 6.59375,6 -2.03845,-2.57478 -0.7123,-8.83477 3.34375,-7.71875 9.17917,2.52566 -3.5935,16.67175 -9.8125,17.84375 -4.0252,0.75857 -23.23468,-1.51533 -17.3125,-7.4375 2.16582,-2.16582 4.29971,0.12554 6.375,3 3.39807,-2.51419 1.83189,-6.57126 -2.34375,-7.28125 7.33852,-2.45406 3.13695,-10.14959 -2.4375,-6.65625 -0.77242,-1.91764 -2.55971,-7.30126 -7.6875,-5.0625 0.86153,0.75857 3.2315,7.00337 -2.375,6.8125 -1.11119,-0.0378 -6.44827,-5.83819 -0.21875,-7.28125 -0.9233,-4.41456 -6.47026,-2.30854 -7.21875,-2.4375 -0.34872,-1.96201 -8.34375,-6.09038 -10.46875,1.6875 3.21243,-1.62569 7.30398,1.39908 8.5,10.53125 2.12152,16.19864 23.76884,6.88026 24.9375,24.375 l 1.78125,-0.71875 c 18.28851,-6.65037 74.9347,-13.83806 75,-13.96875 0.0653,0.13069 56.71149,7.31838 75,13.96875 l 1.75,0.71875 c 1.16866,-17.49474 22.81598,-8.17636 24.9375,-24.375 1.19602,-9.13217 5.28757,-12.15694 8.5,-10.53125 -2.125,-7.77788 -10.08878,-3.64951 -10.4375,-1.6875 -0.74849,0.12896 -6.29545,-1.97706 -7.21875,2.4375 6.22952,1.44306 0.89244,7.24342 -0.21875,7.28125 -5.6065,0.19087 -3.23653,-6.05393 -2.375,-6.8125 -5.12779,-2.23876 -6.91508,3.14486 -7.6875,5.0625 -5.57445,-3.49334 -9.80727,4.20219 -2.46875,6.65625 -4.17564,0.70999 -5.71057,4.76706 -2.3125,7.28125 2.07529,-2.87446 4.20918,-5.16582 6.375,-3 5.92218,5.92217 -13.31855,8.19607 -17.34375,7.4375 -6.219,-1.172 -18.99167,-15.31809 -9.8125,-17.84375 4.05605,-1.11602 5.41345,5.14397 3.375,7.71875 1.41322,2.38402 8.9902,-0.20078 6.59375,-6 6.34706,1.58138 10.39743,-4.68066 3.65625,-8.28125 2.4027,-1.938 1.36867,-8.83037 -3.09375,-8.5 -0.83475,2.95631 -5.94678,7.23237 -7.6875,1.65625 -1.59722,-5.11643 4.2346,-4.73503 6.34375,-4.4375 2.40586,-4.34257 -0.079,-7.42354 -5.875,-7.71875 3.66574,-8.49698 -7.89345,-10.3376 -8.53125,-2.25 -5.92604,-0.48256 -8.14551,-1.09568 -8.4375,5 7.68104,-1.96672 4.60497,6.33902 3.625,6.84375 -7.46636,3.84548 -6.83939,-4.91978 -5.96875,-5.78125 -4.04016,-2.29571 -9.38789,2.50301 -7.4375,6.59375 -3.37289,0 -10.774,4.67778 0.28125,8.9375 -2.93935,7.4158 3.625,9.56929 3.625,8.5 0,-2.52105 2.99336,-9.03789 6.375,-5.65625 8.04826,13.07878 -20.83891,13.47398 -27.9375,11.3125 -7.09519,-2.36506 -15.60362,-12.61254 -7.78125,-16.25 5.05729,-2.35168 5.60969,6.09285 4.5,7.75 7.66701,3.23496 7.26286,-6.36768 6.90625,-7.4375 10.46514,-1.92666 3.91256,-9.46164 -0.3125,-9.75 3.79917,-8.48078 -3.77196,-8.84293 -5.25,-8.90625 2.10715,5.85998 -5.60299,8.76276 -7.53125,4.90625 -0.13849,-0.27699 -2.69271,-8.59022 6.8125,-8.15625 -1.52157,-7.80355 -7.8377,-6.41312 -8.75,-5.75 -0.94811,-2.70962 0.32122,-4.92231 -4.1875,-7.3125 z" transform="translate(-125.0537,75.625)"/><g id="g5603" style="stroke-width:.5;stroke-miterlimit:4;stroke-dasharray:none"><g id="g5571" transform="translate(0,-22.7193)" style="stroke-width:.5;stroke-miterlimit:4;stroke-dasharray:none"><path style="fill:#f2cc00;fill-opacity:1;stroke:#000;stroke-width:.99360192;stroke-miterlimit:4;stroke-opacity:1;stroke-dasharray:none" id="path5474" d="m -489.95995,567.71875 c -39.80386,0 -66.1289,8.40055 -76.0625,14.0625 -3.3102,7.23028 -1.69546,19.41185 -0.28125,21.75 7.24784,-1.46255 21.65149,-13.71875 76.34375,-13.71875 54.69226,0 69.06466,12.2562 76.3125,13.71875 1.41421,-2.33815 3.02895,-14.51972 -0.28125,-21.75 -9.9336,-5.66195 -36.22739,-14.0625 -76.03125,-14.0625 z"/><path style="fill:#f2cc00;fill-opacity:1;stroke:#000;stroke-width:.99360192;stroke-miterlimit:4;stroke-opacity:1;stroke-dasharray:none" id="path5469" d="m -489.95995,588.25 c -54.65668,0 -85.64007,16.8125 -77.84375,16.8125 7.79632,0 23.15149,-12.75 77.84375,-12.75 54.69226,0 70.01618,12.75 77.8125,12.75 7.79632,0 -23.15582,-16.8125 -77.8125,-16.8125 z"/><path style="fill:#f2cc00;fill-opacity:1;stroke:#000;stroke-width:.99360192;stroke-miterlimit:4;stroke-opacity:1;stroke-dasharray:none" id="path5471" d="m -489.95995,566 c -54.65668,0 -85.64007,16.8125 -77.84375,16.8125 7.79632,0 23.15149,-12.75 77.84375,-12.75 54.69226,0 70.01618,12.75 77.8125,12.75 7.79632,0 -23.15582,-16.8125 -77.8125,-16.8125 z"/></g><g id="g5591" style="stroke-width:.5;stroke-miterlimit:4;stroke-dasharray:none"><g id="g5529" style="fill:#f2cc00;fill-opacity:1;stroke-width:.5;stroke-miterlimit:4;stroke-dasharray:none"><path id="path5495" d="m -301.93459,489.63474 c 0,1.95262 -1.58291,3.53553 -3.53553,3.53553 -1.95262,0 -3.53554,-1.58291 -3.53554,-3.53553 0,-1.95263 1.58292,-3.53554 3.53554,-3.53554 1.95262,0 3.53553,1.58291 3.53553,3.53554 z" transform="translate(-125.0537,75.625)" style="fill:#f2cc00;fill-opacity:1;stroke:#000;stroke-width:.99360192;stroke-miterlimit:4;stroke-opacity:1;stroke-dasharray:none;stroke-dashoffset:0"/><path style="fill:#f2cc00;fill-opacity:1;stroke:#000;stroke-width:.99360192;stroke-miterlimit:4;stroke-opacity:1;stroke-dasharray:none;stroke-dashoffset:0" id="path5497" d="m -301.93459,489.63474 c 0,1.95262 -1.58291,3.53553 -3.53553,3.53553 -1.95262,0 -3.53554,-1.58291 -3.53554,-3.53553 0,-1.95263 1.58292,-3.53554 3.53554,-3.53554 1.95262,0 3.53553,1.58291 3.53553,3.53554 z" transform="translate(-163.94457,68.200379)"/><path id="path5499" d="m -299.9375,492.32379 c 0,0 14.7131,10.30061 14.6875,6.5625 l -0.0625,-9.125 c -0.0163,-2.3872 -9.3635,1.44076 -14.625,2.5625 z" transform="translate(-125.0537,75.625)" style="fill:#f2cc00;fill-opacity:1;stroke:#000;stroke-width:.99360192;stroke-linecap:butt;stroke-linejoin:miter;stroke-miterlimit:4;stroke-opacity:1;stroke-dasharray:none"/><rect id="rect5503" width="13.766" height="13.766" x="-963.348" y="565.023" transform="matrix(0.96756527,-0.25262115,0.83014672,0.557545,0,0)" style="fill:#f2cc00;fill-opacity:1;stroke:#000;stroke-width:1.14794517;stroke-miterlimit:4;stroke-opacity:1;stroke-dasharray:none;stroke-dashoffset:0"/></g><g id="g5535" transform="matrix(-1,0,0,1,-981.18818,0)" style="fill:#f2cc00;fill-opacity:1;stroke-width:.5;stroke-miterlimit:4;stroke-dasharray:none"><path style="fill:#f2cc00;fill-opacity:1;stroke:#000;stroke-width:.99360192;stroke-miterlimit:4;stroke-opacity:1;stroke-dasharray:none;stroke-dashoffset:0" id="path5537" d="m -301.93459,489.63474 c 0,1.95262 -1.58291,3.53553 -3.53553,3.53553 -1.95262,0 -3.53554,-1.58291 -3.53554,-3.53553 0,-1.95263 1.58292,-3.53554 3.53554,-3.53554 1.95262,0 3.53553,1.58291 3.53553,3.53554 z" transform="translate(-125.0537,75.625)"/><path id="path5539" d="m -301.93459,489.63474 c 0,1.95262 -1.58291,3.53553 -3.53553,3.53553 -1.95262,0 -3.53554,-1.58291 -3.53554,-3.53553 0,-1.95263 1.58292,-3.53554 3.53554,-3.53554 1.95262,0 3.53553,1.58291 3.53553,3.53554 z" transform="translate(-163.94457,68.200379)" style="fill:#f2cc00;fill-opacity:1;stroke:#000;stroke-width:.99360192;stroke-miterlimit:4;stroke-opacity:1;stroke-dasharray:none;stroke-dashoffset:0"/><path style="fill:#f2cc00;fill-opacity:1;stroke:#000;stroke-width:.99360192;stroke-linecap:butt;stroke-linejoin:miter;stroke-miterlimit:4;stroke-opacity:1;stroke-dasharray:none" id="path5541" d="m -299.9375,492.32379 c 0,0 14.7131,10.30061 14.6875,6.5625 l -0.0625,-9.125 c -0.0163,-2.3872 -9.3635,1.44076 -14.625,2.5625 z" transform="translate(-125.0537,75.625)"/><rect style="fill:#f2cc00;fill-opacity:1;stroke:#000;stroke-width:1.14794517;stroke-miterlimit:4;stroke-opacity:1;stroke-dasharray:none;stroke-dashoffset:0" id="rect5543" width="13.766" height="13.766" x="-963.348" y="565.023" transform="matrix(0.96756527,-0.25262115,0.83014672,0.557545,0,0)"/></g></g></g></g><g id="g6394"><g id="g5580" style="stroke-width:.5;stroke-miterlimit:4;stroke-dasharray:none"><path id="path5555" d="m -266.57926,465.06277 c 0,3.70999 -1.50377,6.71752 -3.35876,6.71752 -1.85499,0 -3.35876,-3.00753 -3.35876,-6.71752 0,-3.70998 1.50377,-6.71751 3.35876,-6.71751 1.85499,0 3.35876,3.00753 3.35876,6.71751 z" transform="matrix(0.7709511,0.63689435,-0.63689435,0.7709511,110.90413,354.953)" style="fill:#fff;fill-opacity:1;stroke:#000;stroke-width:.99360192;stroke-miterlimit:4;stroke-opacity:1;stroke-dasharray:none;stroke-dashoffset:0"/><path id="path5569" d="m -308.65212,449.85995 c 0,3.80762 -1.97864,6.8943 -4.41941,6.8943 -2.44078,0 -4.41942,-3.08668 -4.41942,-6.8943 0,-3.80761 1.97864,-6.89429 4.41942,-6.89429 2.44077,0 4.41941,3.08668 4.41941,6.89429 z" transform="matrix(0.98778739,0.15580781,-0.15580781,0.98778739,-58.785425,129.89796)" style="fill:#fff;fill-opacity:1;stroke:#000;stroke-width:.99360192;stroke-miterlimit:4;stroke-opacity:1;stroke-dasharray:none;stroke-dashoffset:0"/></g><g id="g5584" transform="matrix(-1,0,0,1,-980.57409,0)" style="stroke-width:.5;stroke-miterlimit:4;stroke-dasharray:none"><path style="fill:#fff;fill-opacity:1;stroke:#000;stroke-width:.99360192;stroke-miterlimit:4;stroke-opacity:1;stroke-dasharray:none;stroke-dashoffset:0" id="path5587" d="m -266.57926,465.06277 c 0,3.70999 -1.50377,6.71752 -3.35876,6.71752 -1.85499,0 -3.35876,-3.00753 -3.35876,-6.71752 0,-3.70998 1.50377,-6.71751 3.35876,-6.71751 1.85499,0 3.35876,3.00753 3.35876,6.71751 z" transform="matrix(0.7709511,0.63689435,-0.63689435,0.7709511,110.90413,354.953)"/><path style="fill:#fff;fill-opacity:1;stroke:#000;stroke-width:.99360192;stroke-miterlimit:4;stroke-opacity:1;stroke-dasharray:none;stroke-dashoffset:0" id="path5589" d="m -308.65212,449.85995 c 0,3.80762 -1.97864,6.8943 -4.41941,6.8943 -2.44078,0 -4.41942,-3.08668 -4.41942,-6.8943 0,-3.80761 1.97864,-6.89429 4.41942,-6.89429 2.44077,0 4.41941,3.08668 4.41941,6.89429 z" transform="matrix(0.98778739,0.15580781,-0.15580781,0.98778739,-58.785425,129.89796)"/></g><path style="fill:#fff;fill-opacity:1;stroke:#000;stroke-width:.99360192;stroke-miterlimit:4;stroke-opacity:1;stroke-dasharray:none;stroke-dashoffset:0" id="path6390" d="m -360.35929,442.7005 c 0,4.02824 -2.01822,7.29378 -4.50781,7.29378 -2.48959,0 -4.5078,-3.26554 -4.5078,-7.29378 0,-4.02824 2.01821,-7.29378 4.5078,-7.29378 2.48959,0 4.50781,3.26554 4.50781,7.29378 z" transform="translate(-125.0537,75.625)"/></g></g></g></g><rect style="fill:#f2cc00;fill-opacity:1;stroke:#000;stroke-width:1.1788075;stroke-miterlimit:4;stroke-opacity:1;stroke-dasharray:none" id="rect6125" width="13.47" height="13.47" x="-1261.622" y="717.342" transform="matrix(0.92296765,-0.38487754,0.92296765,0.38487754,0,0)"/></g></g></g></svg>