<svg xmlns="http://www.w3.org/2000/svg" xmlns:svg="http://www.w3.org/2000/svg" id="svg1901" width="800" height="533.333" version="1.0"><defs id="defs1903"><clipPath id="clipPath3309" clipPathUnits="userSpaceOnUse"><path style="opacity:1;fill:none;fill-opacity:1;fill-rule:nonzero;stroke:#000;stroke-width:4;stroke-linecap:butt;stroke-linejoin:round;stroke-miterlimit:4;stroke-dasharray:none;stroke-dashoffset:0;stroke-opacity:1" id="path3311" d="M 319.2082,557.57697 C 325.63116,512.41125 333.13087,466.99218 294.96454,432.31806 C 248.20226,441.7876 14.180087,436.73334 25.253814,552.52621 L 319.2082,557.57697 z"/></clipPath><clipPath id="clipPath3313" clipPathUnits="userSpaceOnUse"><path style="opacity:1;fill:none;fill-opacity:1;fill-rule:nonzero;stroke:#000;stroke-width:4;stroke-linecap:butt;stroke-linejoin:round;stroke-miterlimit:4;stroke-dasharray:none;stroke-dashoffset:0;stroke-opacity:1" id="path3315" d="M 319.2082,557.57697 C 325.63116,512.41125 333.13087,466.99218 294.96454,432.31806 C 248.20226,441.7876 14.180087,436.73334 25.253814,552.52621 L 319.2082,557.57697 z"/></clipPath><clipPath id="clipPath3372" clipPathUnits="userSpaceOnUse"><path id="path3374" d="M 287.89347,460.60232 C 294.31643,415.4366 280.60294,375.06829 235.36554,350.4957 C 188.60326,359.96524 91.961836,387.23587 106.06602,480.80538 L 287.89347,460.60232 z" style="opacity:1;fill:none;fill-opacity:1;fill-rule:nonzero;stroke:#000;stroke-width:4;stroke-linecap:butt;stroke-linejoin:round;stroke-miterlimit:4;stroke-dasharray:none;stroke-dashoffset:0;stroke-opacity:1"/></clipPath><clipPath id="clipPath3376" clipPathUnits="userSpaceOnUse"><path id="path3378" d="M 297.32204,187.63119 C 303.745,142.46547 290.03151,102.09716 244.79411,77.524574 C 198.03183,86.994114 101.39041,114.26474 115.49459,207.83425 L 297.32204,187.63119 z" style="opacity:1;fill:none;fill-opacity:1;fill-rule:nonzero;stroke:#000;stroke-width:4;stroke-linecap:butt;stroke-linejoin:round;stroke-miterlimit:4;stroke-dasharray:none;stroke-dashoffset:0;stroke-opacity:1"/></clipPath><clipPath id="clipPath3387" clipPathUnits="userSpaceOnUse"><path style="opacity:1;fill:none;fill-opacity:1;fill-rule:nonzero;stroke:#000;stroke-width:4;stroke-linecap:butt;stroke-linejoin:round;stroke-miterlimit:4;stroke-dasharray:none;stroke-dashoffset:0;stroke-opacity:1" id="path3389" d="M 187.88838,392.92211 C 150.05557,330.97203 -11.893916,330.42849 -31.314729,388.8815 C -32.490812,486.68063 -29.812123,582.4606 79.802051,622.22674 L 187.88838,392.92211 z"/></clipPath><clipPath id="clipPath3391" clipPathUnits="userSpaceOnUse"><path style="opacity:1;fill:none;fill-opacity:1;fill-rule:nonzero;stroke:#000;stroke-width:4;stroke-linecap:butt;stroke-linejoin:round;stroke-miterlimit:4;stroke-dasharray:none;stroke-dashoffset:0;stroke-opacity:1" id="path3393" d="M 187.88838,392.92211 C 150.05557,330.97203 -11.893916,330.42849 -31.314729,388.8815 C -32.490812,486.68063 -29.812123,582.4606 79.802051,622.22674 L 187.88838,392.92211 z"/></clipPath><clipPath id="clipPath3402" clipPathUnits="userSpaceOnUse"><path style="opacity:1;fill:none;fill-opacity:1;fill-rule:nonzero;stroke:#000;stroke-width:4;stroke-linecap:butt;stroke-linejoin:round;stroke-miterlimit:4;stroke-dasharray:none;stroke-dashoffset:0;stroke-opacity:1" id="path3404" d="M 28.284271,362.61753 C 19.726807,297.77077 130.54222,287.67473 155.56349,285.84594 C 207.26464,281.29727 245.17319,292.93991 235.36554,360.59723 C 172.78125,440.73181 98.089675,371.54331 28.284271,362.61753 z"/></clipPath><clipPath id="clipPath3406" clipPathUnits="userSpaceOnUse"><path style="opacity:1;fill:none;fill-opacity:1;fill-rule:nonzero;stroke:#000;stroke-width:4;stroke-linecap:butt;stroke-linejoin:round;stroke-miterlimit:4;stroke-dasharray:none;stroke-dashoffset:0;stroke-opacity:1" id="path3408" d="M 28.284271,362.61753 C 19.726807,297.77077 130.54222,287.67473 155.56349,285.84594 C 207.26464,281.29727 245.17319,292.93991 235.36554,360.59723 C 172.78125,440.73181 98.089675,371.54331 28.284271,362.61753 z"/></clipPath><clipPath id="clipPath3426" clipPathUnits="userSpaceOnUse"><path style="opacity:1;fill:none;fill-opacity:1;fill-rule:nonzero;stroke:#000;stroke-width:4;stroke-linecap:butt;stroke-linejoin:round;stroke-miterlimit:4;stroke-dasharray:none;stroke-dashoffset:0;stroke-opacity:1" id="path3428" d="M 94.954339,310.0896 C 59.033645,265.27295 20.352066,272.91313 -18.182746,277.76472 C -27.332397,343.05959 -21.717852,394.20543 33.335034,397.97287 L 94.954339,310.0896 z"/></clipPath><clipPath id="clipPath3430" clipPathUnits="userSpaceOnUse"><path style="opacity:1;fill:none;fill-opacity:1;fill-rule:nonzero;stroke:#000;stroke-width:4;stroke-linecap:butt;stroke-linejoin:round;stroke-miterlimit:4;stroke-dasharray:none;stroke-dashoffset:0;stroke-opacity:1" id="path3432" d="M 94.954339,310.0896 C 59.033645,265.27295 20.352066,272.91313 -18.182746,277.76472 C -27.332397,343.05959 -21.717852,394.20543 33.335034,397.97287 L 94.954339,310.0896 z"/></clipPath><clipPath id="clipPath3440" clipPathUnits="userSpaceOnUse"><path style="opacity:1;fill:none;fill-opacity:1;fill-rule:nonzero;stroke:#000;stroke-width:4;stroke-linecap:butt;stroke-linejoin:round;stroke-miterlimit:4;stroke-dasharray:none;stroke-dashoffset:0;stroke-opacity:1" id="path3442" d="M -17.172593,148.46519 C 18.552702,99.087666 86.873468,137.70209 94.954339,168.66824 C 110.98257,199.97321 106.05482,266.84865 142.43151,306.04899 L -36.365492,346.45509 L -17.172593,148.46519 z"/></clipPath><clipPath id="clipPath3444" clipPathUnits="userSpaceOnUse"><path style="opacity:1;fill:none;fill-opacity:1;fill-rule:nonzero;stroke:#000;stroke-width:4;stroke-linecap:butt;stroke-linejoin:round;stroke-miterlimit:4;stroke-dasharray:none;stroke-dashoffset:0;stroke-opacity:1" id="path3446" d="M -17.172593,148.46519 C 18.552702,99.087666 86.873468,137.70209 94.954339,168.66824 C 110.98257,199.97321 106.05482,266.84865 142.43151,306.04899 L -36.365492,346.45509 L -17.172593,148.46519 z"/></clipPath><clipPath id="clipPath3460" clipPathUnits="userSpaceOnUse"><path id="path3462" d="M 193.78791,0.60200452 C 193.97392,-16.44478 182.0809,-48.198516 170.32754,-48.570936 C 115.4523,-45.616182 85.972354,-132.14825 82.029366,-150.43802 C 81.671292,-163.31837 78.387494,-174.05815 69.354966,-180.59192 C 71.128866,-198.35629 91.099833,-211.5375 101.57143,-210.3521 C 106.64482,-200.4255 116.755,-195.53568 129.42857,-193.20925 C 146.89874,-186.51176 227.89528,-144.12749 216.57143,-90.3521 C 215.13947,-78.68035 244.69725,-62.06465 261.57143,-59.63782 C 227.27202,-49.311966 205.23296,-28.769155 193.78791,0.60200452 z" style="fill:none;fill-opacity:1;fill-rule:nonzero;stroke:#000;stroke-width:4;stroke-linecap:butt;stroke-linejoin:round;stroke-miterlimit:4;stroke-dashoffset:0;stroke-opacity:1"/></clipPath><clipPath id="clipPath3464" clipPathUnits="userSpaceOnUse"><path id="path3466" d="M 184.35934,273.57313 C 184.54535,256.52635 172.65233,224.77261 160.89897,224.40019 C 106.02373,227.35495 76.54378,140.82288 72.600792,122.53311 C 72.242718,109.65276 68.95892,98.91298 59.926392,92.37921 C 61.700292,74.61484 81.671259,61.43363 92.142856,62.61903 C 97.216246,72.54563 107.32643,77.43545 120,79.76188 C 137.47017,86.45937 218.46671,128.84364 207.14286,182.61903 C 205.7109,194.29078 235.26868,210.90648 252.14286,213.33331 C 217.84345,223.65916 195.80439,244.20198 184.35934,273.57313 z" style="fill:none;fill-opacity:1;fill-rule:nonzero;stroke:#000;stroke-width:4;stroke-linecap:butt;stroke-linejoin:round;stroke-miterlimit:4;stroke-dashoffset:0;stroke-opacity:1"/></clipPath></defs><metadata id="metadata1906"/><g id="layer1" transform="translate(-9.4285736,272.97113)" style="opacity:1"><rect style="opacity:1;fill:#da251d;fill-opacity:1;fill-rule:nonzero;stroke:none;stroke-width:4.90000009999999975;stroke-linecap:butt;stroke-linejoin:round;stroke-miterlimit:4;stroke-dasharray:none;stroke-dashoffset:0;stroke-opacity:1" id="rect3473" width="880" height="620" x="-34.286" y="-38.095" transform="translate(9.4285736,-272.97113)"/><path style="opacity:1;fill:#fff;fill-opacity:1;fill-rule:nonzero;stroke:#000;stroke-width:4;stroke-linecap:butt;stroke-linejoin:round;stroke-miterlimit:4;stroke-dasharray:none;stroke-dashoffset:0;stroke-opacity:1" id="path3222" d="M 264.28572,220.83332 C 274.73871,234.66163 231.52448,291.52065 190.71428,283.33331 C 174.18086,235.76105 208.62237,197.28926 264.28572,220.83332 z" transform="translate(9.4285736,-272.97113)"/><rect style="opacity:1;fill:#ffd400;fill-opacity:1;fill-rule:nonzero;stroke:none;stroke-width:4;stroke-linecap:butt;stroke-linejoin:round;stroke-miterlimit:4;stroke-dasharray:none;stroke-dashoffset:0;stroke-opacity:1" id="rect3438" width="160.714" height="203.571" x="-20.714" y="108.333" clip-path="url(#clipPath3444)" transform="translate(9.4285736,-272.97113)"/><rect style="opacity:1;fill:#fff;fill-opacity:1;fill-rule:nonzero;stroke:none;stroke-width:4;stroke-linecap:butt;stroke-linejoin:round;stroke-miterlimit:4;stroke-dasharray:none;stroke-dashoffset:0;stroke-opacity:1" id="rect3458" width="225" height="237.857" x="35.714" y="53.333" clip-path="url(#clipPath3464)" transform="translate(9.4285736,-272.97113)"/><path style="opacity:1;fill:#f19e29;fill-opacity:1;fill-rule:nonzero;stroke:none;stroke-width:4;stroke-linecap:butt;stroke-linejoin:round;stroke-miterlimit:4;stroke-dasharray:none;stroke-dashoffset:0;stroke-opacity:1" id="path3434" d="M 110.71429,207.97617 C 98.19076,192.97627 53.06428,109.07161 -5.7142857,147.26188 C -14.930444,100.51355 32.228892,117.01578 58.214286,109.76188 C 87.263046,138.26995 113.51916,170.09939 110.71429,207.97617 z" clip-path="url(#clipPath3440)" transform="translate(9.4285736,-272.97113)"/><path id="path3436" d="M -7.744019,-124.50594 C 27.981276,-173.88346 96.302042,-135.26904 104.38291,-104.30289 C 120.41114,-72.99792 115.48339,-6.12248 151.86008,33.07786 L -26.936918,73.48396 L -7.744019,-124.50594 z" style="opacity:1;fill:none;fill-opacity:1;fill-rule:nonzero;stroke:#000;stroke-width:4;stroke-linecap:butt;stroke-linejoin:round;stroke-miterlimit:4;stroke-dasharray:none;stroke-dashoffset:0;stroke-opacity:1"/><path style="opacity:1;fill:#ccc;fill-opacity:1;fill-rule:nonzero;stroke:none;stroke-width:4;stroke-linecap:butt;stroke-linejoin:round;stroke-miterlimit:4;stroke-dasharray:none;stroke-dashoffset:0;stroke-opacity:1" id="path3449" d="M 192.28571,6.07647 C 204.88672,-16.54258 191.79581,-51.66162 182.28571,-61.78067 C 173.05718,-71.8805 144.32899,-68.47876 132.28571,-83.20925 C 107.71615,-108.62769 95.260355,-150.84589 84.785717,-171.42353 C 83.311992,-178.0861 79.007807,-184.5901 71.571431,-188.20925 L 63.714288,-147.49496 C 83.09215,-71.44407 142.50914,-37.78756 192.28571,6.07647 z" clip-path="url(#clipPath3460)"/><rect style="opacity:1;fill:#ffd400;fill-opacity:1;fill-rule:nonzero;stroke:none;stroke-width:4;stroke-linecap:butt;stroke-linejoin:round;stroke-miterlimit:4;stroke-dasharray:none;stroke-dashoffset:0;stroke-opacity:1" id="rect3413" width="105.056" height="114.147" x="-22.223" y="260.592" clip-path="url(#clipPath3430)" transform="translate(9.4285736,-272.97113)"/><path style="opacity:1;fill:#f19e29;fill-opacity:1;fill-rule:nonzero;stroke:none;stroke-width:4;stroke-linecap:butt;stroke-linejoin:round;stroke-miterlimit:4;stroke-dasharray:none;stroke-dashoffset:0;stroke-opacity:1" id="path3411" d="M 81.822356,318.17082 C 63.496147,288.10694 6.3859931,284.1832 -6.0609153,290.39163 C -18.090778,264.52685 14.800215,262.85023 35.355339,254.53121 C 111.44861,266.94702 84.088348,294.38028 81.822356,318.17082 z" clip-path="url(#clipPath3426)" transform="translate(9.4285736,-272.97113)"/><path id="path3415" d="M 104.38291,37.11847 C 68.46222,-7.69818 29.78064,-0.058 -8.754172,4.79359 C -17.903823,70.08846 -12.289278,121.2343 42.76361,125.00174 L 104.38291,37.11847 z" style="opacity:1;fill:none;fill-opacity:1;fill-rule:nonzero;stroke:#000;stroke-width:4;stroke-linecap:butt;stroke-linejoin:round;stroke-miterlimit:4;stroke-dasharray:none;stroke-dashoffset:0;stroke-opacity:1"/><rect style="opacity:1;fill:#ffd400;fill-opacity:1;fill-rule:nonzero;stroke:none;stroke-width:4;stroke-linecap:butt;stroke-linejoin:round;stroke-miterlimit:4;stroke-dasharray:none;stroke-dashoffset:0;stroke-opacity:1" id="rect3398" width="230.714" height="136.429" x="15.714" y="255.476" clip-path="url(#clipPath3406)" transform="translate(9.4285736,-272.97113)"/><path style="opacity:1;fill:#f19e29;fill-opacity:1;fill-rule:nonzero;stroke:none;stroke-width:4;stroke-linecap:butt;stroke-linejoin:round;stroke-miterlimit:4;stroke-dasharray:none;stroke-dashoffset:0;stroke-opacity:1" id="path3396" d="M 237.5,303.33331 C 193.59816,292.65161 28.729679,289.0955 40.714286,378.33331 C -5.8346238,354.05963 23.933493,322.15425 30,292.61903 C 102.6486,284.67324 184.07436,253.61023 237.5,303.33331 z" clip-path="url(#clipPath3402)" transform="translate(9.4285736,-272.97113)"/><path id="path3400" d="M 37.71285,89.6464 C 29.15538,24.79964 139.97079,14.7036 164.99206,12.87481 C 216.69321,8.32614 254.60176,19.96878 244.79411,87.6261 C 182.20982,167.76068 107.51825,98.57218 37.71285,89.6464 z" style="opacity:1;fill:none;fill-opacity:1;fill-rule:nonzero;stroke:#000;stroke-width:4;stroke-linecap:butt;stroke-linejoin:round;stroke-miterlimit:4;stroke-dasharray:none;stroke-dashoffset:0;stroke-opacity:1"/><rect style="opacity:1;fill:#ffd400;fill-opacity:1;fill-rule:nonzero;stroke:none;stroke-width:4;stroke-linecap:butt;stroke-linejoin:round;stroke-miterlimit:4;stroke-dasharray:none;stroke-dashoffset:0;stroke-opacity:1" id="rect3383" width="206.071" height="239.406" x="-37.376" y="313.12" clip-path="url(#clipPath3391)" transform="translate(9.4285736,-272.97113)"/><path style="opacity:1;fill:#f19e29;fill-opacity:1;fill-rule:nonzero;stroke:none;stroke-width:4;stroke-linecap:butt;stroke-linejoin:round;stroke-miterlimit:4;stroke-dasharray:none;stroke-dashoffset:0;stroke-opacity:1" id="path3381" d="M 170.71578,388.8815 C 131.95657,346.64492 15.861603,346.66209 -26.263966,398.98302 C -29.835881,318.91105 40.994911,334.26864 95.964492,329.2825 C 156.62555,335.2484 182.78138,354.63301 170.71578,388.8815 z" clip-path="url(#clipPath3387)" transform="translate(9.4285736,-272.97113)"/><path id="path3385" d="M 197.31695,119.95098 C 159.48414,58.0009 -2.465342,57.45736 -21.886155,115.91037 C -23.062238,213.7095 -20.383549,309.48947 89.230625,349.25561 L 197.31695,119.95098 z" style="opacity:1;fill:none;fill-opacity:1;fill-rule:nonzero;stroke:#000;stroke-width:4;stroke-linecap:butt;stroke-linejoin:round;stroke-miterlimit:4;stroke-dasharray:none;stroke-dashoffset:0;stroke-opacity:1"/><rect style="opacity:1;fill:#ffd400;fill-opacity:1;fill-rule:nonzero;stroke:none;stroke-width:4;stroke-linecap:butt;stroke-linejoin:round;stroke-miterlimit:4;stroke-dasharray:none;stroke-dashoffset:0;stroke-opacity:1" id="rect3370" width="212.132" height="156.574" x="101.352" y="60.352" clip-path="url(#clipPath3376)"/><path style="opacity:1;fill:#f19e29;fill-opacity:1;fill-rule:nonzero;stroke:none;stroke-width:4;stroke-linecap:butt;stroke-linejoin:round;stroke-miterlimit:4;stroke-dasharray:none;stroke-dashoffset:0;stroke-opacity:1" id="path3366" d="M 247.99245,352.51601 C 169.73209,375.69001 104.3566,405.44116 119.198,464.64294 L 63.63961,463.63279 C 96.090012,385.9931 172.46621,317.82668 247.99245,352.51601 z" clip-path="url(#clipPath3372)" transform="translate(9.4285736,-272.97113)"/><path style="opacity:1;fill:none;fill-opacity:1;fill-rule:nonzero;stroke:#000;stroke-width:4;stroke-linecap:butt;stroke-linejoin:round;stroke-miterlimit:4;stroke-dasharray:none;stroke-dashoffset:0;stroke-opacity:1" id="path3368" d="M 297.32204,187.63119 C 303.745,142.46547 290.03151,102.09716 244.79411,77.524574 C 198.03183,86.994114 101.39041,114.26474 115.49459,207.83425 L 297.32204,187.63119 z"/><rect style="opacity:1;fill:#ffd400;fill-opacity:1;fill-rule:nonzero;stroke:none;stroke-width:4;stroke-linecap:butt;stroke-linejoin:round;stroke-miterlimit:4;stroke-dasharray:none;stroke-dashoffset:0;stroke-opacity:1" id="rect3307" width="325" height="143.571" x="15.714" y="409.048" clip-path="url(#clipPath3313)" transform="translate(9.4285736,-272.97113)"/><path style="opacity:1;fill:none;fill-opacity:1;fill-rule:nonzero;stroke:#000;stroke-width:4;stroke-linecap:butt;stroke-linejoin:round;stroke-miterlimit:4;stroke-dasharray:none;stroke-dashoffset:0;stroke-opacity:1" id="path3214" d="M 158.57143,222.61903 C 169.55618,204.07997 182.28279,187.28277 206.42857,181.90474" transform="translate(9.4285736,-272.97113)"/><path style="opacity:1;fill:#fff;fill-opacity:1;fill-rule:nonzero;stroke:#000;stroke-width:4;stroke-linecap:butt;stroke-linejoin:round;stroke-miterlimit:4;stroke-dasharray:none;stroke-dashoffset:0;stroke-opacity:1" id="path3216" d="M 59.285714,92.261884 C 50.527329,99.613355 28.896283,88.021576 36.428571,72.619027 C 47.578797,53.207297 62.543472,42.51431 80.357143,38.333312 C 93.011912,35.01927 107.33261,55.64229 92.5,62.619027" transform="translate(9.4285736,-272.97113)"/><path style="opacity:1;fill:none;fill-opacity:1;fill-rule:nonzero;stroke:#000;stroke-width:4;stroke-linecap:butt;stroke-linejoin:round;stroke-miterlimit:4;stroke-dasharray:none;stroke-dashoffset:0;stroke-opacity:1" id="path3218" d="M 40.357143,89.047598 C 50.818638,66.413855 69.910158,52.410137 94.642857,44.047598" transform="translate(9.4285736,-272.97113)"/><path style="opacity:1;fill:#fff;fill-opacity:1;fill-rule:nonzero;stroke:#000;stroke-width:4;stroke-linecap:butt;stroke-linejoin:round;stroke-miterlimit:4;stroke-dasharray:none;stroke-dashoffset:0;stroke-opacity:1" id="path3229" d="M 238.396,232.30785 C 286.84137,266.69321 380.68869,310.68649 377.79705,394.94241 C 402.09093,428.27745 422.47511,461.61248 433.35544,494.94752 C 439.35082,515.15057 461.01872,535.35362 479.82246,555.55667 L 327.28942,546.4653 C 368.98354,471.42306 277.70415,348.8176 260.61936,333.32311 C 238.93676,313.0487 220.09945,287.0837 201.02036,261.60228 L 238.396,232.30785 z" transform="translate(9.4285736,-272.97113)"/><path style="opacity:1;fill:#f19e29;fill-opacity:1;fill-rule:nonzero;stroke:none;stroke-width:4;stroke-linecap:butt;stroke-linejoin:round;stroke-miterlimit:4;stroke-dasharray:none;stroke-dashoffset:0;stroke-opacity:1" id="path3294" d="M 50.002551,559.59728 C 17.634707,446.53942 277.53653,442.4723 314.66252,447.97542 L 302.03561,417.67085 C 194.61718,445.33608 29.92534,410.58798 17.172593,541.41453 L 50.002551,559.59728 z" clip-path="url(#clipPath3309)" transform="translate(9.4285736,-272.97113)"/><path id="path3296" d="M 328.63677,284.60584 C 335.05973,239.44012 342.55944,194.02105 304.39311,159.34693 C 257.63083,168.81647 23.608661,163.76221 34.682388,279.55508 L 328.63677,284.60584 z" style="opacity:1;fill:none;fill-opacity:1;fill-rule:nonzero;stroke:#000;stroke-width:4;stroke-linecap:butt;stroke-linejoin:round;stroke-miterlimit:4;stroke-dasharray:none;stroke-dashoffset:0;stroke-opacity:1"/><path style="opacity:1;fill:none;fill-opacity:1;fill-rule:nonzero;stroke:#000;stroke-width:4;stroke-linecap:butt;stroke-linejoin:round;stroke-miterlimit:4;stroke-dasharray:none;stroke-dashoffset:0;stroke-opacity:1" id="path3353" d="M 401.42857,534.0476 C 374.73337,519.65029 357.71376,496.95961 344.28571,471.19046" transform="translate(9.4285736,-272.97113)"/><path style="opacity:1;fill:none;fill-opacity:1;fill-rule:nonzero;stroke:#000;stroke-width:4;stroke-linecap:butt;stroke-linejoin:round;stroke-miterlimit:4;stroke-dasharray:none;stroke-dashoffset:0;stroke-opacity:1" id="path3355" d="M 337.14286,454.76188 C 333.32514,395.33823 290.724,359.18463 260.71429,315.47617" transform="translate(9.4285736,-272.97113)"/><path style="opacity:1;fill:none;fill-opacity:1;fill-rule:nonzero;stroke:#000;stroke-width:4;stroke-linecap:butt;stroke-linejoin:round;stroke-miterlimit:4;stroke-dasharray:none;stroke-dashoffset:0;stroke-opacity:1" id="path3357" d="M 218.57143,256.90474 C 238.12532,284.10674 260.25485,308.21797 289.28571,324.0476 C 315.55899,336.60801 345.84773,361.99978 369.28571,389.0476" transform="translate(9.4285736,-272.97113)"/><path style="opacity:1;fill:none;fill-opacity:1;fill-rule:nonzero;stroke:#000;stroke-width:4;stroke-linecap:butt;stroke-linejoin:round;stroke-miterlimit:4;stroke-dasharray:none;stroke-dashoffset:0;stroke-opacity:1" id="path3359" d="M 289.28571,334.0476 C 337.234,369.0476 365.10296,404.0476 380.71429,439.0476 C 395.28471,474.26239 416.87211,505.96868 442.85714,535.47617" transform="translate(9.4285736,-272.97113)"/><path style="opacity:1;fill:none;fill-opacity:1;fill-rule:nonzero;stroke:#000;stroke-width:4;stroke-linecap:butt;stroke-linejoin:round;stroke-miterlimit:4;stroke-dasharray:none;stroke-dashoffset:0;stroke-opacity:1" id="path3361" d="M 257.14286,280.47617 C 297.30777,308.30273 341.76172,333.26994 365.71429,371.90474" transform="translate(9.4285736,-272.97113)"/><path style="opacity:1;fill:none;fill-opacity:1;fill-rule:nonzero;stroke:#000;stroke-width:4;stroke-linecap:butt;stroke-linejoin:round;stroke-miterlimit:4;stroke-dasharray:none;stroke-dashoffset:0;stroke-opacity:1" id="path3363" d="M 357.85714,346.90474 C 332.64074,303.21128 273.78712,280.92333 230,249.0476" transform="translate(9.4285736,-272.97113)"/><path style="fill:none;fill-opacity:1;fill-rule:nonzero;stroke:#000;stroke-width:4;stroke-linecap:butt;stroke-linejoin:round;stroke-miterlimit:4;stroke-dashoffset:0;stroke-opacity:1" id="path3451" d="M 193.78791,0.60200452 C 193.97392,-16.44478 182.0809,-48.198516 170.32754,-48.570936 C 115.4523,-45.616182 85.97235,-132.14825 82.02937,-150.43802 C 81.67129,-163.31837 78.38749,-174.05815 69.35497,-180.59192 C 71.12887,-198.35629 91.09983,-211.5375 101.57143,-210.3521 C 106.64482,-200.4255 116.755,-195.53568 129.42857,-193.20925 C 146.89874,-186.51176 227.89528,-144.12749 216.57143,-90.3521 C 215.13947,-78.68035 244.69725,-62.06465 261.57143,-59.63782 C 227.27202,-49.311966 205.23296,-28.769155 193.78791,0.60200452 z"/><path style="opacity:1;fill:#fff;fill-opacity:1;fill-rule:nonzero;stroke:#000;stroke-width:4;stroke-linecap:butt;stroke-linejoin:round;stroke-miterlimit:4;stroke-dasharray:none;stroke-dashoffset:0;stroke-opacity:1" id="path3220" d="M 251.07143,213.69045 C 258.69611,211.99261 268.16103,219.924 261.42857,222.26188 C 232.44778,234.6585 207.43174,249.28331 193.57143,278.69046 C 189.99973,285.83372 182.77245,279.35322 183.92857,273.69046 C 198.7659,239.41194 216.56017,226.41754 251.07143,213.69045 z" transform="translate(9.4285736,-272.97113)"/><path style="opacity:1;fill:none;fill-opacity:1;fill-rule:nonzero;stroke:#fff;stroke-width:4.9;stroke-linecap:butt;stroke-linejoin:round;stroke-miterlimit:4;stroke-dasharray:none;stroke-dashoffset:0;stroke-opacity:1" id="path3469" d="M 192.05357,280.56546 L 196.96429,272.61903" transform="translate(9.4285736,-272.97113)"/><path id="path3471" d="M 264.78571,-47.941384 L 272.01786,-51.423529" style="opacity:1;fill:none;fill-opacity:1;fill-rule:nonzero;stroke:#fff;stroke-width:4.9000001;stroke-linecap:butt;stroke-linejoin:round;stroke-miterlimit:4;stroke-dasharray:none;stroke-dashoffset:0;stroke-opacity:1"/></g></svg>