<svg xmlns="http://www.w3.org/2000/svg" xmlns:xlink="http://www.w3.org/1999/xlink" width="450" height="300" viewBox="0 0 450 300" xml:space="preserve"><defs><g id="horns" fill="#fff" stroke="#fff" stroke-width=".5"><rect width="10" height="30" x="20" y="0"/><rect width="10" height="10" x="30" y="10"/><rect width="30" height="10" x="30" y="30"/><rect width="10" height="10" x="40" y="20"/><rect width="10" height="10" x="0" y="20"/><rect width="10" height="10" x="30" y="50"/><path d="M 0,30 L 30,30 L 30,60 Z"/><rect width="10" height="10" x="50" y="50"/><path d="M 30,60 L 50,60 L 50,80 Z"/></g></defs><rect width="450" height="300" x="0" y="0" fill="#0080FF"/><g transform="translate(-29.5,222) rotate(-45)"><use x="0" y="0" xlink:href="#horns"/><use x="50" y="50" xlink:href="#horns"/><use x="100" y="100" xlink:href="#horns"/><use x="150" y="150" xlink:href="#horns"/><use x="200" y="200" xlink:href="#horns"/><use x="250" y="250" xlink:href="#horns"/><use x="300" y="300" xlink:href="#horns"/></g><rect width="450" height="7" x="0" y="250" fill="red"/><rect width="450" height="7" x="0" y="243" fill="#0080FF"/></svg>