<svg xmlns="http://www.w3.org/2000/svg" xmlns:svg="http://www.w3.org/2000/svg" xmlns:xlink="http://www.w3.org/1999/xlink" id="svg2" width="1674" height="837" version="1.1" viewBox="0 0 70 35"><metadata id="metadata37"/><title id="title4">Flag of Abkhazia</title><desc id="desc6">hand shape probably wrong</desc><rect id="rect8" width="70" height="35" x="0" y="0" style="fill:#00993e"/><rect id="w" width="70" height="5" x="0" y="5" style="fill:#fff"/><use id="use11" width="70" height="35" x="0" y="10" xlink:href="#w"/><use id="use13" width="70" height="35" x="0" y="20" xlink:href="#w"/><rect id="rect15" width="26.6" height="15" x="0" y="0" style="fill:#c8312a"/><path id="path3016" d="m 11.241105,8.3791133 c 0,0 -0.2293,0.096 -0.0722,1.9261007 0.1282,1.506301 0.6649,1.997001 0.6649,1.997001 l 0.2344,0.9324 2.2232,0.0091 c 0,0 0.0403,-0.5774 0.1264,-0.76 0.2115,-0.4486 1.0499,-0.9613 1.4092,-1.7355 0.3864,-0.471901 0.1928,-1.4350017 0.9685,-2.3646017 0.3851,-0.4616 -0.4512,-0.2662 -0.4512,-0.2662 -0.4586,0.3042 -0.6827,0.6612 -0.7984,0.9106 -0.0778,0.4805 -0.4375,0.8823 -0.4715,0.5334 0,0 -0.1307,-0.6034 -0.5228,-1.7764 -0.0388,-0.3477 -0.207,-1.55 -0.2429,-2.4677 -0.0256,-0.5971 -0.5482,-0.633 -0.5919,-0.0269 l -0.0631,2.4028 -0.1249,-2.775 c -0.0531,-0.7854 -0.6473,-0.669 -0.6731,-0.0181 l -0.0255,2.8895 -0.1083,-2.8009 c -0.161,-0.535 -0.584,-0.2179 -0.5918,0.3617 l -0.0721,2.7253 c 0,0 -0.0911,-1.4925 -0.1117,-2.1227 -0.0194,-0.3791 -0.4633,-0.3511 -0.5052,0.1909 -0.0604,0.7834 -0.1555,1.4231 -0.2,2.2352 z" style="fill:#fff"/><g id="g3018" transform="translate(13.300005,11.832815)" style="fill:#fff"><g id="g3020" style="fill:#fff"><g id="g3022" transform="matrix(1.15,0,0,1.15,0,-9.5)" style="fill:#fff"><path style="fill:#fff" id="polygon3024" d="M -301930,415571 0,-513674 l 301930,929245 -790463,-574305 977066,0 z" transform="scale(1.94676e-6,1.94676e-6)"/></g><g id="use3026" transform="matrix(1.15,0,0,1.15,3.9046718,-8.6700364)" style="fill:#fff"><path style="fill:#fff" id="polygon3111" d="m 0.58778523,0.809017 -1.5388417,-1.118034 1.902113,0 -1.5388418,1.118034 L 3.4782611e-8,-1 z"/></g><g id="use3028" transform="matrix(1.15,0,0,1.15,7.245212,-6.1981667)" style="fill:#fff"><path style="fill:#fff" id="polygon3115" d="m 0.5877853,0.809017 -1.538842,-1.118034 1.902113,0 -1.538842,1.118034 L 3.0434783e-7,-1 z"/></g><g id="use3030" transform="matrix(1.15,0,0,1.15,9.1805257,-2.7067684)" style="fill:#fff"><path style="fill:#fff" id="polygon3119" d="m 0.58778535,0.809017 -1.538842,-1.118034 1.90210395,0 L -0.58778565,0.809017 3.4782608e-7,-1 z"/></g></g><g id="use3032" transform="scale(-1,1)" style="fill:#fff"><g id="g3087" transform="matrix(1.15,0,0,1.15,0,-9.5)" style="fill:#fff"><path style="fill:#fff" id="polygon3089" d="m 0.58778525,0.809017 -1.53884175,-1.118034 1.902113,0 L -0.58778525,0.809017 0,-1 z"/></g><g id="use3091" transform="matrix(1.15,0,0,1.15,3.9046718,-8.6700364)" style="fill:#fff"><path style="fill:#fff" id="polygon3135" d="m 0.58778523,0.809017 -1.5388417,-1.118034 1.902113,0 -1.5388418,1.118034 L 3.4782601e-8,-1 z"/></g><g id="use3093" transform="matrix(1.15,0,0,1.15,7.245212,-6.1981667)" style="fill:#fff"><path style="fill:#fff" id="polygon3139" d="m 0.5877853,0.809017 -1.538842,-1.118034 1.902113,0 -1.538842,1.118034 L 3.0434782e-7,-1 z"/></g><g id="use3095" transform="matrix(1.15,0,0,1.15,9.1805257,-2.7067684)" style="fill:#fff"><path style="fill:#fff" id="polygon3143" d="m 0.58778535,0.809017 -1.538842,-1.118034 1.902113,0 -1.538842,1.118034 L 3.4782608e-7,-1 z"/></g></g></g></svg>