<svg xmlns="http://www.w3.org/2000/svg" xmlns:svg="http://www.w3.org/2000/svg" xmlns:xlink="http://www.w3.org/1999/xlink" id="svg2" width="1800" height="900" version="1.1"><metadata id="metadata25"/><defs id="defs4"><clipPath id="Canton"><path id="path7" d="m 0,0 600,0 0,300 -600,0 z"/></clipPath><clipPath id="Diagonals"><path id="path10" d="M 0,0 300,150 0,150 z M 300,0 600,0 300,150 z m 0,150 300,0 0,150 z m 0,0 0,150 -300,0 z"/></clipPath><g id="Pentagram"><g id="Arm" transform="translate(0,-0.324925)"><path id="path14" d="M 0,0 0,0.5 1,0 z"/><path id="path16" d="M 0,0 0,-0.5 1,0 z" transform="matrix(0.80901699,-0.58778525,0.58778525,0.80901699,0.19098301,0.58778525)"/></g><use id="use18" width="1200" height="600" x="0" y="0" transform="scale(-1,1)" xlink:href="#Arm"/><use id="use20" width="1200" height="600" x="0" y="0" transform="matrix(0.30901699,0.95105652,-0.95105652,0.30901699,0,0)" xlink:href="#Arm"/><use id="use22" width="1200" height="600" x="0" y="0" transform="matrix(0.30901699,-0.95105652,0.95105652,0.30901699,0,0)" xlink:href="#Arm"/><use id="use24" width="1200" height="600" x="0" y="0" transform="matrix(-0.30901699,0.95105652,0.95105652,0.30901699,0,0)" xlink:href="#Arm"/></g></defs><rect id="rect26" width="1800" height="900" x="0" y="0" style="fill:#00247d"/><path id="path3067" d="M 329.37609,777.2654 C 311.44173,777.11556 497.99952,677.83404 654.14523,550.66563 858.78891,383.99945 1299.541,117.15633 1429.1161,73.7954 c 13.5433,-4.53215 -27.7761,23.07308 -33.14,32.01541 -138.3415,163.74043 -27.925,472.72379 144.9726,628.04829 51.99,39.7632 49.3274,41.85082 145.7074,45.7463 0,0 0,9 0,9 l -1357.28001,-11.34 z" style="fill:#fed100;fill-opacity:1;stroke:none"/><path id="path4108" d="m 318.12503,795.3246 c 0,0 -13.16343,9.4029 -13.12495,16.4061 0.043,7.7725 14.76557,18.0468 14.76557,18.0468 l 1338.74505,14.7656 24.6093,-16.4062 -34.453,-21.328 -1330.54197,-11.4843 z" style="fill:#fed100;fill-opacity:1;stroke:none"/><use id="use4022" width="1200" height="600" x="0" y="0" transform="matrix(45,0,0,45,342.9565,112.5812)" xlink:href="#Pentagram" style="fill:#fff"/><use id="use4029" width="1200" height="600" x="0" y="0" transform="matrix(37.5,1.1682486e-6,-1.1682486e-6,37.5,521.20459,267.53)" xlink:href="#Pentagram" style="fill:#fff"/><use id="use4034" width="1200" height="600" x="0" y="0" transform="matrix(45,1.4854021e-6,-1.4854021e-6,45,135.00004,321.8075)" xlink:href="#Pentagram" style="fill:#fff"/><use id="use4039" width="1200" height="600" x="0" y="0" transform="matrix(52.5,0,0,52.5,342.9565,652.5812)" xlink:href="#Pentagram" style="fill:#fff"/></svg>