<svg xmlns="http://www.w3.org/2000/svg" xmlns:cc="http://web.resource.org/cc/" xmlns:svg="http://www.w3.org/2000/svg" id="svg2" width="1000" height="700" x="0" y="0" version="1.0"><metadata id="metadata1309"/><rect style="opacity:1;fill:#fff;fill-opacity:1;stroke:none;stroke-width:2;stroke-linecap:butt;stroke-linejoin:bevel;stroke-miterlimit:4;stroke-dasharray:none;stroke-opacity:1" id="rect1926" width="1000" height="700" x="0" y="0"/><g id="layer1"><path id="path1291" d="M 0.00000000,0.00000000 L 250.00000,250.00000 L 1000.0000,250.00000 L 1000.0000,450.00000 L 250.00000,450.00000 L 0.00000000,700.00000 L 0.00000000,0.00000000 z" style="stroke-opacity:1;stroke-linejoin:miter;stroke-linecap:butt;stroke-width:1px;stroke:none;fill-rule:evenodd;fill-opacity:1;fill:#00994c"/><path id="path2052" d="M 1000.0000,200.00000 L 270.71068,200.00000 L 70.710678,0.00000000 L 1000.0000,0.00000000 L 1000.0000,200.00000 z" style="fill:#002580;fill-opacity:1;fill-rule:evenodd;stroke:none;stroke-width:1px;stroke-linecap:butt;stroke-linejoin:miter;stroke-opacity:1"/><path id="path2812" d="M 70.710678,700.00000 L 270.71068,500.00000 L 1000.0000,500.00000 L 1000.0000,700.00000 L 70.710678,700.00000 z" style="stroke-opacity:1;stroke-linejoin:miter;stroke-linecap:butt;stroke-width:1px;stroke:none;fill-rule:evenodd;fill-opacity:1;fill:#f3e718"/><path id="path3598" d="M 0.00000000,0.00000000 L 250.00000,250.00000 L 1000.0000,250.00000 L 1000.0000,233.00000 L 257.04163,233.00000 L 24.041631,0.00000000 L 0.00000000,0.00000000 z" style="fill:#000;fill-opacity:1;fill-rule:evenodd;stroke:none;stroke-width:1px;stroke-linecap:butt;stroke-linejoin:miter;stroke-opacity:1"/><path id="path4358" d="M 0.00000000,700.00000 L 250.00000,450.00000 L 1000.0000,450.00000 L 1000.0000,467.00000 L 257.04163,467.00000 L 24.041631,700.00000 L 0.00000000,700.00000 z" style="fill:#000;fill-opacity:1;fill-rule:evenodd;stroke:none;stroke-width:1px;stroke-linecap:butt;stroke-linejoin:miter;stroke-opacity:1"/><path id="path4360" d="M 46.669048,0.00000000 L 263.66905,217.00000 L 1000.0000,217.00000 L 1000.0000,200.00000 L 270.71068,200.00000 L 70.710678,0.00000000 L 46.669048,0.00000000 z" style="fill:#000;fill-opacity:1;fill-rule:evenodd;stroke:none;stroke-width:1px;stroke-linecap:butt;stroke-linejoin:miter;stroke-opacity:1"/><path id="path4362" d="M 46.669048,700.00000 L 263.66905,483.00000 L 1000.0000,483.00000 L 1000.0000,500.00000 L 270.71068,500.00000 L 70.710678,700.00000 L 46.669048,700.00000 z" style="fill:#000;fill-opacity:1;fill-rule:evenodd;stroke:none;stroke-width:1px;stroke-linecap:butt;stroke-linejoin:miter;stroke-opacity:1"/></g><g id="layer2" style="display:inline"><path id="path6642" d="M 152.00000,398.00000 L 146.00000,410.00000 L 164.00000,434.00000 L 182.00000,410.00000 L 176.00000,398.00000 L 212.00000,362.00000 L 224.00000,368.00000 L 248.00000,350.00000 L 224.00000,332.00000 L 212.00000,338.00000 L 176.00000,302.00000 L 182.00000,290.00000 L 164.00000,266.00000 L 146.00000,290.00000 L 152.00000,302.00000 L 116.00000,338.00000 L 104.00000,332.00000 L 80.000000,350.00000 L 104.00000,368.00000 L 116.60000,362.00000 L 152.00000,398.00000 z" style="fill:#fff;fill-opacity:1;fill-rule:evenodd;stroke:#000;stroke-width:5;stroke-linecap:butt;stroke-linejoin:miter;stroke-miterlimit:4;stroke-opacity:1"/><path id="path4364" d="M 164.00000,386.00000 L 200.00000,350.00000 L 164.00000,314.00000 L 128.00000,350.00000 L 164.00000,386.00000 z" style="stroke-opacity:1;stroke-miterlimit:4;stroke-linejoin:miter;stroke-linecap:butt;stroke-width:5;stroke:#000;fill-rule:evenodd;fill-opacity:1;fill:#038301"/><path id="path11198" d="M 116.00000,350.00000 L 104.00000,344.00000 L 96.000000,350.00000 L 104.00000,356.00000 L 116.00000,350.00000 z" style="fill:#000;fill-opacity:1;fill-rule:evenodd;stroke:none;stroke-width:1px;stroke-linecap:butt;stroke-linejoin:miter;stroke-opacity:1"/><path id="path11959" d="M 212.00000,350.00000 L 224.00000,344.00000 L 232.00000,350.00000 L 224.00000,356.00000 L 212.00000,350.00000 z" style="fill:#000;fill-opacity:1;fill-rule:evenodd;stroke:none;stroke-width:1px;stroke-linecap:butt;stroke-linejoin:miter;stroke-opacity:1"/><path id="path11961" d="M 164.00000,302.00000 L 170.00000,290.00000 L 164.00000,282.00000 L 158.00000,290.00000 L 164.00000,302.00000 z" style="fill:#000;fill-opacity:1;fill-rule:evenodd;stroke:none;stroke-width:1px;stroke-linecap:butt;stroke-linejoin:miter;stroke-opacity:1"/><path id="path11963" d="M 164.00000,398.00000 L 170.00000,410.00000 L 164.00000,418.00000 L 158.00000,410.00000 L 164.00000,398.00000 z" style="fill:#000;fill-opacity:1;fill-rule:evenodd;stroke:none;stroke-width:1px;stroke-linecap:butt;stroke-linejoin:miter;stroke-opacity:1"/></g></svg>