<svg xmlns="http://www.w3.org/2000/svg" xmlns:xlink="http://www.w3.org/1999/xlink" width="700" height="500" viewBox="0 0 2100 1500"><title>Bandeira do Amazonas</title><defs><polygon id="t" fill="#fff" points=".162 0 0 -.5 -.162 0" transform="scale(65)"/><g id="s"><use xlink:href="#t"/><use transform="rotate(72)" xlink:href="#t"/><use transform="rotate(-72)" xlink:href="#t"/><use transform="rotate(144)" xlink:href="#t"/><use transform="rotate(-144)" xlink:href="#t"/></g><use id="s1" transform="scale(2)" xlink:href="#s"/></defs><rect width="2100" height="1500" x="0" y="0" fill="#fff"/><rect width="2100" height="500" x="0" y="500" fill="#d20000"/><rect width="900" height="500" x="0" y="0" fill="#001e78"/><use x="450" y="250" xlink:href="#s1"/><use x="100" y="100" xlink:href="#s"/><use x="200" y="100" xlink:href="#s"/><use x="300" y="100" xlink:href="#s"/><use x="400" y="100" xlink:href="#s"/><use x="500" y="100" xlink:href="#s"/><use x="600" y="100" xlink:href="#s"/><use x="700" y="100" xlink:href="#s"/><use x="800" y="100" xlink:href="#s"/><use x="100" y="200" xlink:href="#s"/><use x="300" y="200" xlink:href="#s"/><use x="600" y="200" xlink:href="#s"/><use x="800" y="200" xlink:href="#s"/><use x="100" y="300" xlink:href="#s"/><use x="300" y="300" xlink:href="#s"/><use x="600" y="300" xlink:href="#s"/><use x="800" y="300" xlink:href="#s"/><use x="100" y="400" xlink:href="#s"/><use x="200" y="400" xlink:href="#s"/><use x="300" y="400" xlink:href="#s"/><use x="400" y="400" xlink:href="#s"/><use x="500" y="400" xlink:href="#s"/><use x="600" y="400" xlink:href="#s"/><use x="700" y="400" xlink:href="#s"/><use x="800" y="400" xlink:href="#s"/></svg>