<svg xmlns="http://www.w3.org/2000/svg" xmlns:svg="http://www.w3.org/2000/svg" id="svg2" width="1500" height="1050" x="0" y="0" version="1.0"><metadata id="metadata13"/><g id="layer1" transform="matrix(1,0,0,1.0499944,0,0.00185382)" style="stroke:none"><rect id="rect3635" width="1500" height="1000" x="0" y="0" style="fill:#fff;fill-opacity:1;stroke:none"/><rect id="rect1291" width="520" height="520" x="490" y="240" style="fill:#00923f;fill-opacity:1;stroke:none"/><path id="path2859" d="m 713,463 0,-105.04109 25.9,-25.89041 0,-48.0822 -25.9,0 37,-36.9863 37,36.9863 -25.9,0 0,48.0822 L 787,357.95891 787,463 750,426.0137 713,463 z" style="fill:#f8c300;fill-opacity:1;fill-rule:evenodd;stroke:none"/><path id="path3619" d="m 713,537 -105.0411,0 -25.89041,-25.89999 -48.08219,0 0,25.89999 L 497,500 l 36.9863,-37 0,25.90001 48.08219,0 L 607.9589,463 713,463 676.0137,500 713,537 z" style="fill:#f8c300;fill-opacity:1;fill-rule:evenodd;stroke:none"/><path id="path3621" d="m 787,463 105.04109,0 25.8904,25.89999 48.08219,0 0,-25.89999 36.98632,37 -36.98632,37 0,-25.90001 -48.08219,0 L 892.04109,537 787,537 823.9863,500 787,463 z" style="fill:#f8c300;fill-opacity:1;fill-rule:evenodd;stroke:none"/><path id="path3623" d="m 787,537 0,105.04108 -25.9,25.89042 0,48.08218 25.9,0 L 750.00001,753 713,716.01368 l 25.9,0 0,-48.08218 L 713,642.04108 713,537 750.00001,573.9863 787,537 z" style="fill:#f8c300;fill-opacity:1;fill-rule:evenodd;stroke:none"/></g></svg>