<svg xmlns="http://www.w3.org/2000/svg" xmlns:svg="http://www.w3.org/2000/svg" id="svg2" width="1500" height="1050" x="0" y="0" version="1.0"><metadata id="metadata20"/><g id="layer1" transform="matrix(1.0454718,0,0,1.0499835,0,0.01657823)"><rect id="rect1291" width="1435.035" height="125" x="0" y="875" style="fill:#f3e718;fill-opacity:1;stroke:none"/><rect id="rect1293" width="1434.8" height="125" x="0" y="750" style="fill:#00994c;fill-opacity:1;stroke:none"/><rect id="rect3571" width="1434.623" height="125" x="0" y="125" style="fill:#f3e718;fill-opacity:1;stroke:none"/><rect id="rect3573" width="1434.873" height="125" x="0" y="375" style="fill:#f3e718;fill-opacity:1;stroke:none"/><rect id="rect3575" width="1434.873" height="125" x="0" y="625" style="fill:#f3e718;fill-opacity:1;stroke:none"/><rect id="rect3577" width="1434.873" height="125" x="0" y="0" style="fill:#00994c;fill-opacity:1;stroke:none"/><rect id="rect3579" width="1434.873" height="125" x="0" y="250" style="fill:#00994c;fill-opacity:1;stroke:none"/><rect id="rect3581" width="1434.873" height="125" x="0" y="500" style="fill:#00994c;fill-opacity:1;stroke:none"/><rect id="rect3583" width="500" height="375" x="0" y="0" style="fill:#002580;fill-opacity:1;stroke:none"/><path id="path4345" d="M 447.02282,339.72136 400,305.55728 l -47.02282,34.16408 17.96112,-55.27864 -47.02282,-34.16408 58.1234,0 L 400,195 l 17.96112,55.27864 58.1234,0 -47.02282,34.16408 17.96112,55.27864 z" style="fill:#fff;fill-opacity:1;stroke:none"/><path id="path5105" d="M 447.02282,164.72136 400,130.55728 l -47.02282,34.16408 17.96112,-55.27864 -47.02282,-34.16408 58.1234,0 L 400,20 l 17.96112,55.27864 58.1234,0 -47.02282,34.16408 17.96112,55.27864 z" style="fill:#fff;fill-opacity:1;stroke:none"/><path id="path5107" d="M 147.02282,164.72136 100,130.55728 52.97718,164.72136 70.938298,109.44272 23.915479,75.27864 l 58.123402,0 L 100,20 l 17.96112,55.27864 58.1234,0 -47.02282,34.16408 17.96112,55.27864 z" style="fill:#fff;fill-opacity:1;stroke:none"/><path id="path5109" d="M 147.02282,339.72136 100,305.55728 52.97718,339.72136 70.938298,284.44272 23.915479,250.27864 l 58.123402,0 L 100,195 l 17.96112,55.27864 58.1234,0 -47.02282,34.16408 17.96112,55.27864 z" style="fill:#fff;fill-opacity:1;stroke:none"/><path id="path5111" d="M 285.26712,236.04102 250,210.41796 l -35.26712,25.62306 13.47084,-41.45898 -35.26711,-25.62306 43.59255,0 L 250,127.5 l 13.47084,41.45898 43.59255,0 -35.26711,25.62306 13.47084,41.45898 z" style="fill:#fff;fill-opacity:1;stroke:none"/></g></svg>