<svg xmlns="http://www.w3.org/2000/svg" xmlns:ev="http://www.w3.org/2001/xml-events" xmlns:xlink="http://www.w3.org/1999/xlink" id="Flag_of_Hawaii" width="1200" height="600" baseProfile="full" preserveAspectRatio="xMidYMid meet" version="1.1" viewBox="-13.125 -7.5 26.25 15" zoomAndPan="magnify"><defs><clipPath id="border"><rect width="26.25" height="15" x="-13.125" y="-7.5"/></clipPath></defs><rect width="30" height="15" x="-15" y="-7.5" fill="#CF142B"/><path stroke="#fff" stroke-width="1.875" d="M -15,-6.5625 H 15"/><g id="blwh"><path stroke="#00247D" stroke-width="1.875" d="M -15,-2.8125 H 15"/><path stroke="#fff" stroke-width="1.875" d="M -15,-0.9375 H 15"/></g><use transform="translate(0,5.625)" xlink:href="#blwh"/><g clip-path="url(#border)" transform="matrix(0.5,0,0,0.5,-8.4375,-3.75)"><circle r="16" fill="#00247D"/><path id="diags_white" stroke="#fff" stroke-width="3" d="M -17.5,-10 L 17.5,10 M -17.5,10 L 17.5,-10"/><path id="diags_red" stroke="#CF142B" stroke-width="2" d="M -17.5,-10 L 17.5,10 M -17.5,10 L 17.5,-10"/><path id="eraser_white" fill="#fff" stroke="none" d="M 0,0 l 17.5,10 h -2.25 l -17.5,-10 M 0,0 l 17.5,-10 h 2.25 l -17.5,10 M 0,0 l -17.5,10 h -2.25 l 17.5,-10 M 0,0 l -17.5,-10 h 2.25 l 17.5,10"/><comment>I think the above two lines give the simplest way to make the diagonals</comment><path id="cross_white" stroke="#fff" stroke-width="5" d="M -17.5,0 H 17.5 M 0,-10 V 10"/><path id="cross_red" stroke="#CF142B" stroke-width="3" d="M -17.5,0 H 17.5 M 0,-10 V 10"/></g></svg>