<svg xmlns="http://www.w3.org/2000/svg" xmlns:xlink="http://www.w3.org/1999/xlink" width="600" height="400" enable-background="new 0 0 600 400" overflow="visible" viewBox="0 0 600 400" xml:space="preserve"><g id="Ebene_1"><rect width="600" height="400" fill="#FC1B1C"/><g><path fill="#FFF" stroke="#000" stroke-miterlimit="3.864" stroke-width="1.2" d="M300.9990234,46.3300781h-1.9433594 v5.2041016h-6.2695313v4.0668945h6.2695313v9.5253906c-7.7949219,1.390625-7.2871094,10.2382813-7.2871094,10.2382813 l9.2304688-0.5083008l9.2304688,0.5083008c0,0,0.5078125-8.8476563-7.2871094-10.2382813v-9.5253906h6.2695313v-4.0668945 h-6.2695313v-5.2041016H300.9990234L300.9990234,46.3300781z"/><polygon fill="#FFF" stroke="#000" stroke-miterlimit="3.864" stroke-width="1.2" points="219.775 82.389 228.521 82.389 228.521 93.519 234.903 93.519 234.903 82.389 243.269 82.389 243.269 93.519 248.669 93.519 248.669 82.389 257.356 82.389 257.356 93.519 263.073 93.519 263.073 82.389 271.393 82.389 271.393 104.309 268.601 105.514 223.137 105.514 219.775 104.309 219.775 82.389"/><polygon fill="#FFF" stroke="#000" stroke-miterlimit="3.864" stroke-width="1.2" points="382.222 82.389 373.478 82.389 373.478 93.519 367.095 93.519 367.095 82.389 358.729 82.389 358.729 93.519 353.329 93.519 353.329 82.389 344.642 82.389 344.642 93.519 338.925 93.519 338.925 82.389 330.605 82.389 330.605 104.309 333.397 105.514 378.861 105.514 382.222 104.309 382.222 82.389"/><polygon fill="#FFF" stroke="#000" stroke-miterlimit="3.864" stroke-width="1.2" points="223.137 105.508 268.536 105.508 268.536 201.938 223.137 201.938 223.137 105.508"/><polygon fill="#FFF" stroke="#000" stroke-miterlimit="3.864" stroke-width="1.2" points="378.861 105.508 333.462 105.508 333.462 201.938 378.861 201.938 378.861 105.508"/><polygon fill="#FFF" stroke="#000" stroke-miterlimit="3.864" stroke-width="1.2" points="258.343 69.322 250.104 69.323 245.985 76.458 241.866 69.323 233.627 69.322 237.746 62.188 233.627 55.053 241.866 55.053 245.985 47.918 250.104 55.053 258.343 55.053 254.224 62.188 258.343 69.322"/><polygon fill="#FFF" stroke="#000" stroke-miterlimit="3.864" stroke-width="1.2" points="343.655 69.322 351.894 69.323 356.013 76.458 360.132 69.323 368.371 69.322 364.252 62.188 368.371 55.053 360.133 55.053 356.013 47.918 351.894 55.053 343.655 55.053 347.774 62.188 343.655 69.322"/><path fill="#FFF" stroke="#000" stroke-miterlimit="3.864" stroke-width="1.2" d="M300.9990234,73.3276367 c-10.9609375,0-22.0673828,9.5996094-22.0673828,21.5810547c2.4042969,0,22.0673828,0,22.0673828,0s19.6630859,0,22.0673828,0 C323.0664063,82.9272461,311.9599609,73.3276367,300.9990234,73.3276367L300.9990234,73.3276367z"/><polygon fill="#FFF" stroke="#000" stroke-miterlimit="3.864" stroke-width="1.2" points="300.999 94.909 275.636 94.909 275.636 104.655 278.136 105.508 300.999 105.508 323.862 105.508 326.362 104.655 326.362 94.909 300.999 94.909"/><polygon fill="#FFF" stroke="#000" stroke-miterlimit="3.864" stroke-width="1.2" points="300.999 105.508 278.573 105.508 278.573 200.621 300.999 200.621 323.425 200.621 323.425 105.508 300.999 105.508"/><polygon fill="#FFF" stroke="#000" stroke-miterlimit="3.864" stroke-width="1.2" points="300.999 185.442 293.969 185.442 293.969 198.497 280.914 198.497 280.914 185.442 266.57 185.442 266.57 198.497 254.613 198.497 254.613 185.442 240.73 185.442 240.73 198.497 228.864 198.497 228.864 185.442 212.613 185.442 212.613 210.179 216.546 211.118 300.999 211.118 385.452 211.118 387.385 210.179 387.385 185.442 373.134 185.442 373.134 198.497 361.268 198.497 361.268 185.442 347.385 185.442 347.385 198.497 335.427 198.497 335.427 185.442 321.084 185.442 321.084 198.497 308.028 198.497 308.028 185.442 300.999 185.442"/><path fill="#FFF" stroke="#000" stroke-miterlimit="3.864" d="M192.7392578,325.453125h214.5214844 c0,0-7.1708984-12.5371094-15.1748047-48.7988281c-7.3710938-33.3974609-4.6992188-66.4755859-4.6992188-66.4755859H212.6132813 c0,0,2.671875,33.078125-4.6992188,66.4755859C199.9111328,312.9160156,192.7392578,325.453125,192.7392578,325.453125 L192.7392578,325.453125z"/><polygon fill="#FFF" stroke="#000" stroke-miterlimit="3.864" points="192.739 325.453 407.262 325.453 407.262 340.045 192.739 340.045 192.739 325.453"/><line x1="193.339" x2="406.661" y1="325.453" y2="325.453" fill="none" stroke="#000" stroke-miterlimit="3.864" stroke-width="2"/><path fill="none" stroke="#000" stroke-linecap="square" stroke-miterlimit="3.864" stroke-width="2" d="M223.8359375,106.0166016h44.0371094 M334.3554688,106.0166016h44.0371094 M279.2011719,106.0166016h43.4375"/><polygon fill="#FFF" points="265.892 224.536 336.107 223.63 336.107 339.615 265.892 339.615 265.892 224.536"/><g><defs><polygon id="XMLID_1_" points="265.892 224.536 336.107 223.63 336.107 339.615 265.892 339.615 265.892 224.536"/></defs><clipPath id="XMLID_3_"><use xlink:href="#XMLID_1_"/></clipPath><line x1="323.979" x2="317.527" y1="271.072" y2="271.072" fill="none" stroke="#000" stroke-miterlimit="3.864" clip-path="url(#XMLID_3_)"/><path stroke="#000" stroke-miterlimit="3.864" stroke-width=".91" d="M317.0722656,271.1904297c0-3.15625-1.1777344-3.15625-2.1044922-3.15625s0.1132813,1.2714844,0.1132813,3.0146484 s-1.0400391,3.2988281-0.1132813,3.2988281S317.0722656,274.0625,317.0722656,271.1904297L317.0722656,271.1904297z" clip-path="url(#XMLID_3_)"/><line x1="323.979" x2="317.527" y1="321.223" y2="321.223" fill="none" stroke="#000" stroke-miterlimit="3.864" clip-path="url(#XMLID_3_)"/><path stroke="#000" stroke-miterlimit="3.864" stroke-width=".91" d="M317.0722656,321.3417969c0-3.1572266-1.1777344-3.15625-2.1044922-3.15625s0.1132813,1.2705078,0.1132813,3.0136719 s-1.0400391,3.2988281-0.1132813,3.2988281S317.0722656,324.2138672,317.0722656,321.3417969L317.0722656,321.3417969z" clip-path="url(#XMLID_3_)"/><path fill="none" stroke="#000" stroke-miterlimit="3.864" stroke-width="2.5" d="M267.3525391,352.4345703v-86.0947266c0-6.6865234,9.0947266-30.8115234,33.6464844-30.8115234 s33.6464844,24.125,33.6464844,30.8115234v86.0947266" clip-path="url(#XMLID_3_)"/><path fill="none" stroke="#000" stroke-miterlimit="3.864" stroke-width="1.2" d="M278.0195313,353.2216797v-82.9521484c0-11.3896484,9.0537109-24.4316406,22.9794922-24.4316406v107.8320313V245.8378906 c13.9257813,0,22.9794922,13.0419922,22.9794922,24.4316406v82.9521484" clip-path="url(#XMLID_3_)"/><line x1="278.02" x2="284.471" y1="271.072" y2="271.072" fill="none" stroke="#000" stroke-miterlimit="3.864" clip-path="url(#XMLID_3_)"/><path stroke="#000" stroke-miterlimit="3.864" stroke-width=".91" d="M284.9257813,271.1904297c0-3.15625,1.1777344-3.15625,2.1044922-3.15625s-0.1142578,1.2714844-0.1142578,3.0146484 s1.0410156,3.2988281,0.1142578,3.2988281S284.9257813,274.0625,284.9257813,271.1904297L284.9257813,271.1904297z" clip-path="url(#XMLID_3_)"/><line x1="278.02" x2="284.471" y1="321.223" y2="321.223" fill="none" stroke="#000" stroke-miterlimit="3.864" clip-path="url(#XMLID_3_)"/><path stroke="#000" stroke-miterlimit="3.864" stroke-width=".91" d="M284.9257813,321.3417969c0-3.1572266,1.1777344-3.15625,2.1044922-3.15625s-0.1142578,1.2705078-0.1142578,3.0136719 s1.0410156,3.2988281,0.1142578,3.2988281S284.9257813,324.2138672,284.9257813,321.3417969L284.9257813,321.3417969z" clip-path="url(#XMLID_3_)"/></g><line x1="213.213" x2="386.885" y1="210.179" y2="210.179" fill="none" stroke="#000" stroke-linecap="square" stroke-miterlimit="3.864" stroke-width="2"/></g></g></svg>